<svg width="64" height="64" viewBox="0 0 64 64" fill="none" xmlns="http://www.w3.org/2000/svg">
<circle cx="32" cy="32" r="31" fill="#190624" stroke="#00FF4A" stroke-width="2"/>
<path d="M43.9787 37.49V41H20.2927V39.31C20.2927 37.0567 20.7 35.3407 21.5147 34.162C22.3294 32.966 23.326 32.1513 24.5047 31.718C25.7007 31.2847 27.2954 30.9033 29.2887 30.574C29.8954 30.4873 30.944 30.3487 32.4347 30.158C33.9427 29.9847 35.13 29.82 35.9967 29.664C36.8807 29.508 37.6087 29.2653 38.1807 28.936C38.77 28.5893 39.0647 28.1213 39.0647 27.532C39.0647 26.4573 38.354 25.6687 36.9327 25.166C35.5287 24.6633 33.804 24.4207 31.7587 24.438C29.8 24.438 28.136 24.7413 26.7667 25.348C25.3974 25.9373 24.7127 26.8733 24.7127 28.156L20.2927 28.13C20.2927 26.362 20.9167 24.9667 22.1647 23.944C23.43 22.904 24.9294 22.1847 26.6627 21.786C28.396 21.3873 30.086 21.188 31.7327 21.188C34.7487 21.188 37.4614 21.6127 39.8707 22.462C42.2974 23.294 43.5107 24.984 43.5107 27.532C43.5107 28.9013 42.9387 29.9847 41.7947 30.782C40.668 31.5793 39.394 32.1427 37.9727 32.472C36.5687 32.8013 34.9047 33.096 32.9807 33.356C32.218 33.4427 31.646 33.5207 31.2647 33.59C29.878 33.7287 28.6647 34.0147 27.6247 34.448C26.602 34.8813 25.8134 35.3753 25.2587 35.93C24.7214 36.4673 24.4527 36.9873 24.4527 37.49H43.9787Z" fill="white"/>
</svg>
