<svg width="64" height="64" viewBox="0 0 64 64" fill="none" xmlns="http://www.w3.org/2000/svg">
<circle cx="32" cy="32" r="31" fill="#190624" stroke="#00FF4A" stroke-width="2"/>
<path d="M43.8693 35.63C43.852 38.0393 42.76 39.7987 40.5933 40.908C38.4266 42.0173 35.6013 42.572 32.1173 42.572C29.552 42.572 27.3593 42.2513 25.5393 41.61C23.7193 40.9687 22.3326 40.0413 21.3793 38.828C20.4433 37.6147 19.9753 36.1673 19.9753 34.486H24.2393C24.2393 36.1153 25.002 37.3113 26.5273 38.074C28.0526 38.8367 29.916 39.218 32.1173 39.218C34.128 39.2353 35.844 38.958 37.2653 38.386C38.6866 37.7967 39.406 36.8693 39.4233 35.604C39.406 35.0667 39.2673 34.668 39.0073 34.408C38.7646 34.1307 38.2273 33.9313 37.3953 33.81C36.5633 33.6713 35.272 33.602 33.5213 33.602H28.7113V30.378H33.5213C34.7346 30.378 35.7226 30.3347 36.4853 30.248C37.2653 30.144 37.898 29.936 38.3833 29.624C38.8686 29.312 39.1113 28.8353 39.1113 28.194C39.1113 27.31 38.4353 26.6513 37.0833 26.218C35.7313 25.7847 34.076 25.5507 32.1173 25.516C29.916 25.4987 28.0526 25.7413 26.5273 26.244C25.002 26.7293 24.2393 27.518 24.2393 28.61H19.9753C19.9753 26.114 21.232 24.424 23.7453 23.54C26.276 22.6387 29.0666 22.188 32.1173 22.188C33.972 22.188 35.6966 22.3093 37.2913 22.552C38.9033 22.7773 40.316 23.3147 41.5293 24.164C42.7426 25.0133 43.3493 26.27 43.3493 27.934C43.3493 29.7713 42.5606 31.028 40.9833 31.704C42.838 32.38 43.8 33.6713 43.8693 35.578V35.63Z" fill="white"/>
</svg>
