<svg width="274" height="274" viewBox="0 0 274 274" fill="none" xmlns="http://www.w3.org/2000/svg">
<g id="arrows">
<path id="ar2" d="M264 12C264 10.8954 263.105 9.99999 262 9.99999L244 9.99999C242.895 9.99999 242 10.8954 242 12C242 13.1046 242.895 14 244 14L260 14L260 30C260 31.1046 260.895 32 262 32C263.105 32 264 31.1046 264 30L264 12ZM12.4142 264.414L263.414 13.4142L260.586 10.5858L9.58579 261.586L12.4142 264.414Z" fill="#00FF4A"/>
<path id="ar1" d="M172 49C172 47.8954 171.105 47 170 47H152C150.895 47 150 47.8954 150 49C150 50.1046 150.895 51 152 51H168V67C168 68.1046 168.895 69 170 69C171.105 69 172 68.1046 172 67V49ZM54.4142 167.414L171.414 50.4142L168.586 47.5858L51.5858 164.586L54.4142 167.414Z" fill="#00FF4A"/>
<path id="ar3" d="M264 69C264 67.8954 263.105 67 262 67H244C242.895 67 242 67.8954 242 69C242 70.1046 242.895 71 244 71H260V87C260 88.1046 260.895 89 262 89C263.105 89 264 88.1046 264 87V69ZM146.414 187.414L263.414 70.4142L260.586 67.5858L143.586 184.586L146.414 187.414Z" fill="#00FF4A"/>
</g>
</svg>
