<svg width="158" height="103" viewBox="0 0 158 103" fill="none" xmlns="http://www.w3.org/2000/svg">
<path d="M158 2C158 0.895433 157.105 2.8328e-06 156 2.8328e-06L138 2.8328e-06C136.896 2.8328e-06 136 0.895433 136 2C136 3.10457 136.896 4 138 4H154V20C154 21.1046 154.896 22 156 22C157.105 22 158 21.1046 158 20V2ZM58.4143 102.414L157.414 3.41422L154.586 0.585789L55.5859 99.5858L58.4143 102.414Z" fill="#00FF4A"/>
<path d="M66 39.0004C66 37.8958 65.1046 37.0004 64 37.0004H46C44.8954 37.0004 44 37.8958 44 39.0004C44 40.1049 44.8954 41.0004 46 41.0004L62 41.0004L62 57.0004C62 58.1049 62.8954 59.0004 64 59.0004C65.1046 59.0004 66 58.1049 66 57.0004V39.0004ZM3.41421 102.415L65.4142 40.4146L62.5858 37.5862L0.585786 99.5862L3.41421 102.415Z" fill="#00FF4A"/>
<path d="M158 59.0002C158 57.8957 157.105 57.0002 156 57.0002L138 57.0002C136.895 57.0002 136 57.8957 136 59.0002C136 60.1048 136.895 61.0002 138 61.0002H154V77.0002C154 78.1048 154.895 79.0002 156 79.0002C157.105 79.0002 158 78.1048 158 77.0002V59.0002ZM115.414 102.414L157.414 60.4145L154.586 57.586L112.586 99.586L115.414 102.414Z" fill="#00FF4A"/>
</svg>
