<svg width="160" height="160" viewBox="0 0 160 160" fill="none" xmlns="http://www.w3.org/2000/svg">
<path d="M94.6875 117.812H83.0112C82.3517 111.429 79.349 105.517 74.5837 101.218C69.8183 96.9198 63.6286 94.5407 57.2111 94.5407C50.7936 94.5407 44.6039 96.9198 39.8385 101.218C35.0732 105.517 32.0705 111.429 31.4109 117.812H19.6875V30H79.0625V26.25H19.6875V25.4294C19.6875 17.8075 26.0422 11.5625 33.6644 11.5625H80.7581C84.2691 11.5656 87.6468 12.9074 90.2028 15.3144L92.7653 12.5644C89.5139 9.5095 85.2195 7.81001 80.7581 7.8125H33.6644C23.9747 7.8125 15.9375 15.7397 15.9375 25.4294V135.315C15.9375 145.005 23.9747 152.812 33.6644 152.812H80.7581C90.4478 152.812 98.4375 145.005 98.4375 135.315V75.9375H94.6875V117.812ZM57.2109 98.2987C62.6277 98.3135 67.8531 100.304 71.9071 103.896C75.9612 107.489 78.5654 112.437 79.2316 117.812H35.1903C35.8564 112.437 38.4607 107.489 42.5148 103.896C46.5688 100.304 51.7942 98.3135 57.2109 98.2987ZM80.7581 149.062H33.6644C26.0422 149.062 19.6875 142.937 19.6875 135.315V121.562H94.6875V135.315C94.6875 142.937 88.3797 149.062 80.7581 149.062Z" fill="white"/>
<path d="M64.4706 133.438H49.95C49.4527 133.437 48.9758 133.635 48.6242 133.987C48.2726 134.338 48.075 134.815 48.075 135.312C48.075 135.81 48.2726 136.287 48.6242 136.638C48.9758 136.99 49.4527 137.188 49.95 137.188H64.4706C64.9679 137.187 65.4448 136.99 65.7964 136.638C66.1481 136.287 66.3456 135.81 66.3456 135.312C66.3456 134.815 66.1481 134.338 65.7964 133.987C65.4448 133.635 64.9679 133.438 64.4706 133.438V133.438Z" fill="white"/>
<path d="M42.3505 74.322C42.3505 77.3368 43.2445 80.2838 44.9194 82.7905C46.5943 85.2972 48.9749 87.251 51.7602 88.4047C54.5455 89.5585 57.6103 89.8604 60.5672 89.2723C63.524 88.6841 66.2401 87.2324 68.3719 85.1007C70.5037 82.969 71.9555 80.253 72.5438 77.2961C73.132 74.3393 72.8302 71.2744 71.6766 68.4891C70.523 65.7038 68.5693 63.3231 66.0627 61.6481C63.5561 59.9731 60.609 59.079 57.5942 59.0789C53.5528 59.0832 49.6781 60.6905 46.8203 63.5482C43.9625 66.4059 42.355 70.2805 42.3505 74.322V74.322ZM69.0864 74.322C69.0864 76.5951 68.4123 78.8173 67.1494 80.7073C65.8865 82.5974 64.0915 84.0705 61.9913 84.9403C59.8912 85.8102 57.5802 86.0377 55.3508 85.5942C53.1213 85.1507 51.0734 84.0559 49.4661 82.4485C47.8588 80.8411 46.7643 78.7931 46.3209 76.5636C45.8775 74.3341 46.1053 72.0232 46.9753 69.9231C47.8453 67.823 49.3186 66.0281 51.2088 64.7653C53.0989 63.5026 55.3211 62.8287 57.5942 62.8289C60.6412 62.8325 63.5623 64.0446 65.7168 66.1992C67.8712 68.3538 69.083 71.275 69.0864 74.322V74.322Z" fill="white"/>
<path d="M108.95 7.11255C101.987 7.11165 95.1832 9.1901 89.4096 13.0815C83.6359 16.9728 79.1559 22.4998 76.5439 28.9539C73.9318 35.4079 73.3068 42.495 74.7488 49.3067C76.1908 56.1183 79.6342 62.3441 84.6376 67.186L76.3563 85.8629C76.1947 86.2263 76.1528 86.6316 76.2367 87.0204C76.3207 87.4092 76.526 87.7612 76.8231 88.0256C77.1202 88.2899 77.4937 88.453 77.8896 88.4912C78.2855 88.5293 78.6832 88.4406 79.0254 88.2379L99.9463 75.8576C104.753 77.1368 109.776 77.3759 114.682 76.5588C119.588 75.7417 124.263 73.8872 128.396 71.1192C132.528 68.3512 136.022 64.7335 138.644 60.5075C141.267 56.2816 142.957 51.5447 143.603 46.6133C144.249 41.6819 143.835 36.6694 142.39 31.9106C140.944 27.1519 138.499 22.7563 135.219 19.0176C131.94 15.2788 127.9 12.2829 123.37 10.2299C118.84 8.17697 113.924 7.11418 108.95 7.11255V7.11255ZM108.95 73.2788C105.992 73.2821 103.049 72.8634 100.209 72.0354C99.9626 71.9633 99.7039 71.9426 99.4491 71.9745C99.1943 72.0065 98.9487 72.0904 98.7276 72.221L82.1626 82.0238L88.6088 67.4841C88.7692 67.1218 88.8107 66.7179 88.7272 66.3305C88.6438 65.9431 88.4398 65.5921 88.1445 65.3279C82.7094 60.4639 79.15 53.8497 78.0844 46.6343C77.0188 39.4189 78.5144 32.0582 82.3114 25.8308C86.1084 19.6034 91.9668 14.9028 98.8691 12.5456C105.771 10.1883 113.281 10.3234 120.094 12.9274C126.907 15.5313 132.593 20.4395 136.163 26.7994C139.734 33.1594 140.964 40.5691 139.64 47.7415C138.315 54.9139 134.52 61.3958 128.914 66.0612C123.307 70.7266 116.244 73.2806 108.95 73.2797V73.2788Z" fill="#00FF4A"/>
</svg>
