<svg width="160" height="187" viewBox="0 0 160 187" fill="none" xmlns="http://www.w3.org/2000/svg">
<path d="M128.819 49.4631C129.36 48.9215 129.79 48.2785 130.083 47.5708C130.376 46.8631 130.527 46.1046 130.527 45.3386C130.527 44.5725 130.376 43.814 130.083 43.1063C129.79 42.3986 129.36 41.7556 128.819 41.214L123.809 36.2046C123.268 35.663 122.625 35.2333 121.917 34.9402C121.209 34.6471 120.451 34.4962 119.685 34.4962C118.919 34.4962 118.16 34.6471 117.453 34.9402C116.745 35.2333 116.102 35.663 115.561 36.2046L108.847 42.8527C99.2588 34.5594 87.4536 29.253 74.8864 27.5875V18.6316H79.3576C80.1096 18.6414 80.856 18.5 81.5524 18.216C82.2489 17.932 82.8812 17.5111 83.412 16.9782C83.9427 16.4453 84.3611 15.8113 84.6423 15.1137C84.9235 14.4161 85.0619 13.6692 85.0491 12.9172V5.83254C85.0641 5.07435 84.9281 4.32076 84.6491 3.6156C84.3701 2.91044 83.9537 2.26779 83.4241 1.72504C82.8945 1.1823 82.2622 0.750284 81.5641 0.454135C80.866 0.157986 80.1159 0.00361416 79.3576 0H52.6301C51.8718 0.00367013 51.1218 0.158083 50.4237 0.454256C49.7257 0.75043 49.0934 1.18245 48.5639 1.7252C48.0343 2.26794 47.6179 2.91056 47.339 3.6157C47.06 4.32083 46.924 5.07439 46.939 5.83254V12.9172C46.9262 13.6692 47.0645 14.4161 47.3457 15.1136C47.6269 15.8111 48.0453 16.4451 48.576 16.978C49.1067 17.5109 49.739 17.9319 50.4354 18.2159C51.1318 18.4999 51.8781 18.6413 52.6301 18.6316H57.1017V27.5883C24.9198 32.0007 0 59.6635 0 93.0273C0 129.16 29.1297 158.604 65.1527 159.074C65.2963 159.124 65.4443 159.16 65.5947 159.183C65.7269 159.183 65.8395 159.216 65.9661 159.216H65.994C71.7042 159.196 77.3879 158.44 82.9044 156.965C83.5624 156.793 84.1248 156.366 84.4681 155.779C84.8114 155.191 84.9073 154.492 84.7347 153.834C84.5621 153.176 84.1353 152.613 83.548 152.27C82.9607 151.927 82.2611 151.831 81.6031 152.004C77.1944 153.165 72.6682 153.823 68.1113 153.965V144.534C68.1113 143.86 67.8436 143.213 67.3671 142.737C66.8907 142.261 66.2444 141.993 65.5706 141.993C64.8968 141.993 64.2505 142.261 63.7741 142.737C63.2976 143.213 63.0299 143.86 63.0299 144.534V153.931C47.9123 153.228 33.5994 146.915 22.8861 136.226C12.1727 125.537 5.82812 111.238 5.09109 96.1222H14.0842C14.7581 96.1222 15.4043 95.8545 15.8808 95.3781C16.3572 94.9016 16.6249 94.2554 16.6249 93.5815C16.6249 92.9077 16.3572 92.2615 15.8808 91.785C15.4043 91.3085 14.7581 91.0409 14.0842 91.0409H5.06018C6.14335 59.2824 31.2715 33.6377 63.0299 32.1239V41.5443C63.0299 42.2181 63.2976 42.8643 63.7741 43.3408C64.2505 43.8173 64.8968 44.085 65.5706 44.085C66.2444 44.085 66.8907 43.8173 67.3671 43.3408C67.8436 42.8643 68.1113 42.2181 68.1113 41.5443V32.0921C99.8697 33.1922 125.835 58.859 126.928 91.0409H117.073C116.399 91.0409 115.753 91.3085 115.277 91.785C114.8 92.2615 114.532 92.9077 114.532 93.5815C114.532 94.2554 114.8 94.9016 115.277 95.3781C115.753 95.8545 116.399 96.1222 117.073 96.1222H126.892C126.689 100.097 126.109 104.043 125.158 107.908C125.078 108.229 125.062 108.564 125.111 108.892C125.161 109.22 125.275 109.535 125.447 109.818C125.619 110.102 125.846 110.348 126.114 110.544C126.382 110.739 126.686 110.879 127.008 110.956C127.664 111.116 128.357 111.01 128.934 110.66C129.511 110.31 129.927 109.746 130.089 109.091C131.395 103.839 132.054 98.4471 132.052 93.0353C132.066 80.2243 128.333 67.6888 121.314 56.9721L128.819 49.4631ZM80.3912 12.7991C80.3912 12.9983 80.3121 13.1894 80.1712 13.3302C80.0303 13.4711 79.8392 13.5503 79.64 13.5503H52.7715C52.5723 13.5503 52.3812 13.4711 52.2403 13.3302C52.0995 13.1894 52.0203 12.9983 52.0203 12.7991V5.83254C52.0203 5.63331 52.0995 5.44225 52.2403 5.30137C52.3812 5.16049 52.5723 5.08135 52.7715 5.08135H79.64C79.8392 5.08135 80.0303 5.16049 80.1712 5.30137C80.3121 5.44225 80.3912 5.63331 80.3912 5.83254V12.7991ZM62.183 18.6316H69.8051V27.0904C68.5347 27.0133 67.253 26.9697 65.9305 26.9697C65.8679 26.9697 65.8369 26.9722 65.7743 26.9722C65.6993 26.9655 65.6396 26.9608 65.5626 26.9608C65.4885 26.9613 65.4146 26.9674 65.3415 26.979C64.2583 26.9904 63.0295 27.0273 62.1826 27.0904L62.183 18.6316ZM112.646 46.3047L119.153 39.7976C119.294 39.6569 119.485 39.5779 119.685 39.5779C119.884 39.5779 120.075 39.6569 120.216 39.7976L125.226 44.8065C125.366 44.9476 125.445 45.1387 125.445 45.3379C125.445 45.5372 125.366 45.7283 125.226 45.8694L118.327 52.7677C116.575 50.4933 114.677 48.3345 112.646 46.3047Z" fill="white"/>
<path d="M89.6075 91.464H68.5355V62.2751C68.5355 61.6012 68.2679 60.955 67.7914 60.4785C67.3149 60.0021 66.6687 59.7344 65.9949 59.7344C65.321 59.7344 64.6748 60.0021 64.1983 60.4785C63.7219 60.955 63.4542 61.6012 63.4542 62.2751V93.9145C63.4409 94.2472 63.4933 94.5793 63.6085 94.8916C63.7237 95.204 63.8994 95.4906 64.1255 95.735C64.3517 95.9794 64.6238 96.1768 64.9263 96.3158C65.2289 96.4549 65.5558 96.5329 65.8886 96.5454H89.6075C90.2813 96.5454 90.9275 96.2777 91.404 95.8012C91.8805 95.3248 92.1481 94.6785 92.1481 94.0047C92.1481 93.3309 91.8805 92.6846 91.404 92.2082C90.9275 91.7317 90.2813 91.464 89.6075 91.464Z" fill="white"/>
<path d="M119.349 105.014C111.309 105.014 103.45 107.398 96.7647 111.865C90.0797 116.331 84.8694 122.68 81.7926 130.108C78.7159 137.536 77.9108 145.71 79.4794 153.595C81.0479 161.481 84.9195 168.724 90.6046 174.409C96.2897 180.094 103.533 183.966 111.418 185.534C119.304 187.103 127.477 186.298 134.905 183.221C142.333 180.144 148.682 174.934 153.149 168.249C157.616 161.564 160 153.704 160 145.664C159.988 134.887 155.701 124.554 148.08 116.933C140.459 109.313 130.127 105.026 119.349 105.014ZM119.349 181.234C112.314 181.234 105.437 179.148 99.5877 175.239C93.7384 171.331 89.1793 165.776 86.4872 159.276C83.795 152.777 83.0906 145.625 84.4631 138.725C85.8355 131.825 89.2232 125.488 94.1977 120.513C99.1721 115.539 105.51 112.151 112.41 110.778C119.31 109.406 126.461 110.11 132.961 112.803C139.46 115.495 145.016 120.054 148.924 125.903C152.832 131.753 154.919 138.629 154.919 145.664C154.907 155.095 151.156 164.135 144.488 170.803C137.82 177.472 128.779 181.223 119.349 181.234Z" fill="#00FF4A"/>
<path d="M118.529 142.715H118.472C117.932 142.725 117.396 142.631 116.895 142.439C116.393 142.247 115.935 141.961 115.549 141.597C115.162 141.233 114.853 140.799 114.641 140.319C114.429 139.838 114.317 139.322 114.313 138.8C114.309 138.29 114.415 137.784 114.622 137.314C114.83 136.845 115.135 136.421 115.519 136.071C115.908 135.71 116.369 135.429 116.874 135.245C117.378 135.061 117.916 134.977 118.455 134.999H118.473C119.013 134.992 119.55 135.088 120.052 135.283C120.555 135.477 121.012 135.765 121.398 136.131C121.785 136.497 122.093 136.934 122.305 137.415C122.516 137.897 122.627 138.414 122.632 138.937C122.634 139.271 122.706 139.6 122.841 139.906C122.977 140.212 123.174 140.489 123.421 140.721C123.669 140.952 123.961 141.134 124.282 141.255C124.602 141.377 124.944 141.435 125.288 141.427H125.3C125.649 141.426 125.995 141.358 126.317 141.227C126.639 141.096 126.931 140.906 127.177 140.665C127.422 140.425 127.617 140.141 127.749 139.828C127.881 139.515 127.948 139.18 127.946 138.842C127.934 136.86 127.26 134.936 126.025 133.355C124.79 131.775 123.059 130.624 121.092 130.074L121.086 128.604C121.085 127.919 120.805 127.262 120.308 126.775C119.811 126.288 119.136 126.01 118.429 126H118.418C117.708 126.011 117.032 126.293 116.537 126.785C116.041 127.276 115.766 127.937 115.772 128.623L115.778 130.066C114.251 130.506 112.864 131.312 111.746 132.41C110.869 133.246 110.174 134.243 109.702 135.343C109.231 136.443 108.992 137.624 109 138.815C109.008 140.01 109.26 141.193 109.74 142.294C110.22 143.396 110.92 144.395 111.8 145.235C112.679 146.075 113.721 146.739 114.866 147.189C116.011 147.639 117.236 147.866 118.471 147.857H118.529C119.358 147.877 120.163 148.131 120.846 148.586C121.528 149.042 122.059 149.681 122.372 150.424C122.685 151.167 122.768 151.982 122.61 152.77C122.452 153.558 122.06 154.284 121.482 154.859C120.717 155.6 119.681 156.019 118.599 156.024C118.585 156.024 118.571 156 118.555 156H118.544C118.525 156 118.507 156.049 118.488 156.049C117.4 156.048 116.356 155.632 115.584 154.89C114.812 154.147 114.375 153.14 114.367 152.087C114.365 151.753 114.294 151.422 114.159 151.114C114.024 150.806 113.827 150.528 113.58 150.294C113.333 150.06 113.041 149.876 112.72 149.752C112.399 149.628 112.056 149.567 111.71 149.572H111.702C111.354 149.57 111.009 149.635 110.687 149.762C110.365 149.89 110.072 150.079 109.826 150.317C109.579 150.555 109.384 150.838 109.252 151.149C109.119 151.461 109.051 151.795 109.053 152.132C109.065 154.112 109.739 156.035 110.975 157.613C112.21 159.191 113.94 160.34 115.907 160.887L115.914 162.527C115.917 162.859 115.989 163.187 116.125 163.492C116.261 163.797 116.458 164.073 116.706 164.303C116.953 164.533 117.245 164.713 117.566 164.833C117.886 164.952 118.228 165.009 118.571 164.999H118.582C118.927 165.007 119.269 164.949 119.59 164.827C119.911 164.705 120.203 164.522 120.45 164.29C120.696 164.057 120.892 163.778 121.026 163.471C121.159 163.164 121.228 162.834 121.228 162.5L121.221 160.814C123.406 160.172 125.281 158.793 126.507 156.928C127.733 155.063 128.228 152.834 127.903 150.647C127.577 148.459 126.453 146.456 124.734 145.001C123.014 143.546 120.813 142.735 118.529 142.715Z" fill="#00FF4A"/>
</svg>
