<svg width="480" height="327" viewBox="0 0 480 327" fill="none" xmlns="http://www.w3.org/2000/svg">
<path d="M300.498 133.367C309.709 136.284 342.435 130.578 342.435 130.578L344.174 58.1865L291.773 100.92V127.072C291.773 127.046 291.287 130.45 300.498 133.367Z" fill="#FD9F84"/>
<path d="M291.773 101.893V124.181L322.861 109.723L291.773 101.893Z" fill="#B8735F"/>
<path d="M283.355 37.6898C283.355 37.6898 267.747 80.6537 275.551 104.451C283.355 128.275 325.829 110.516 330.051 104.451C334.273 98.3868 358.068 70.3669 345.915 43.2938C333.761 16.1951 294.102 12.9453 283.355 37.6898Z" fill="#FD9F84"/>
<path d="M343.279 96.1866L331.432 73.4636C331.432 73.4636 317.923 70.5464 315.876 64.8145C309.965 48.3097 309.965 48.3097 309.965 48.3097C309.965 48.3097 304.055 48.7959 295.406 47.9002C288.268 47.1582 281.334 45.0343 275.142 41.4262C270.485 38.7138 265.982 35.0034 264.907 30.5254C260.225 10.9754 266.314 14.6858 291.773 19.778C291.773 19.778 358.042 1.20044 356.635 34.8755C356.635 34.8755 374.06 68.704 343.279 96.1866Z" fill="#1B1A1F"/>
<path d="M316.848 74.5887C316.848 74.5887 325.266 59.568 336.447 61.5895C347.629 63.5854 341.795 82.3677 330.255 88.9953L316.848 74.5887Z" fill="#FD9F84"/>
<path d="M325.829 14.6597C325.829 14.6597 299.423 12.4335 293.615 8.56953C282.408 1.09755 274.911 5.06384 273.734 8.79983C272.557 12.5358 273.35 18.8819 280.31 23.9741C291.184 31.9322 307.15 27.9404 315.799 25.3815C324.422 22.797 325.829 14.6597 325.829 14.6597Z" fill="#1B1A1F"/>
<path d="M300.779 71.6212C301.112 72.2865 301.189 73.0542 301.086 73.7962C300.933 74.7942 300.498 76.1504 299.346 76.0225C297.555 75.7922 297.658 72.568 298.835 71.4165C299.833 70.4185 300.447 70.9303 300.779 71.6212Z" fill="#1B1A1F"/>
<path d="M281.923 71.6212C282.255 72.2865 282.332 73.0542 282.23 73.7962C282.076 74.7942 281.641 76.1504 280.49 76.0225C278.698 75.7922 278.801 72.568 279.978 71.4165C280.976 70.4185 281.59 70.9303 281.923 71.6212Z" fill="#1B1A1F"/>
<path d="M326.75 77.7881C326.827 77.7881 326.878 77.7625 326.929 77.7113L334.298 69.9067C334.401 69.8043 334.401 69.6508 334.298 69.5484C334.196 69.4461 334.042 69.4461 333.94 69.5484L326.571 77.3531C326.469 77.4554 326.469 77.609 326.571 77.7113C326.648 77.7625 326.699 77.7881 326.75 77.7881Z" fill="#1B1A1F"/>
<path d="M290.75 99.4104C290.75 99.4104 290.776 99.4104 290.75 99.4104C298.989 98.7195 301.343 92.3991 301.368 92.3223C301.42 92.1944 301.343 92.0408 301.215 91.9897C301.087 91.9385 300.933 92.0153 300.882 92.1432C300.857 92.1944 298.605 98.2334 290.724 98.8731C290.571 98.8731 290.469 99.001 290.494 99.1546C290.52 99.3081 290.622 99.4104 290.75 99.4104Z" fill="#1B1A1F"/>
<path d="M286.067 89.3794C286.937 89.3794 287.526 89.2515 287.602 89.2259C287.73 89.2003 287.833 89.0468 287.781 88.9188C287.756 88.7909 287.602 88.6885 287.474 88.7397C287.449 88.7397 284.506 89.405 282.408 87.7162C280.72 86.3599 280.541 84.9781 280.924 84.1337C281.308 83.2893 282.306 82.8798 283.432 83.1101C283.739 83.1613 284.071 83.0846 284.378 82.8798C286.63 81.3445 288.216 72.4907 288.293 72.1069C288.319 71.979 288.216 71.8254 288.089 71.7998C287.961 71.7743 287.807 71.8766 287.781 72.0046C287.756 72.1069 286.17 81.0119 284.097 82.4448C283.892 82.5728 283.713 82.624 283.534 82.5984C282.178 82.3425 280.975 82.8543 280.489 83.9034C280.029 84.9014 280.208 86.5391 282.101 88.1C283.406 89.1491 284.941 89.3794 286.067 89.3794Z" fill="#1B1A1F"/>
<path d="M306.563 66.6307C306.64 66.6307 306.742 66.5795 306.767 66.5028C306.844 66.3748 306.819 66.2213 306.691 66.1445C300.882 62.4086 294.563 66.0933 294.486 66.1445C294.358 66.2213 294.332 66.3748 294.409 66.5028C294.486 66.6307 294.639 66.6563 294.767 66.5795C294.818 66.5539 300.882 62.9971 306.435 66.5795C306.486 66.6307 306.512 66.6307 306.563 66.6307Z" fill="#1B1A1F"/>
<path d="M285.965 66.6313C286.042 66.6313 286.093 66.6057 286.144 66.5545C286.247 66.4522 286.247 66.2986 286.144 66.1963C286.016 66.0939 283.151 63.4327 276.319 62.9209C276.166 62.9209 276.063 63.0233 276.038 63.1512C276.038 63.3047 276.14 63.4071 276.268 63.4327C282.869 63.9189 285.735 66.5289 285.761 66.5545C285.837 66.6313 285.888 66.6313 285.965 66.6313Z" fill="#1B1A1F"/>
<path d="M343.075 16.7069C343.075 16.7069 323.782 13.0221 315.467 6.67604C307.151 0.329979 288.447 -5.09488 289.957 9.69553C291.466 24.4859 323.782 27.659 324.217 27.659C324.678 27.659 343.075 16.7069 343.075 16.7069Z" fill="#1B1A1F"/>
<path d="M264.038 302.459H264.063C264.191 302.433 264.319 302.331 264.293 302.177L256.566 225.257C256.541 225.129 256.438 225.001 256.285 225.027C256.157 225.052 256.029 225.155 256.055 225.308L263.782 302.229C263.782 302.357 263.91 302.459 264.038 302.459Z" fill="#1B1A1F"/>
<path d="M390.973 143.27C390.973 143.27 429.353 146.903 447.034 194.115C455.733 217.401 472.39 260.006 479.298 291.046C483.316 309.112 469.576 326.256 451.076 326.256H417.583L368.303 179.862L390.973 143.27Z" fill="#736FED"/>
<path d="M111.695 268.605L219.133 174.642C229.035 166.479 237.965 158.828 249.428 152.994C261.581 146.827 275.091 143.167 287.833 138.331C287.91 138.306 288.703 138.075 288.729 137.998L290.085 126.509C306.614 128.991 344.201 124.462 344.201 124.462C345.326 127.865 346.094 136.514 346.094 136.514L390.973 143.27L424.159 326.256H260.2L255.773 266.865L149.41 324.005C136.105 329.916 120.471 325.156 112.718 312.822C105.145 300.795 101.179 278.149 111.695 268.605Z" fill="#736FED"/>
<path d="M316.003 141.811C321.479 141.811 326.238 141.376 330.05 140.839C340.106 139.38 346.119 136.821 346.196 136.796C346.324 136.744 346.375 136.591 346.324 136.463C346.272 136.335 346.119 136.284 345.991 136.335C345.94 136.361 339.952 138.894 329.974 140.352C320.763 141.683 306.127 142.323 288.805 137.794C288.677 137.768 288.523 137.845 288.498 137.973C288.472 138.101 288.549 138.254 288.677 138.28C298.886 140.915 308.2 141.811 316.003 141.811Z" fill="#1B1A1F"/>
<path d="M402.078 271.701C402.103 271.701 402.129 271.701 402.154 271.701C402.282 271.65 402.359 271.522 402.333 271.394L390.026 229.454C389.975 229.326 389.847 229.249 389.719 229.274C389.591 229.326 389.515 229.454 389.54 229.582L401.847 271.522C401.873 271.65 401.975 271.701 402.078 271.701Z" fill="#1B1A1F"/>
<path d="M283.151 275.923C283.176 275.923 283.176 275.923 283.151 275.923L407.246 271.727C407.399 271.727 407.502 271.599 407.502 271.471C407.502 271.317 407.374 271.215 407.246 271.215L283.176 275.411C283.023 275.411 282.92 275.539 282.92 275.667C282.92 275.795 283.023 275.923 283.151 275.923Z" fill="#1B1A1F"/>
<path d="M173.282 282.32L99.9247 165.736L54.2014 192.554L111.26 310.314L173.282 282.32Z" fill="#736FED"/>
<path d="M54.2011 192.554C54.7128 193.45 56.4272 193.552 59.0114 193.015C59.5231 192.912 60.0605 192.784 60.6234 192.631C60.7001 192.605 60.7513 192.605 60.8025 192.58C65.6383 191.223 72.5723 188.127 79.8901 183.905C83.9328 181.576 87.5917 179.171 90.6877 176.894C91.0715 176.612 91.4553 176.331 91.8135 176.049C92.4276 175.589 93.0161 175.102 93.579 174.667C98.4148 170.752 101.076 167.451 100.231 165.993C99.3104 164.406 94.5001 165.302 87.8987 167.989C87.2079 168.27 86.4915 168.577 85.7494 168.91C85.5703 168.987 85.3912 169.063 85.2121 169.166C81.9114 170.65 78.2526 172.518 74.5169 174.667C66.2524 179.427 59.5231 184.494 56.2225 188.153C56.0945 188.306 55.9666 188.434 55.8387 188.588C55.4804 188.997 55.199 189.381 54.9431 189.739C54.1244 190.916 53.8429 191.914 54.2011 192.554Z" fill="#1B1A1F"/>
<path d="M3.97485 157.523C3.97485 157.523 8.04313 163.869 12.1114 167.913C16.1797 171.956 40.7684 175.205 40.7684 175.205L3.97485 157.523Z" fill="#FD9F84"/>
<path d="M7.3779 160.107C10.3715 162.129 16.717 167.093 29.843 171.674L50.2611 178.224L59.3443 187.104L60.5981 188.306L63.8476 191.479C63.8988 191.454 63.9755 191.428 64.0267 191.428C68.8114 189.919 75.643 186.643 82.8585 182.191C86.8244 179.734 90.4321 177.226 93.4513 174.872C92.7349 173.849 91.9417 172.774 91.123 171.674C90.0483 170.215 88.9225 168.731 87.7711 167.272C84.3169 162.897 80.658 158.828 77.8947 157.062C70.7816 152.559 49.6214 154.657 35.7791 151.996C21.9111 149.334 8.27343 142.886 0.341579 145.803C-0.298087 146.034 -0.42602 149.821 3.51432 150.87C1.16035 151.075 -2.1915 153.608 7.3779 160.107Z" fill="#FD9F84"/>
<path d="M55.0969 182.958L64.6918 175.103L50.261 178.25L55.0969 182.958Z" fill="#B8735F"/>
<path d="M174.485 325.975H324.73C327.467 325.975 329.438 323.314 328.619 320.678L303.493 239.536C302.955 237.821 301.395 236.67 299.604 236.67H149.359C146.621 236.67 144.651 239.331 145.47 241.967L170.596 323.109C171.108 324.798 172.694 325.975 174.485 325.975Z" fill="#1B1A1F"/>
<path d="M307.151 325.976H403.05C404.688 325.976 406.044 324.645 406.044 322.982C406.044 321.345 404.713 319.988 403.05 319.988H307.151V325.976Z" fill="#1B1A1F"/>
<path d="M386.444 323.954H393.915V319.271C393.915 318.657 393.403 318.146 392.789 318.146H387.569C386.955 318.146 386.444 318.657 386.444 319.271V323.954Z" fill="#1B1A1F"/>
<path d="M374.444 323.954H381.915V319.271C381.915 318.657 381.403 318.146 380.789 318.146H375.569C374.955 318.146 374.444 318.657 374.444 319.271V323.954Z" fill="#1B1A1F"/>
<path d="M362.469 323.954H369.94V319.271C369.94 318.657 369.428 318.146 368.814 318.146H363.595C362.981 318.146 362.469 318.657 362.469 319.271V323.954Z" fill="#1B1A1F"/>
<path d="M350.494 323.954H357.965V319.271C357.965 318.657 357.454 318.146 356.84 318.146H351.62C351.006 318.146 350.494 318.657 350.494 319.271V323.954Z" fill="#1B1A1F"/>
<path d="M338.52 323.954H345.991V319.271C345.991 318.657 345.479 318.146 344.865 318.146H339.646C339.032 318.146 338.52 318.657 338.52 319.271V323.954Z" fill="#1B1A1F"/>
<path d="M168.088 325.975H323.859L297.096 239.561C296.558 237.847 294.998 236.695 293.207 236.695H142.962C140.224 236.695 138.254 239.357 139.073 241.992L164.199 323.135C164.711 324.798 166.297 325.975 168.088 325.975Z" fill="white"/>
<path d="M231.364 288.846C235.518 288.846 238.886 285.478 238.886 281.323C238.886 277.168 235.518 273.8 231.364 273.8C227.209 273.8 223.841 277.168 223.841 281.323C223.841 285.478 227.209 288.846 231.364 288.846Z" fill="#1B1A1F"/>
</svg>
