<svg width="160" height="160" viewBox="0 0 160 160" fill="none" xmlns="http://www.w3.org/2000/svg">
<path d="M128.735 73.9855L127.306 73.694L127.172 74.1365C127.687 74.0704 128.208 74.0201 128.735 73.9855Z" fill="#D4E1F4"/>
<path d="M117.21 93.7922C115.126 95.1695 113.498 97.1339 112.53 99.4369C111.563 101.74 111.3 104.278 111.775 106.731C112.25 109.183 113.441 111.44 115.199 113.215C116.956 114.99 119.201 116.204 121.648 116.704C124.096 117.203 126.636 116.966 128.949 116.022C131.262 115.077 133.242 113.468 134.64 111.398C136.039 109.328 136.792 106.89 136.804 104.392C136.816 101.894 136.088 99.4483 134.71 97.3644C133.803 95.9721 132.629 94.7739 131.255 93.8393C129.881 92.9046 128.335 92.2522 126.707 91.9199C125.079 91.5875 123.401 91.5819 121.771 91.9033C120.141 92.2247 118.591 92.8668 117.21 93.7922V93.7922ZM132.875 106.105C132.464 108.117 131.368 109.925 129.774 111.219C128.18 112.514 126.186 113.216 124.133 113.206C122.079 113.196 120.092 112.474 118.511 111.163C116.93 109.852 115.852 108.034 115.462 106.017C115.071 104.001 115.391 101.912 116.369 100.105C117.346 98.2988 118.919 96.887 120.82 96.1104C122.721 95.3338 124.833 95.2404 126.795 95.8461C128.758 96.4519 130.45 97.7194 131.582 99.4325C132.228 100.404 132.675 101.494 132.897 102.639C133.118 103.784 133.111 104.962 132.874 106.105H132.875Z" fill="#00FF4A"/>
<path d="M93.2664 101.354C93.1157 100.881 92.7831 100.486 92.3416 100.258C91.9001 100.029 91.3859 99.9852 90.912 100.136C74.661 105.292 57.1058 104.498 41.386 97.8981C25.6661 91.2978 12.8068 79.3207 5.10765 64.1089C11.1021 52.2634 20.2632 42.3118 31.5732 35.3596C42.8831 28.4075 55.899 24.7269 69.1748 24.7269C82.4507 24.7269 95.4666 28.4075 106.777 35.3596C118.086 42.3118 127.248 52.2634 133.242 64.1089C131.968 66.6218 130.547 69.0577 128.987 71.4039C128.711 71.8179 128.612 72.3245 128.71 72.812C128.808 73.2996 129.095 73.7282 129.509 74.0037C129.923 74.2791 130.43 74.3788 130.918 74.2808C131.405 74.1828 131.834 73.8951 132.109 73.481C133.93 70.7419 135.571 67.8871 137.02 64.9348C137.147 64.6778 137.212 64.3953 137.212 64.109C137.212 63.8227 137.147 63.5402 137.02 63.2832C130.801 50.5914 121.146 39.8987 109.152 32.4201C97.1593 24.9415 83.3087 20.9769 69.1748 20.9769C55.0409 20.9769 41.1904 24.9415 29.1972 32.4201C17.2039 39.8987 7.5489 50.5914 1.32921 63.2832C1.20313 63.5402 1.13757 63.8227 1.13757 64.109C1.13757 64.3953 1.20313 64.6778 1.32921 64.9348C7.46653 77.4377 16.9329 88.0061 28.6873 95.4776C38.0102 101.384 48.5115 105.181 59.4559 106.603C70.4003 108.025 81.5232 107.037 92.0458 103.709C92.2805 103.634 92.4983 103.514 92.6866 103.356C92.875 103.197 93.0303 103.003 93.1436 102.784C93.257 102.566 93.3262 102.327 93.3472 102.082C93.3683 101.836 93.3408 101.589 93.2664 101.354V101.354Z" fill="white"/>
<path d="M56.3091 50.4692C54.0555 52.7228 52.4253 55.5229 51.578 58.5954C50.7308 61.6679 50.6954 64.9077 51.4754 67.9979C52.2555 71.0882 53.8242 73.9231 56.0281 76.2254C58.2321 78.5277 60.9958 80.2186 64.0491 81.1328C67.1024 82.0469 70.3406 82.153 73.4472 81.4406C76.5537 80.7282 79.4222 79.2218 81.7721 77.0686C84.122 74.9155 85.8728 72.1893 86.8534 69.1567C87.834 66.1241 88.0107 62.889 87.3663 59.7676C87.299 59.4404 87.1454 59.1371 86.9216 58.8892C86.6977 58.6412 86.4117 58.4576 86.093 58.3572C85.7744 58.2569 85.4347 58.2435 85.1092 58.3184C84.7836 58.3934 84.484 58.554 84.2413 58.7835C83.0212 59.9449 81.392 60.5777 79.7079 60.5446C78.0238 60.5114 76.4208 59.8149 75.2473 58.6063C74.0739 57.3978 73.4249 55.775 73.4413 54.0906C73.4577 52.4063 74.1383 50.7964 75.3351 49.611C75.4585 49.486 75.5954 49.361 75.7532 49.2292C76.0082 49.0145 76.2013 48.7357 76.3127 48.4216C76.4241 48.1074 76.4497 47.7693 76.387 47.4419C76.3243 47.1146 76.1754 46.8099 75.9557 46.5592C75.7361 46.3085 75.4535 46.1209 75.1373 46.0157C71.8961 44.9264 68.4147 44.7662 65.0871 45.5533C61.7596 46.3404 58.7189 48.0432 56.3091 50.4692ZM72.6841 61.3082C74.131 62.7704 75.9905 63.755 78.0131 64.1301C80.0356 64.5052 82.1245 64.2528 83.9995 63.4067C84.0231 66.3993 83.1332 69.328 81.4485 71.8015C79.7639 74.2751 77.3647 76.1759 74.5713 77.25C71.7779 78.324 68.7234 78.5204 65.8155 77.8127C62.9076 77.105 60.2848 75.5271 58.2974 73.2895C56.3099 71.052 55.0524 68.2613 54.6928 65.2903C54.3331 62.3192 54.8884 59.3091 56.2846 56.662C57.6807 54.0148 59.8513 51.8566 62.5063 50.4756C65.1614 49.0945 68.1745 48.5563 71.1435 48.9329C69.9877 50.8733 69.5117 53.1437 69.7909 55.3849C70.0701 57.6262 71.0885 59.7104 72.6851 61.3079L72.6841 61.3082Z" fill="white"/>
<path d="M40.8351 64.1096C40.835 69.7965 42.5213 75.3557 45.6808 80.0842C48.8402 84.8127 53.3308 88.4982 58.5848 90.6745C63.8388 92.8508 69.6202 93.4203 75.1979 92.3109C80.7755 91.2015 85.8989 88.463 89.9202 84.4418C93.9415 80.4205 96.68 75.2972 97.7895 69.7195C98.899 64.1419 98.3296 58.3605 96.1533 53.1065C93.977 47.8525 90.2916 43.3618 85.5631 40.2023C80.8346 37.0428 75.2754 35.3564 69.5885 35.3564C61.9653 35.365 54.6568 38.3971 49.2664 43.7875C43.8759 49.1779 40.8438 56.4864 40.8351 64.1096V64.1096ZM94.592 64.1096C94.592 69.0548 93.1257 73.889 90.3783 78.0008C87.6309 82.1127 83.7259 85.3175 79.1572 87.21C74.5884 89.1025 69.561 89.5977 64.7108 88.6329C59.8606 87.6682 55.4054 85.2869 51.9085 81.7901C48.4117 78.2933 46.0303 73.8381 45.0655 68.9879C44.1008 64.1377 44.5959 59.1104 46.4883 54.5416C48.3808 49.9728 51.5855 46.0677 55.6973 43.3203C59.8091 40.5729 64.6433 39.1064 69.5885 39.1064C76.2175 39.1138 82.5729 41.7504 87.2604 46.4378C91.9478 51.1252 94.5845 57.4806 94.592 64.1096V64.1096Z" fill="white"/>
<path d="M157.532 104.368L152.032 102.696C151.902 100.228 151.447 97.7874 150.68 95.4377L155.175 91.8015C155.538 91.5083 155.778 91.0906 155.849 90.6299C155.92 90.1692 155.817 89.6985 155.56 89.3096L150.291 81.3381C150.034 80.9492 149.642 80.6701 149.19 80.555C148.738 80.44 148.26 80.4973 147.848 80.7159L142.741 83.4265C140.885 81.7898 138.818 80.4099 136.594 79.324L137.21 73.6237C137.26 73.1594 137.136 72.6932 136.86 72.3161C136.585 71.9391 136.179 71.6783 135.721 71.5849L126.382 69.6787C125.925 69.5852 125.449 69.6659 125.048 69.9047C124.646 70.1436 124.349 70.5235 124.213 70.9702L122.541 76.4702C120.073 76.6001 117.633 77.0547 115.283 77.8224L111.646 73.3265C111.353 72.964 110.936 72.7236 110.475 72.6524C110.014 72.5812 109.544 72.6841 109.155 72.9412L101.183 78.2099C100.794 78.467 100.515 78.8597 100.4 79.3114C100.285 79.7632 100.343 80.2416 100.561 80.6534L103.272 85.7605C101.635 87.6163 100.255 89.6838 99.1693 91.9074L93.4687 91.2918C93.0044 91.241 92.538 91.3655 92.1608 91.641C91.7837 91.9164 91.5231 92.3229 91.4302 92.7806L89.524 102.12C89.4306 102.577 89.5112 103.053 89.7502 103.454C89.9891 103.855 90.3691 104.153 90.8159 104.289L96.3159 105.96C96.446 108.429 96.9007 110.869 97.6684 113.219L93.1724 116.856C92.81 117.149 92.5698 117.566 92.4987 118.027C92.4275 118.488 92.5304 118.958 92.7874 119.347L98.0562 127.318C98.3132 127.707 98.7059 127.986 99.1577 128.102C99.6095 128.217 100.088 128.159 100.5 127.941L105.606 125.23C107.462 126.867 109.53 128.247 111.753 129.332L111.137 135.033C111.087 135.497 111.212 135.964 111.488 136.341C111.763 136.718 112.169 136.978 112.627 137.072L121.966 138.978C122.423 139.072 122.899 138.992 123.301 138.753C123.702 138.514 123.999 138.134 124.135 137.686L125.806 132.186C128.275 132.056 130.716 131.601 133.066 130.834L136.655 135.261C136.948 135.622 137.366 135.862 137.826 135.933C138.287 136.004 138.757 135.901 139.146 135.644L147.117 130.375C147.506 130.118 147.785 129.725 147.9 129.274C148.015 128.822 147.958 128.344 147.739 127.932L145.03 122.825C146.667 120.969 148.047 118.902 149.133 116.678L154.833 117.294C155.295 117.345 155.76 117.222 156.137 116.948C156.513 116.675 156.774 116.272 156.869 115.816L158.823 106.548C158.919 106.089 158.84 105.611 158.601 105.207C158.362 104.804 157.981 104.504 157.532 104.368V104.368ZM153.548 113.383L148.186 112.804C147.785 112.761 147.381 112.848 147.034 113.053C146.686 113.257 146.414 113.569 146.257 113.94C145.106 116.646 143.461 119.113 141.407 121.217C141.13 121.501 140.95 121.866 140.893 122.259C140.836 122.652 140.906 123.053 141.092 123.404L143.629 128.186L138.497 131.578L135.141 127.439C134.891 127.131 134.55 126.91 134.166 126.808C133.782 126.706 133.375 126.728 133.005 126.872C130.251 127.925 127.329 128.471 124.38 128.483C123.982 128.488 123.595 128.619 123.276 128.858C122.958 129.097 122.723 129.431 122.607 129.812L121.042 134.962L115.048 133.739L115.626 128.388C115.669 127.987 115.582 127.582 115.377 127.235C115.173 126.887 114.862 126.615 114.49 126.458C111.784 125.307 109.317 123.663 107.213 121.608C106.929 121.33 106.564 121.15 106.17 121.093C105.776 121.037 105.375 121.107 105.024 121.293L100.243 123.83L96.8521 118.7L101.061 115.297C101.371 115.047 101.592 114.705 101.694 114.321C101.796 113.936 101.774 113.53 101.63 113.159C100.577 110.405 100.031 107.484 100.019 104.536C100.015 104.137 99.8833 103.751 99.6443 103.432C99.4053 103.113 99.0709 102.879 98.6896 102.763L93.5399 101.197L94.7634 95.203L100.115 95.7812C100.516 95.8245 100.92 95.7374 101.268 95.5327C101.615 95.328 101.887 95.0167 102.044 94.6449C103.195 91.9395 104.84 89.4721 106.894 87.3687C107.172 87.0843 107.352 86.7189 107.409 86.3254C107.465 85.9318 107.395 85.5305 107.209 85.1793L104.672 80.398L109.802 77.0074L113.205 81.2146C113.455 81.5237 113.797 81.7454 114.181 81.8475C114.566 81.9496 114.973 81.9269 115.343 81.7827C118.097 80.73 121.018 80.1844 123.966 80.1724C124.365 80.1681 124.752 80.0368 125.07 79.7977C125.389 79.5586 125.624 79.2241 125.74 78.8427L127.305 73.6927L133.299 74.9162L132.721 80.2674C132.678 80.6685 132.765 81.0728 132.969 81.4203C133.174 81.7679 133.485 82.0402 133.857 82.1968C136.563 83.3477 139.03 84.9925 141.133 87.0471C141.418 87.325 141.783 87.5052 142.177 87.5618C142.57 87.6184 142.972 87.5483 143.323 87.3618L148.102 84.8249L151.493 89.9549L147.286 93.358C146.977 93.6081 146.755 93.95 146.653 94.3342C146.551 94.7185 146.574 95.1253 146.718 95.4959C147.771 98.2501 148.317 101.172 148.329 104.121C148.333 104.519 148.464 104.906 148.703 105.225C148.942 105.543 149.277 105.778 149.658 105.894L154.797 107.456L153.548 113.383Z" fill="#00FF4A"/>
</svg>
