<svg width="639" height="539" viewBox="0 0 639 539" fill="none" xmlns="http://www.w3.org/2000/svg">
<g id="guys">
<g id="Group 156">
<g id="panel3">
<g id="Group">
<path id="Vector" d="M48.1735 257.125H250.923V343.612H48.1735V257.125Z" fill="white"/>
<path id="Vector_2" d="M48.1733 343.865H250.923C251.091 343.865 251.204 343.753 251.204 343.585V257.125C251.204 256.957 251.091 256.844 250.923 256.844H48.1733C48.0047 256.844 47.8924 256.957 47.8924 257.125V343.613C47.8924 343.753 48.0047 343.865 48.1733 343.865ZM250.642 343.304H48.4541V257.406H250.642V343.304Z" fill="#1B1A1F"/>
</g>
<g id="Group_2">
<path id="Vector_3" d="M48.1733 275.103H250.923C251.091 275.103 251.204 274.99 251.204 274.822V257.125C251.204 256.957 251.091 256.844 250.923 256.844H48.1733C48.0047 256.844 47.8924 256.957 47.8924 257.125V274.85C47.8924 274.99 48.0047 275.103 48.1733 275.103ZM250.642 274.541H48.4541V257.406H250.642V274.541Z" fill="#1B1A1F"/>
</g>
<g id="Group_3">
<path id="Vector_4" d="M186.261 288.726H226.906V329.371H186.261V288.726Z" fill="#FF005C"/>
<g id="Group_4">
<g id="Group_5">
<path id="Vector_5" d="M73.5663 293.95H158.396C158.565 293.95 158.677 293.838 158.677 293.669C158.677 293.501 158.565 293.388 158.396 293.388H73.5663C73.3978 293.388 73.2854 293.501 73.2854 293.669C73.2854 293.838 73.3978 293.95 73.5663 293.95Z" fill="#1B1A1F"/>
</g>
<g id="Group_6">
<path id="Vector_6" d="M73.5663 309.315H158.396C158.565 309.315 158.677 309.203 158.677 309.034C158.677 308.866 158.565 308.753 158.396 308.753H73.5663C73.3978 308.753 73.2854 308.866 73.2854 309.034C73.2854 309.203 73.3978 309.315 73.5663 309.315Z" fill="#1B1A1F"/>
</g>
<g id="Group_7">
<path id="Vector_7" d="M73.5663 324.68H158.396C158.565 324.68 158.677 324.567 158.677 324.399C158.677 324.23 158.565 324.118 158.396 324.118H73.5663C73.3978 324.118 73.2854 324.23 73.2854 324.399C73.2854 324.567 73.3978 324.68 73.5663 324.68Z" fill="#1B1A1F"/>
</g>
</g>
</g>
<g id="Group_8">
<g id="Group_9">
<path id="Vector_8" d="M83.5943 270.3C86.1223 270.3 88.2009 268.249 88.2009 265.693C88.2009 263.165 86.1504 261.086 83.5943 261.086C81.0662 261.086 78.9876 263.137 78.9876 265.693C78.9876 268.249 81.0662 270.3 83.5943 270.3ZM83.5943 261.676C85.8133 261.676 87.6392 263.474 87.6392 265.721C87.6392 267.94 85.8414 269.766 83.5943 269.766C81.3752 269.766 79.5494 267.968 79.5494 265.721C79.5494 263.474 81.3752 261.676 83.5943 261.676Z" fill="#1B1A1F"/>
</g>
<g id="Group_10">
<path id="Vector_9" d="M71.1225 270.299C73.6506 270.299 75.7292 268.249 75.7292 265.692C75.7292 263.164 73.6787 261.086 71.1225 261.086C68.5664 261.086 66.5159 263.136 66.5159 265.692C66.544 268.249 68.5945 270.299 71.1225 270.299ZM71.1225 261.676C73.3416 261.676 75.1674 263.473 75.1674 265.721C75.1674 267.94 73.3697 269.765 71.1225 269.765C68.8754 269.765 67.0777 267.968 67.0777 265.721C67.1058 263.473 68.9035 261.676 71.1225 261.676Z" fill="#1B1A1F"/>
</g>
<g id="Group_11">
<path id="Vector_10" d="M58.6509 270.299C61.1789 270.299 63.2575 268.249 63.2575 265.692C63.2575 263.164 61.207 261.086 58.6509 261.086C56.1228 261.086 54.0442 263.136 54.0442 265.692C54.0723 268.249 56.1228 270.299 58.6509 270.299ZM58.6509 261.676C60.8699 261.676 62.6957 263.473 62.6957 265.721C62.6957 267.94 60.898 269.765 58.6509 269.765C56.4318 269.765 54.606 267.968 54.606 265.721C54.6341 263.473 56.4318 261.676 58.6509 261.676Z" fill="#1B1A1F"/>
</g>
</g>
</g>
<g id="panel1">
<g id="Group_12">
<path id="Vector_11" d="M46.8812 44.4603H249.631V130.948H46.8812V44.4603Z" fill="white"/>
<path id="Vector_12" d="M46.881 131.229H249.63C249.799 131.229 249.911 131.116 249.911 130.948V44.4603C249.911 44.2918 249.799 44.1794 249.63 44.1794H46.881C46.7125 44.1794 46.6002 44.2918 46.6002 44.4603V130.948C46.6002 131.088 46.7125 131.229 46.881 131.229ZM249.35 130.667H47.1619V44.7412H249.35V130.667Z" fill="#1B1A1F"/>
</g>
<g id="Group_13">
<path id="Vector_13" d="M46.881 62.4657H249.63C249.799 62.4657 249.911 62.3533 249.911 62.1848V44.4603C249.911 44.2918 249.799 44.1794 249.63 44.1794H46.881C46.7125 44.1794 46.6002 44.2918 46.6002 44.4603V62.1848C46.6002 62.3252 46.7125 62.4657 46.881 62.4657ZM249.35 61.9039H47.1619V44.7412H249.35V61.9039Z" fill="#1B1A1F"/>
</g>
<g id="Group_14">
<path id="Vector_14" d="M157.104 76.0609H236.316V116.706H157.104V76.0609Z" fill="#FF005C"/>
<g id="Group_15">
<g id="Group_16">
<path id="Vector_15" d="M54.6891 81.2855H139.519C139.688 81.2855 139.8 81.1732 139.8 81.0046C139.8 80.8361 139.688 80.7238 139.519 80.7238H54.6891C54.5206 80.7238 54.4082 80.8361 54.4082 81.0046C54.4082 81.1732 54.5206 81.2855 54.6891 81.2855Z" fill="#1B1A1F"/>
</g>
<g id="Group_17">
<path id="Vector_16" d="M54.6901 96.6504H139.52C139.689 96.6504 139.801 96.5381 139.801 96.3695C139.801 96.201 139.689 96.0886 139.52 96.0886H54.6901C54.5216 96.0886 54.4092 96.201 54.4092 96.3695C54.4092 96.5381 54.5216 96.6504 54.6901 96.6504Z" fill="#1B1A1F"/>
</g>
<g id="Group_18">
<path id="Vector_17" d="M54.6901 112.015H139.52C139.689 112.015 139.801 111.903 139.801 111.734C139.801 111.566 139.689 111.453 139.52 111.453H54.6901C54.5216 111.453 54.4092 111.566 54.4092 111.734C54.4092 111.903 54.5216 112.015 54.6901 112.015Z" fill="#1B1A1F"/>
</g>
</g>
<g id="Group_19">
<path id="Vector_18" d="M228.114 106.959C228.17 106.959 228.255 106.931 228.311 106.875C228.423 106.763 228.423 106.594 228.339 106.482L214.659 91.5664C214.603 91.5102 214.519 91.4821 214.463 91.4821C214.378 91.4821 214.294 91.5102 214.266 91.5664L204.266 103.027L189.8 87.5215C189.744 87.4653 189.688 87.4372 189.604 87.4372C189.519 87.4372 189.463 87.4653 189.407 87.5215L180.137 96.8191L166.402 84.1227C166.289 84.0103 166.121 84.0103 166.008 84.1508C165.896 84.2631 165.896 84.4317 166.037 84.544L179.969 97.4371C180.081 97.5494 180.25 97.5494 180.362 97.4371L189.604 88.1675L204.07 103.701C204.126 103.757 204.21 103.785 204.266 103.785C204.35 103.785 204.435 103.757 204.463 103.701L214.463 92.2405L227.918 106.931C227.974 106.931 228.058 106.959 228.114 106.959Z" fill="#1B1A1F"/>
</g>
<path id="Vector_19" d="M226.878 106.847C226.878 107.802 227.665 108.588 228.62 108.588C229.575 108.588 230.361 107.802 230.361 106.847C230.361 105.892 229.575 105.105 228.62 105.105C227.665 105.105 226.878 105.864 226.878 106.847Z" fill="#1B1A1F"/>
<path id="Vector_20" d="M212.862 92.0719C212.862 93.0269 213.648 93.8134 214.603 93.8134C215.558 93.8134 216.345 93.0269 216.345 92.0719C216.345 91.1168 215.558 90.3303 214.603 90.3303C213.648 90.3303 212.862 91.1168 212.862 92.0719Z" fill="#1B1A1F"/>
<path id="Vector_21" d="M204.322 104.459C203.361 104.459 202.581 103.68 202.581 102.718C202.581 101.756 203.361 100.976 204.322 100.976C205.284 100.976 206.064 101.756 206.064 102.718C206.064 103.68 205.284 104.459 204.322 104.459Z" fill="#1B1A1F"/>
<path id="Vector_22" d="M187.665 88.1114C187.665 89.0665 188.452 89.853 189.407 89.853C190.362 89.853 191.148 89.0665 191.148 88.1114C191.148 87.1564 190.362 86.3699 189.407 86.3699C188.424 86.3699 187.665 87.1283 187.665 88.1114Z" fill="#1B1A1F"/>
<path id="Vector_23" d="M178.621 96.5942C178.621 97.5492 179.407 98.3358 180.362 98.3358C181.317 98.3358 182.104 97.5492 182.104 96.5942C182.104 95.6392 181.317 94.8527 180.362 94.8527C179.407 94.8527 178.621 95.6111 178.621 96.5942Z" fill="#1B1A1F"/>
<path id="Vector_24" d="M164.464 84.1788C164.464 85.1338 165.25 85.9203 166.205 85.9203C167.16 85.9203 167.947 85.1338 167.947 84.1788C167.947 83.2238 167.16 82.4373 166.205 82.4373C165.25 82.4653 164.464 83.2238 164.464 84.1788Z" fill="#1B1A1F"/>
<g id="Group_20">
<path id="Vector_25" d="M6.06731 73.7013H67.4988V98.1391H6.06731V73.7013Z" fill="#1B1A1F"/>
<path id="Vector_26" d="M0.252747 67.634H61.6843V92.0718H0.252747V67.634Z" fill="#00FF4A"/>
</g>
<g id="Group_21">
<path id="Vector_27" d="M6.06731 110.33H67.4988V134.768H6.06731V110.33Z" fill="#1B1A1F"/>
<g id="Group_22">
<path id="Vector_28" d="M0.252716 104.263H61.6843V128.701H0.252716V104.263Z" fill="white"/>
<path id="Vector_29" d="M0.28092 128.982H61.7125C61.881 128.982 61.9933 128.869 61.9933 128.701V104.263C61.9933 104.094 61.881 103.982 61.7125 103.982H0.28092C0.112384 103.982 2.62891e-05 104.094 2.62891e-05 104.263V128.701C2.62891e-05 128.869 0.112384 128.982 0.28092 128.982ZM61.4035 128.42H0.533698V104.544H61.4035V128.42Z" fill="#1B1A1F"/>
</g>
</g>
</g>
<g id="Group_23">
<g id="Group_24">
<path id="Vector_30" d="M82.302 57.6342C84.8301 57.6342 86.9087 55.5837 86.9087 53.0276C86.9087 50.4995 84.8582 48.4209 82.302 48.4209C79.7459 48.4209 77.6954 50.4714 77.6954 53.0276C77.7234 55.5837 79.774 57.6342 82.302 57.6342ZM82.302 49.0108C84.5211 49.0108 86.3469 50.8085 86.3469 53.0557C86.3469 55.2747 84.5492 57.1005 82.302 57.1005C80.0549 57.1005 78.2571 55.3028 78.2571 53.0557C78.2852 50.8085 80.083 49.0108 82.302 49.0108Z" fill="#1B1A1F"/>
</g>
<g id="Group_25">
<path id="Vector_31" d="M69.8302 57.6341C72.3583 57.6341 74.4369 55.5836 74.4369 53.0274C74.4369 50.4994 72.3864 48.4208 69.8302 48.4208C67.3022 48.4208 65.2235 50.4713 65.2235 53.0274C65.2516 55.5836 67.3022 57.6341 69.8302 57.6341ZM69.8302 49.0107C72.0493 49.0107 73.8751 50.8084 73.8751 53.0555C73.8751 55.2746 72.0774 57.1004 69.8302 57.1004C67.6112 57.1004 65.7853 55.3027 65.7853 53.0555C65.8134 50.8084 67.6112 49.0107 69.8302 49.0107Z" fill="#1B1A1F"/>
</g>
<g id="Group_26">
<path id="Vector_32" d="M57.3866 57.6341C59.9146 57.6341 61.9932 55.5836 61.9932 53.0274C61.9932 50.4994 59.9427 48.4208 57.3866 48.4208C54.8305 48.4208 52.7799 50.4713 52.7799 53.0274C52.7799 55.5836 54.8305 57.6341 57.3866 57.6341ZM57.3866 49.0107C59.6057 49.0107 61.4314 50.8084 61.4314 53.0555C61.4314 55.2746 59.6337 57.1004 57.3866 57.1004C55.1394 57.1004 53.3417 55.3027 53.3417 53.0555C53.3417 50.8084 55.1394 49.0107 57.3866 49.0107Z" fill="#1B1A1F"/>
</g>
</g>
</g>
<g id="panel2">
<g id="Group_27">
<path id="Vector_33" d="M47.5274 150.779H250.277V237.266H47.5274V150.779Z" fill="white"/>
<path id="Vector_34" d="M47.5274 237.547H250.277C250.445 237.547 250.558 237.435 250.558 237.266V150.779C250.558 150.61 250.445 150.498 250.277 150.498H47.5274C47.3588 150.498 47.2465 150.61 47.2465 150.779V237.266C47.2465 237.435 47.3588 237.547 47.5274 237.547ZM249.996 236.985H47.8083V151.06H249.996V236.985V236.985Z" fill="#1B1A1F"/>
</g>
<g id="Group_28">
<path id="Vector_35" d="M47.5274 168.784H250.277C250.445 168.784 250.558 168.672 250.558 168.503V150.779C250.558 150.61 250.445 150.498 250.277 150.498H47.5274C47.3588 150.498 47.2465 150.61 47.2465 150.779V168.503C47.2465 168.672 47.3588 168.784 47.5274 168.784ZM249.996 168.222H47.8083V151.06H249.996V168.222V168.222Z" fill="#1B1A1F"/>
</g>
<g id="Group_29">
<path id="Vector_36" d="M198.171 182.379H264.771V223.025H198.171V182.379Z" fill="#1B1A1F"/>
<g id="Group_30">
<g id="Group_31">
<path id="Vector_37" d="M72.9204 187.632H97.7514C97.92 187.632 98.0323 187.519 98.0323 187.351C98.0323 187.182 97.92 187.07 97.7514 187.07H72.9204C72.7518 187.07 72.6395 187.182 72.6395 187.351C72.6395 187.491 72.7799 187.632 72.9204 187.632Z" fill="#1B1A1F"/>
</g>
<g id="Group_32">
<path id="Vector_38" d="M111.178 187.632H130.56C130.728 187.632 130.841 187.519 130.841 187.351C130.841 187.182 130.728 187.07 130.56 187.07H111.178C111.01 187.07 110.897 187.182 110.897 187.351C110.897 187.491 111.01 187.632 111.178 187.632Z" fill="#1B1A1F"/>
</g>
<g id="Group_33">
<path id="Vector_39" d="M139.773 187.632H157.779C157.947 187.632 158.06 187.52 158.06 187.351C158.06 187.183 157.947 187.07 157.779 187.07H139.773C139.605 187.07 139.492 187.183 139.492 187.351C139.492 187.492 139.605 187.632 139.773 187.632Z" fill="#1B1A1F"/>
</g>
<g id="Group_34">
<path id="Vector_40" d="M72.9204 202.997H92.1335C92.3021 202.997 92.4144 202.884 92.4144 202.716C92.4144 202.547 92.3021 202.435 92.1335 202.435H72.9204C72.7518 202.435 72.6395 202.547 72.6395 202.716C72.6395 202.856 72.7799 202.997 72.9204 202.997Z" fill="#1B1A1F"/>
</g>
<g id="Group_35">
<path id="Vector_41" d="M97.2459 202.997H138.032C138.2 202.997 138.313 202.884 138.313 202.716C138.313 202.547 138.2 202.435 138.032 202.435H97.2459C97.0774 202.435 96.9651 202.547 96.9651 202.716C96.9651 202.856 97.1055 202.997 97.2459 202.997Z" fill="#1B1A1F"/>
</g>
<g id="Group_36">
<path id="Vector_42" d="M144.97 202.997H157.75C157.919 202.997 158.031 202.884 158.031 202.716C158.031 202.547 157.919 202.435 157.75 202.435H144.97C144.801 202.435 144.689 202.547 144.689 202.716C144.689 202.856 144.829 202.997 144.97 202.997Z" fill="#1B1A1F"/>
</g>
<g id="Group_37">
<path id="Vector_43" d="M72.9204 218.334H121.487C121.656 218.334 121.768 218.221 121.768 218.053C121.768 217.884 121.656 217.772 121.487 217.772H72.9204C72.7519 217.772 72.6395 217.884 72.6395 218.053C72.6395 218.221 72.7799 218.334 72.9204 218.334Z" fill="#1B1A1F"/>
</g>
<g id="Group_38">
<path id="Vector_44" d="M126.712 218.334H157.75C157.919 218.334 158.031 218.221 158.031 218.053C158.031 217.884 157.919 217.772 157.75 217.772H126.712C126.543 217.772 126.431 217.884 126.431 218.053C126.431 218.221 126.543 218.334 126.712 218.334Z" fill="#1B1A1F"/>
</g>
</g>
<g id="Group_39">
<path id="Vector_45" d="M207.132 173.7H273.732V214.345H207.132V173.7Z" fill="#6B50D7"/>
<g id="Group_40">
<path id="Vector_46" d="M244.49 228.109C245.024 228.109 245.53 228.025 246.007 227.856C246.85 227.547 247.468 226.957 247.805 226.086C249.968 220.721 242.412 205.469 235.137 190.75C229.266 178.868 223.704 167.632 224.94 164.599C225.081 164.29 225.277 164.065 225.586 163.981C228.816 162.857 239.238 177.098 249.294 190.89C261.035 206.958 273.17 223.558 278.956 223.839C279.799 223.867 280.473 223.586 281.007 222.997C285.304 218.165 274.715 204.233 264.49 190.778C257.074 181.031 250.08 171.818 250.951 168.587C251.063 168.138 251.372 167.829 251.822 167.632C260.305 164.205 294.574 203.812 294.939 204.205L295.36 203.84C293.928 202.182 260.473 163.503 251.625 167.099C251.007 167.351 250.586 167.801 250.417 168.419C249.462 171.93 256.204 180.806 264.041 191.087C273.675 203.755 284.574 218.109 280.585 222.575C280.164 223.053 279.63 223.277 278.984 223.249C273.479 222.997 260.866 205.75 249.743 190.525C238.62 175.301 229.013 162.155 225.39 163.419C224.94 163.587 224.603 163.896 224.406 164.374C223.058 167.632 228.423 178.447 234.603 190.975C241.513 204.935 249.322 220.749 247.271 225.862C246.962 226.592 246.485 227.07 245.811 227.322C235.052 231.171 206.57 185.497 206.289 185.048L205.811 185.357C206.963 187.154 232.524 228.109 244.49 228.109Z" fill="#FF7777"/>
</g>
</g>
</g>
<g id="Group_41">
<g id="Group_42">
<path id="Vector_47" d="M82.9483 163.981C85.4763 163.981 87.5549 161.93 87.5549 159.374C87.5549 156.846 85.5044 154.767 82.9483 154.767C80.3922 154.767 78.3416 156.818 78.3416 159.374C78.3416 161.902 80.4202 163.981 82.9483 163.981ZM82.9483 155.357C85.1674 155.357 86.9931 157.155 86.9931 159.402C86.9931 161.621 85.1954 163.447 82.9483 163.447C80.7011 163.447 78.9034 161.649 78.9034 159.402C78.9034 157.155 80.7292 155.357 82.9483 155.357Z" fill="#1B1A1F"/>
</g>
<g id="Group_43">
<path id="Vector_48" d="M70.4767 163.981C73.0048 163.981 75.0834 161.93 75.0834 159.374C75.0834 156.846 73.0329 154.767 70.4767 154.767C67.9487 154.767 65.8701 156.818 65.8701 159.374C65.8982 161.902 67.9487 163.981 70.4767 163.981ZM70.4767 155.357C72.6958 155.357 74.5216 157.155 74.5216 159.402C74.5216 161.621 72.7239 163.447 70.4767 163.447C68.2577 163.447 66.4319 161.649 66.4319 159.402C66.46 157.155 68.2577 155.357 70.4767 155.357Z" fill="#1B1A1F"/>
</g>
<g id="Group_44">
<path id="Vector_49" d="M58.0052 163.981C60.5332 163.981 62.6118 161.93 62.6118 159.374C62.6118 156.846 60.5613 154.767 58.0052 154.767C55.449 154.767 53.3985 156.818 53.3985 159.374C53.4266 161.902 55.4771 163.981 58.0052 163.981ZM58.0052 155.357C60.2242 155.357 62.05 157.155 62.05 159.402C62.05 161.621 60.2523 163.447 58.0052 163.447C55.758 163.447 53.9603 161.649 53.9603 159.402C53.9884 157.155 55.7861 155.357 58.0052 155.357Z" fill="#1B1A1F"/>
</g>
</g>
</g>
<g id="girl">
<g id="Group_45">
<path id="Vector_50" d="M421.947 143.011C435.879 149.556 443.266 165.033 439.559 180.005L371.077 465.73L301.443 457.247L377.06 163.937C382.228 144.471 403.717 134.472 421.947 143.011Z" fill="white"/>
<path id="Vector_51" d="M370.908 465.955C370.655 468.062 363.745 469.073 353.633 468.876C348.296 468.764 342.088 468.314 335.487 467.5C326.836 466.432 318.999 464.916 313.016 463.286C305.769 461.292 301.274 459.129 301.499 457.36C301.724 455.449 307.398 454.438 315.937 454.41C321.836 454.41 329.083 454.86 336.92 455.815C344.925 456.798 352.257 458.174 358.043 459.691C366.077 461.742 371.133 464.073 370.908 465.955Z" fill="#1B1A1F"/>
<g id="Group_46">
<path id="Vector_52" fill-rule="evenodd" clip-rule="evenodd" d="M358.071 459.663L353.745 468.651C353.717 468.708 353.689 468.764 353.661 468.848C352.341 471.685 351.639 474.775 351.611 477.921L351.582 481.432C351.554 485.056 350.824 488.651 349.448 491.994C343.717 505.73 338.071 519.887 334.476 521.488C333.043 522.134 330.515 522.021 330.937 517.78C331.779 509.1 336.695 492.752 330.656 498.033C321.667 505.926 308.858 531.684 305.347 533.454C303.213 534.549 301.555 533.313 300.965 530.898C297.538 536.487 293.072 534.1 293.409 525.589C293.409 525.589 293.409 525.589 293.381 525.589C288.943 527.049 287.819 518.005 289.449 510.449C287.791 510.533 286.359 509.662 285.994 506.797C284.898 498.763 300.375 479.438 300.404 479.438C300.432 479.41 304.729 474.213 310.993 466.994C311.836 466.011 312.482 464.888 312.903 463.652L313.044 463.258L315.993 454.41C321.892 454.41 329.139 454.86 336.976 455.815C344.953 456.798 352.285 458.174 358.071 459.663Z" fill="#FD9F84"/>
<g id="Group_47">
<path id="Vector_53" d="M300.965 531.179C300.965 531.179 300.937 531.179 300.965 531.179C300.797 531.179 300.684 531.038 300.684 530.87C301.752 517.583 315.066 496.46 315.206 496.263C315.291 496.123 315.459 496.095 315.6 496.179C315.74 496.263 315.768 496.432 315.684 496.572C315.544 496.797 302.313 517.808 301.246 530.926C301.218 531.066 301.106 531.179 300.965 531.179Z" fill="#1B1A1F"/>
</g>
<g id="Group_48">
<path id="Vector_54" d="M293.381 526.403C293.212 526.403 293.1 526.263 293.1 526.122C293.353 512.022 306.471 491.235 306.611 491.039C306.695 490.898 306.864 490.87 307.004 490.954C307.145 491.039 307.173 491.207 307.089 491.348C306.948 491.544 293.887 512.218 293.662 526.15C293.662 526.291 293.521 526.403 293.381 526.403Z" fill="#1B1A1F"/>
</g>
<g id="Group_49">
<path id="Vector_55" d="M289.42 510.729C289.392 510.729 289.364 510.729 289.364 510.729C289.224 510.701 289.111 510.533 289.168 510.392C292.033 499.1 301.246 487.134 301.358 487.022C301.443 486.91 301.639 486.882 301.752 486.966C301.864 487.05 301.892 487.247 301.808 487.359C301.724 487.471 292.566 499.353 289.729 510.533C289.645 510.645 289.533 510.729 289.42 510.729Z" fill="#1B1A1F"/>
</g>
</g>
<path id="Vector_56" fill-rule="evenodd" clip-rule="evenodd" d="M353.717 468.679L331.836 464.719L351.555 481.432C351.555 481.432 352.369 471.46 353.717 468.679Z" fill="#B8735F"/>
</g>
<path id="Vector_57" d="M378.155 376.715L378.127 377.164C378.099 377.024 378.127 376.883 378.155 376.715Z" fill="#1B1A1F"/>
<path id="Vector_58" d="M423.969 76.0176L418.127 148.32L489.249 152.505L492.957 104.669L468.463 27.3948L423.969 76.0176Z" fill="#1B1A1F"/>
<path id="Vector_59" d="M531.046 100.006C512.675 32.2263 500.681 11.7772 479.923 4.47398C460.429 -2.37983 449.137 2.92907 449.137 2.92907L458.098 36.9173L472.451 140.904L556.411 182.224L531.046 100.006Z" fill="#1B1A1F"/>
<path id="Vector_60" d="M445.71 133.517C455.064 136.466 488.35 130.68 488.35 130.68L490.12 40.8217L436.834 84.276V127.084C436.862 127.112 436.356 130.539 445.71 133.517Z" fill="#FD9F84"/>
<path id="Vector_61" d="M436.918 86.9163V108.152L466.553 94.36L436.918 86.9163Z" fill="#B8735F"/>
<path id="Vector_62" d="M428.295 19.9791C428.295 19.9791 412.424 63.6581 420.346 87.8712C428.267 112.084 471.468 94.0509 475.766 87.8712C480.036 81.6915 504.249 53.2089 491.917 25.6812C481.89 3.32206 441.441 -10.3575 428.295 19.9791Z" fill="#FD9F84"/>
<path id="Vector_63" d="M446.019 54.5011C446.356 55.1752 446.441 55.9617 446.328 56.7201C446.16 57.7313 445.738 59.1077 444.559 58.9673C442.761 58.7426 442.845 55.4561 444.025 54.3044C445.064 53.2932 445.682 53.7988 446.019 54.5011Z" fill="#1B1A1F"/>
<path id="Vector_64" d="M426.834 54.5011C427.171 55.1752 427.255 55.9617 427.143 56.7201C426.975 57.7313 426.553 59.1077 425.373 58.9673C423.576 58.7426 423.66 55.4561 424.84 54.3044C425.879 53.2932 426.497 53.7988 426.834 54.5011Z" fill="#1B1A1F"/>
<g id="Group_50">
<path id="Vector_65" d="M429.138 71.6357C429.081 71.6357 429.053 71.6357 429.025 71.6076C425.907 70.0346 425.205 68.2088 425.626 67.001C425.992 65.9336 427.171 65.3999 428.52 65.6527C428.688 65.6808 428.885 65.6246 429.081 65.5122C430.823 64.3044 432.368 57.4506 432.817 54.9225C432.845 54.7821 432.986 54.6697 433.154 54.6978C433.295 54.7259 433.407 54.8664 433.379 55.0349C433.323 55.4281 431.694 64.4168 429.39 65.9898C429.053 66.2145 428.744 66.2987 428.407 66.2426C427.34 66.0459 426.413 66.4392 426.16 67.2257C425.851 68.1526 426.469 69.7257 429.278 71.1301C429.418 71.1863 429.475 71.3548 429.39 71.4953C429.334 71.5795 429.222 71.6357 429.138 71.6357Z" fill="#1B1A1F"/>
</g>
<g id="Group_51">
<path id="Vector_66" d="M439.755 50.1194C439.671 50.1194 439.559 50.0632 439.503 49.9789C439.418 49.8385 439.475 49.6699 439.615 49.5857C439.784 49.5014 443.716 47.2542 451.946 48.8834C452.087 48.9115 452.199 49.052 452.171 49.2205C452.143 49.3609 452.002 49.4733 451.834 49.4452C443.8 47.8722 439.952 50.0632 439.896 50.0632C439.868 50.1194 439.812 50.1194 439.755 50.1194Z" fill="#1B1A1F"/>
</g>
<g id="Group_52">
<path id="Vector_67" d="M430.935 49.4732C430.823 49.4732 430.739 49.4171 430.683 49.3047C430.654 49.2766 429.081 46.2149 421.104 46.2149C420.935 46.2149 420.823 46.1025 420.823 45.934C420.823 45.7654 420.935 45.6531 421.104 45.6531C429.503 45.6531 431.104 48.9395 431.188 49.08C431.244 49.2204 431.188 49.389 431.048 49.4451C431.02 49.4451 430.991 49.4732 430.935 49.4732Z" fill="#1B1A1F"/>
</g>
<path id="Vector_68" d="M435.036 79.9501C436.441 79.4725 437.593 79.1636 438.857 78.349C440.092 77.5344 441.328 76.6074 442.761 76.1299C444.559 75.5681 444.952 77.2254 444.306 78.5737C442.536 82.2253 438.014 84.5286 434.166 82.7028C433.829 82.5343 433.492 82.3377 433.295 82.0287C432.621 81.0175 433.772 80.3714 435.036 79.9501Z" fill="white"/>
<path id="Vector_69" d="M593.91 352.361C594.612 358.597 546.636 370.339 486.58 377.108C426.525 383.878 378.801 383.4 378.099 377.164C377.397 370.928 423.997 361.322 484.024 354.552C544.107 347.783 593.208 346.125 593.91 352.361Z" fill="#1B1A1F"/>
<g id="Group_53">
<path id="Vector_70" d="M398.97 339.609L379.082 534.689H483.996L514.333 387.754L471.525 331.154L398.97 339.609Z" fill="#FF7777"/>
<path id="Vector_71" d="M483.996 534.689V439.214L494.839 476.91L483.996 534.689Z" fill="#1B1A1F"/>
<path id="Vector_72" d="M562.394 325.199L635.651 534.296H513.35L440.233 333.204L562.394 325.199Z" fill="#FF7777"/>
</g>
<path id="Vector_73" d="M511.721 126.888L487.901 120.034C471.525 129.388 460.963 131.719 437.255 126.101L395.009 142.534L378.155 376.715C379.616 370.479 425.43 361.153 484.052 354.552C543.883 347.811 592.843 346.154 593.91 352.305C593.545 349.215 570.231 230.678 553.04 167.533C547.591 147.505 531.804 131.972 511.721 126.888Z" fill="white"/>
<g id="Group_54">
<path id="Vector_74" d="M378.155 376.996C377.987 376.996 377.874 376.855 377.874 376.687L390.318 203.487C390.318 203.319 390.458 203.207 390.627 203.235C390.795 203.235 390.908 203.375 390.88 203.544L378.436 376.743C378.436 376.883 378.296 376.996 378.155 376.996Z" fill="#1B1A1F"/>
</g>
<g id="Group_55">
<g id="Group_56">
<path id="Vector_75" d="M482.339 156.915L425.458 277.728C416.862 297.446 426.919 320.283 447.255 327.249C465.598 333.541 486.496 323.373 493.968 305.452L547.647 184.724C554.613 167.982 547.843 148.685 531.945 139.977C513.659 129.949 490.681 137.786 482.339 156.915Z" fill="white"/>
<g id="Group_57">
<path id="Vector_76" d="M323.718 212.982L301.752 279.582L434.755 329.637C458.491 338.682 485.12 327.137 494.754 303.626L504.164 280.649L323.718 212.982Z" fill="white"/>
<path id="Vector_77" d="M324.842 225.088C324.785 225.566 324.701 226.071 324.617 226.577C323.69 232.672 321.836 240.285 319.196 248.374C316.752 255.874 314.027 262.616 311.387 267.925C311.022 268.655 310.685 269.329 310.319 270.003C306.864 276.464 303.69 280.228 301.752 279.582C299.505 278.851 299.364 272.475 301.022 263.374C301.162 262.56 301.331 261.745 301.499 260.874C302.539 255.818 304.055 250.088 306.022 244.077C307.651 239.105 309.392 234.442 311.162 230.341C312.426 227.392 313.69 224.723 314.926 222.42C318.353 215.959 321.527 212.223 323.493 212.869C325.375 213.487 325.769 218.15 324.842 225.088Z" fill="#1B1A1F"/>
</g>
</g>
<g id="Group_58">
<path id="Vector_78" d="M460.963 264.694C460.935 264.694 460.907 264.694 460.85 264.666L323.353 213.094C323.212 213.038 323.128 212.869 323.184 212.729C323.24 212.588 323.409 212.504 323.549 212.56L461.047 264.132C461.187 264.189 461.272 264.357 461.216 264.498C461.187 264.638 461.075 264.694 460.963 264.694Z" fill="#1B1A1F"/>
</g>
<g id="Group_59">
<path id="Vector_79" d="M452.058 333.232C446.553 333.232 440.935 332.249 435.486 330.199L301.64 279.835C301.499 279.778 301.415 279.61 301.471 279.469C301.527 279.329 301.696 279.245 301.836 279.301L435.682 329.665C458.8 338.373 484.698 327.446 494.614 304.834L542.9 194.724C542.956 194.583 543.124 194.527 543.265 194.583C543.405 194.639 543.461 194.808 543.405 194.948L495.119 305.087C487.423 322.643 470.204 333.232 452.058 333.232Z" fill="#1B1A1F"/>
</g>
<g id="Group_60">
<path id="Vector_80" d="M436.104 255.369C436.076 255.369 436.019 255.369 435.991 255.34C435.851 255.284 435.795 255.116 435.851 254.975L473.463 175.061C473.519 174.92 473.687 174.864 473.828 174.92C473.968 174.977 474.024 175.145 473.968 175.286L436.356 255.228C436.3 255.312 436.216 255.369 436.104 255.369Z" fill="#1B1A1F"/>
</g>
</g>
<path id="Vector_81" d="M468.631 42.3385C459.221 38.3498 450.205 37.6757 442.396 37.17C442.368 29.5578 445.345 21.6647 445.345 21.6647C440.542 25.0635 438.042 32.7038 436.834 36.6364C424.503 36.6644 417.34 38.7431 417.34 38.7431C418.127 33.9117 419.896 29.0241 421.975 24.4736C424.531 18.9119 427.368 13.8558 432.143 10.0638C440.401 3.49085 449.699 0.709993 459.98 2.8167C460.12 2.84479 460.261 2.87288 460.429 2.90097C475.036 6.04698 468.631 42.3385 468.631 42.3385Z" fill="#1B1A1F"/>
<path id="Vector_82" d="M464.98 27.9286C464.98 27.9286 469.727 54.6416 479.923 56.3551C479.923 56.3551 467.255 120.174 495.372 122.646C532.787 125.904 540.034 130.736 540.034 130.736L502.282 32.451C502.282 32.451 481.917 4.81101 469.839 2.95711C457.789 1.1032 452.648 3.12564 452.648 3.12564L464.98 27.9286Z" fill="#1B1A1F"/>
<g id="Group_61">
<path id="Vector_83" d="M462.339 57.5348C462.339 57.5348 470.906 42.2823 482.255 44.3047C493.631 46.3271 487.704 65.4279 475.963 72.1694L462.339 57.5348Z" fill="#FD9F84"/>
<g id="Group_62">
<path id="Vector_84" d="M472.423 60.7934C472.367 60.7934 472.283 60.7653 472.227 60.7092C472.17 60.653 472.142 60.5687 472.142 60.5125C472.142 60.4564 472.17 60.3721 472.227 60.3159L479.698 52.3666C479.811 52.2543 479.979 52.2543 480.092 52.3666C480.148 52.4228 480.176 52.5071 480.176 52.5632C480.176 52.6194 480.148 52.7037 480.092 52.7599L472.62 60.7092C472.592 60.7653 472.508 60.7934 472.423 60.7934Z" fill="#1B1A1F"/>
</g>
</g>
<g id="Group_63">
<path id="Vector_85" fill-rule="evenodd" clip-rule="evenodd" d="M324.617 226.577C323.69 232.672 321.836 240.285 319.196 248.374C316.752 255.874 314.027 262.616 311.387 267.925C311.022 268.655 310.685 269.329 310.32 270.003L308.438 268.655L300.994 263.374L295.095 259.189L311.106 230.341L314.673 223.909L323.213 226.212L324.617 226.577Z" fill="#FD9F84"/>
<path id="Vector_86" fill-rule="evenodd" clip-rule="evenodd" d="M285.601 194.443C284.899 193.741 284.056 193.207 283.101 192.898C277.146 190.96 256.388 186.999 250.011 185.904C245.995 185.201 241.416 189.808 244.759 193.656C246.472 195.623 249.983 195.96 255.938 197.308C263.326 198.993 272.23 202.954 277.483 205.285L259.983 234.892L295.095 259.189L314.673 223.909L285.601 194.443Z" fill="#FD9F84"/>
<path id="Vector_87" fill-rule="evenodd" clip-rule="evenodd" d="M280.151 205.341C280.151 205.341 253.691 194.808 242.652 190.819C235.939 188.404 231.22 196.915 236.894 200.342C240.939 202.785 274.449 219.077 274.449 219.077L280.151 205.341Z" fill="#FD9F84"/>
<path id="Vector_88" fill-rule="evenodd" clip-rule="evenodd" d="M277.202 216.886C277.202 216.886 245.658 200.959 242.203 201.156C238.748 201.353 233.467 202.982 235.124 209.021C236.781 215.06 273.775 232.083 273.775 232.083L277.202 216.886Z" fill="#FD9F84"/>
<path id="Vector_89" fill-rule="evenodd" clip-rule="evenodd" d="M260.011 234.891C260.011 234.891 241.585 224.751 239.562 223.234C235.883 220.481 238.635 211.83 246.248 214.583C253.86 217.335 273.382 226.661 273.382 226.661L260.011 234.891Z" fill="#FD9F84"/>
<g id="Group_64">
<path id="Vector_90" d="M275.601 203.796C275.573 203.796 275.545 203.796 275.489 203.768L242.568 191.072C242.427 191.016 242.343 190.847 242.399 190.707C242.456 190.566 242.624 190.482 242.765 190.538L275.685 203.263C275.826 203.319 275.91 203.487 275.854 203.628C275.798 203.74 275.713 203.796 275.601 203.796Z" fill="#1B1A1F"/>
</g>
<g id="Group_65">
<path id="Vector_91" d="M270.348 214.33C270.32 214.33 270.292 214.33 270.236 214.302L239.478 202.027C239.338 201.971 239.253 201.802 239.31 201.662C239.366 201.521 239.534 201.437 239.675 201.493L270.433 213.768C270.573 213.824 270.657 213.993 270.601 214.133C270.545 214.274 270.461 214.33 270.348 214.33Z" fill="#1B1A1F"/>
</g>
<g id="Group_66">
<path id="Vector_92" d="M265.938 225.706C265.91 225.706 265.854 225.706 265.826 225.678L240.882 214.836C240.742 214.779 240.686 214.611 240.742 214.47C240.798 214.33 240.967 214.274 241.107 214.33L266.051 225.173C266.191 225.229 266.247 225.397 266.191 225.538C266.163 225.65 266.051 225.706 265.938 225.706Z" fill="#1B1A1F"/>
</g>
</g>
<path id="Vector_93" fill-rule="evenodd" clip-rule="evenodd" d="M298.578 261.632L309.87 246.211L308.437 268.655L298.578 261.632Z" fill="#B8735F"/>
</g>
<g id="dude">
<g id="Group_67">
<path id="Vector_94" d="M441.565 326.815C451.677 330.017 487.604 323.753 487.604 323.753L489.514 244.288L431.987 291.198V319.905C431.987 319.905 431.453 323.641 441.565 326.815Z" fill="#FD9F84"/>
<path id="Vector_95" d="M431.987 292.293V316.759L466.115 300.888L431.987 292.293Z" fill="#B8735F"/>
<path id="Vector_96" d="M422.745 221.789C422.745 221.789 405.611 268.951 414.178 295.074C422.745 321.225 469.374 301.731 474.009 295.074C478.615 288.417 504.767 257.659 491.424 227.94C478.082 198.222 434.515 194.626 422.745 221.789Z" fill="#FD9F84"/>
<path id="Vector_97" d="M488.503 286.001L475.497 261.058C475.497 261.058 460.666 257.855 458.419 251.563C451.93 233.446 451.93 233.446 451.93 233.446C451.93 233.446 445.442 233.979 435.947 232.996C428.11 232.182 420.498 229.85 413.701 225.89C408.588 222.912 403.645 218.839 402.465 213.924C397.324 192.463 404.01 196.536 431.959 202.126C431.959 202.126 504.71 181.733 503.165 218.699C503.193 218.699 522.322 255.861 488.503 286.001Z" fill="#1B1A1F"/>
<path id="Vector_98" d="M459.514 262.322C459.514 262.322 468.756 245.833 481.031 248.052C493.306 250.243 486.902 270.861 474.233 278.136L459.514 262.322Z" fill="#FD9F84"/>
<path id="Vector_99" d="M469.374 196.508C469.374 196.508 440.385 194.065 434.009 189.823C421.706 181.621 413.476 185.975 412.184 190.076C410.892 194.177 411.762 201.143 419.403 206.733C431.341 215.469 448.869 211.087 458.363 208.278C467.829 205.469 469.374 196.508 469.374 196.508Z" fill="#1B1A1F"/>
<path id="Vector_100" d="M441.874 259.035C442.239 259.766 442.324 260.608 442.211 261.423C442.043 262.518 441.565 264.007 440.301 263.867C438.335 263.614 438.447 260.075 439.739 258.81C440.835 257.743 441.509 258.305 441.874 259.035Z" fill="#1B1A1F"/>
<path id="Vector_101" d="M421.172 259.035C421.538 259.766 421.622 260.608 421.509 261.423C421.341 262.518 420.863 264.007 419.599 263.867C417.633 263.614 417.745 260.075 419.038 258.81C420.133 257.743 420.779 258.305 421.172 259.035Z" fill="#1B1A1F"/>
<g id="Group_68">
<path id="Vector_102" d="M470.385 265.805C470.469 265.805 470.525 265.777 470.582 265.72L478.671 257.153C478.784 257.041 478.784 256.872 478.671 256.76C478.559 256.648 478.391 256.648 478.278 256.76L470.188 265.327C470.076 265.44 470.076 265.608 470.188 265.72C470.245 265.777 470.329 265.805 470.385 265.805Z" fill="#1B1A1F"/>
</g>
<g id="Group_69">
<path id="Vector_103" d="M430.863 289.568C430.863 289.568 430.891 289.568 430.863 289.568C439.908 288.81 442.492 281.872 442.52 281.788C442.576 281.647 442.492 281.479 442.352 281.423C442.211 281.366 442.043 281.451 441.987 281.591C441.959 281.647 439.487 288.276 430.835 288.979C430.667 288.979 430.554 289.119 430.582 289.288C430.61 289.456 430.723 289.568 430.863 289.568Z" fill="#1B1A1F"/>
</g>
<g id="Group_70">
<path id="Vector_104" d="M425.723 278.557C426.678 278.557 427.324 278.417 427.408 278.389C427.549 278.361 427.661 278.192 427.605 278.052C427.577 277.911 427.408 277.799 427.268 277.855C427.24 277.855 424.009 278.585 421.706 276.732C419.852 275.243 419.656 273.726 420.077 272.799C420.498 271.872 421.594 271.423 422.83 271.675C423.167 271.732 423.532 271.647 423.869 271.423C426.341 269.737 428.082 260.018 428.167 259.597C428.195 259.457 428.082 259.288 427.942 259.26C427.802 259.232 427.633 259.344 427.605 259.485C427.577 259.597 425.835 269.372 423.56 270.945C423.335 271.086 423.139 271.142 422.942 271.114C421.453 270.833 420.133 271.395 419.599 272.546C419.094 273.642 419.29 275.439 421.369 277.153C422.802 278.305 424.487 278.557 425.723 278.557Z" fill="#1B1A1F"/>
</g>
<g id="Group_71">
<path id="Vector_105" d="M448.223 253.586C448.307 253.586 448.419 253.53 448.447 253.445C448.531 253.305 448.503 253.136 448.363 253.052C441.987 248.951 435.049 252.996 434.964 253.052C434.824 253.136 434.796 253.305 434.88 253.445C434.964 253.586 435.133 253.614 435.273 253.53C435.329 253.502 441.987 249.597 448.082 253.53C448.11 253.586 448.166 253.586 448.223 253.586Z" fill="#1B1A1F"/>
</g>
<g id="Group_72">
<path id="Vector_106" d="M425.61 253.586C425.695 253.586 425.751 253.558 425.807 253.502C425.919 253.389 425.919 253.221 425.807 253.108C425.667 252.996 422.521 250.075 415.021 249.513C414.852 249.513 414.74 249.625 414.712 249.766C414.712 249.934 414.824 250.047 414.965 250.075C422.212 250.608 425.358 253.474 425.386 253.502C425.47 253.558 425.526 253.586 425.61 253.586Z" fill="#1B1A1F"/>
</g>
<path id="Vector_107" d="M488.306 198.783C488.306 198.783 467.127 194.739 457.998 187.772C448.869 180.806 428.335 174.851 429.992 191.087C431.65 207.323 467.127 210.806 467.604 210.806C468.11 210.806 488.306 198.783 488.306 198.783Z" fill="#1B1A1F"/>
</g>
<g id="Group_73">
<g id="Group_74">
<path id="Vector_108" d="M401.538 512.43H401.566C401.707 512.402 401.847 512.289 401.819 512.121L393.336 427.684C393.308 427.544 393.196 427.403 393.027 427.431C392.887 427.459 392.746 427.572 392.774 427.74L401.257 512.177C401.257 512.317 401.37 512.43 401.538 512.43Z" fill="#1B1A1F"/>
</g>
<g id="Group_75">
<path id="Vector_109" d="M540.89 337.714C540.89 337.714 583.024 341.702 602.434 393.527C611.984 419.089 630.27 465.857 637.854 499.93C642.264 519.761 627.18 538.581 606.844 538.581H570.075L516.002 377.853L540.89 337.714Z" fill="#89106A"/>
<path id="Vector_110" d="M234.294 475.295L352.241 372.151C363.112 363.191 372.915 354.792 385.499 348.388C398.842 341.618 413.673 337.601 427.661 332.292C427.746 332.264 428.616 332.011 428.644 331.927L430.133 319.315C448.279 322.04 489.542 317.068 489.542 317.068C490.778 320.804 491.621 330.298 491.621 330.298L540.89 337.685L577.294 538.581H397.325L392.465 473.357L275.698 536.081C261.091 542.57 243.928 537.345 235.417 523.806C227.103 510.632 222.749 485.773 234.294 475.295Z" fill="#89106A"/>
<g id="Group_76">
<path id="Vector_111" d="M458.588 336.084C464.599 336.084 469.823 335.607 474.009 335.017C485.048 333.416 491.649 330.607 491.733 330.579C491.874 330.523 491.93 330.354 491.874 330.214C491.817 330.073 491.649 330.017 491.508 330.073C491.452 330.101 484.879 332.882 473.924 334.483C463.812 335.944 447.745 336.646 428.729 331.674C428.588 331.646 428.42 331.731 428.392 331.871C428.363 332.011 428.448 332.18 428.588 332.208C439.796 335.129 449.992 336.084 458.588 336.084Z" fill="#1B1A1F"/>
</g>
<g id="Group_77">
<path id="Vector_112" d="M553.08 478.694C553.109 478.694 553.137 478.694 553.165 478.694C553.305 478.638 553.389 478.498 553.361 478.357L539.85 432.319C539.794 432.178 539.654 432.094 539.513 432.122C539.373 432.178 539.289 432.319 539.317 432.459L552.828 478.498C552.828 478.61 552.94 478.694 553.08 478.694Z" fill="#1B1A1F"/>
</g>
<g id="Group_78">
<path id="Vector_113" d="M422.521 483.301C422.521 483.301 422.549 483.301 422.521 483.301L558.755 478.694C558.923 478.694 559.036 478.554 559.036 478.413C559.036 478.245 558.895 478.133 558.755 478.133L422.549 482.739C422.381 482.739 422.268 482.88 422.268 483.02C422.268 483.189 422.381 483.301 422.521 483.301Z" fill="#1B1A1F"/>
</g>
<g id="Group_79">
<g id="Group_80">
<path id="Vector_114" d="M301.905 490.352L221.373 362.376L171.177 391.814L233.816 521.053L301.905 490.352Z" fill="#89106A"/>
<path id="Vector_115" d="M171.177 391.814C171.739 392.797 173.621 392.909 176.458 392.32C177.02 392.207 177.609 392.067 178.227 391.898C178.312 391.87 178.368 391.87 178.424 391.842C183.733 390.353 191.345 386.954 199.379 382.32C203.817 379.764 207.834 377.123 211.232 374.623C211.654 374.314 212.075 374.005 212.468 373.696C213.143 373.191 213.789 372.657 214.407 372.179C219.715 367.882 222.637 364.258 221.71 362.657C220.699 360.916 215.418 361.899 208.171 364.848C207.412 365.157 206.626 365.494 205.811 365.859C205.615 365.944 205.418 366.028 205.221 366.14C201.598 367.769 197.581 369.82 193.48 372.179C184.407 377.404 177.02 382.966 173.396 386.983C173.256 387.151 173.115 387.292 172.975 387.46C172.581 387.909 172.272 388.331 171.992 388.724C171.093 390.016 170.784 391.112 171.177 391.814Z" fill="#1B1A1F"/>
</g>
<g id="Group_81">
<path id="Vector_116" d="M116.037 353.332C116.037 353.332 120.504 360.298 124.97 364.736C129.436 369.174 156.43 372.741 156.43 372.741L116.037 353.332Z" fill="#FD9F84"/>
<g id="Group_82">
<path id="Vector_117" d="M119.745 356.196C123.032 358.416 129.998 363.865 144.408 368.893L166.823 376.084L176.795 385.831L178.171 387.151L181.739 390.634C181.795 390.606 181.879 390.578 181.935 390.578C187.188 388.921 194.688 385.325 202.609 380.438C206.963 377.741 210.923 374.988 214.238 372.404C213.451 371.281 212.581 370.101 211.682 368.893C210.502 367.292 209.266 365.663 208.002 364.062C204.21 359.258 200.193 354.792 197.16 352.854C189.351 347.91 166.121 350.213 150.924 347.292C135.728 344.371 120.728 337.292 112.049 340.466C111.346 340.719 111.206 344.876 115.532 346.028C112.948 346.281 109.268 349.034 119.745 356.196Z" fill="#FD9F84"/>
<path id="Vector_118" d="M172.16 381.28L182.665 372.657L166.851 376.084L172.16 381.28Z" fill="#B8735F"/>
</g>
</g>
</g>
</g>
<g id="Group_83">
<g id="Group_84">
<path id="Vector_119" d="M303.225 538.272H468.166C471.172 538.272 473.335 535.351 472.436 532.457L444.852 443.386C444.262 441.504 442.549 440.24 440.583 440.24H275.642C272.636 440.24 270.473 443.161 271.372 446.054L298.956 535.126C299.518 536.98 301.259 538.272 303.225 538.272Z" fill="#1B1A1F"/>
<g id="Group_85">
<path id="Vector_120" d="M448.869 538.272H554.12C555.918 538.272 557.407 536.811 557.407 534.986C557.407 533.188 555.946 531.699 554.12 531.699H448.841V538.272H448.869Z" fill="#1B1A1F"/>
<g id="Group_86">
<path id="Vector_121" d="M535.89 536.053H544.092V530.913C544.092 530.239 543.53 529.677 542.856 529.677H537.126C536.452 529.677 535.89 530.239 535.89 530.913V536.053V536.053Z" fill="#1B1A1F"/>
<path id="Vector_122" d="M522.744 536.053H530.946V530.913C530.946 530.239 530.384 529.677 529.71 529.677H523.98C523.306 529.677 522.744 530.239 522.744 530.913V536.053V536.053Z" fill="#1B1A1F"/>
<path id="Vector_123" d="M509.598 536.053H517.8V530.913C517.8 530.239 517.239 529.677 516.564 529.677H510.834C510.16 529.677 509.598 530.239 509.598 530.913V536.053V536.053Z" fill="#1B1A1F"/>
<path id="Vector_124" d="M496.452 536.053H504.655V530.913C504.655 530.239 504.093 529.677 503.419 529.677H497.688C497.014 529.677 496.452 530.239 496.452 530.913V536.053V536.053Z" fill="#1B1A1F"/>
<path id="Vector_125" d="M483.307 536.053H491.509V530.913C491.509 530.239 490.947 529.677 490.273 529.677H484.542C483.868 529.677 483.307 530.239 483.307 530.913V536.053V536.053Z" fill="#1B1A1F"/>
</g>
</g>
<path id="Vector_126" d="M296.203 538.272H467.211L437.83 443.414C437.24 441.532 435.526 440.268 433.56 440.268H268.619C265.614 440.268 263.451 443.189 264.35 446.083L291.933 535.154C292.495 536.98 294.237 538.272 296.203 538.272Z" fill="white"/>
</g>
<path id="Vector_127" d="M365.668 497.514C361.107 497.514 357.41 493.817 357.41 489.256C357.41 484.695 361.107 480.998 365.668 480.998C370.229 480.998 373.926 484.695 373.926 489.256C373.926 493.817 370.229 497.514 365.668 497.514Z" fill="#240F30"/>
</g>
</g>
</g>
</g>
</g>
</svg>
