<svg width="513" height="500" viewBox="0 0 513 500" fill="none" xmlns="http://www.w3.org/2000/svg">
<path opacity="0.9" d="M0 220.615C0 228.887 10.2301 233.597 17.4717 229.461L163.452 141.464C170.693 137.329 176.556 127.104 176.556 118.833L180.004 12.1113C180.004 3.8401 170.693 1.42765 163.452 5.56327L13.1037 92.2964C5.8622 96.432 0 106.656 0 114.927V220.615Z" fill="url(#paint0_linear)"/>
<path d="M4.36719 221.879C4.36719 230.15 10.2294 233.596 17.4709 229.461L167.819 142.728C175.061 138.592 180.923 128.368 180.923 120.097V14.4086C180.923 6.13735 175.061 2.691 167.819 6.82662L17.4709 93.5597C10.2294 97.6953 4.36719 107.919 4.36719 116.191V221.879V221.879Z" fill="url(#paint1_linear)"/>
<g opacity="0.7">
<path opacity="0.7" d="M180.81 43.4736C173.798 40.7165 164.717 37.6148 154.717 40.0272C143.682 43.5884 143.452 53.9275 143.223 64.8409C142.993 72.8824 142.878 81.2685 138.51 87.5868C133.797 93.4456 129.429 94.2497 123.337 95.5134C120.463 96.0878 117.13 96.7771 113.452 98.1556C107.475 100.453 105.521 104.244 103.681 107.92C102.072 111.137 100.578 114.124 96.5548 115.962C90.1179 118.374 86.6696 117.455 83.1063 116.536C80.1177 115.732 77.1291 114.928 72.3014 115.962C60.577 118.949 58.9678 130.207 57.3585 142.269C56.6689 147.668 55.8643 153.182 54.1401 158.237C49.6572 167.312 41.6111 172.022 32.0706 171.103C17.8174 171.103 8.96666 191.437 4.25391 205.911C4.25391 206.716 4.25391 210.162 4.25391 210.966C8.16204 197.41 17.3576 172.597 31.9557 172.597C42.1858 173.516 50.6917 168.576 55.5194 158.696C57.2436 153.412 58.0482 147.783 58.7379 142.384C60.3471 130.436 61.8414 120.097 72.5313 117.34C76.8992 116.421 79.6579 117.111 82.5315 117.915C86.2098 118.834 90.003 119.868 96.8997 117.34C101.497 115.272 103.222 111.941 104.831 108.61C106.67 105.048 108.279 101.602 113.797 99.5341C117.475 98.1556 120.693 97.5812 123.452 96.892C129.544 95.6283 134.372 94.5944 139.429 88.391C144.142 81.6131 144.257 72.9973 144.487 64.726C144.717 53.9275 144.947 44.5075 154.947 41.2909C164.602 38.8784 173.683 42.2099 180.58 44.967V43.4736H180.81Z" fill="url(#paint2_linear)"/>
</g>
<path d="M23.3336 271.393C23.3336 271.738 23.3336 271.968 23.2186 272.082L18.5059 274.954C18.5059 273.691 19.0806 271.968 20.23 270.015C20.6898 269.096 21.2645 268.177 21.7243 267.372C22.1841 266.339 22.5289 265.534 22.5289 264.96C22.5289 264.386 22.414 264.041 22.1841 263.926C21.9542 263.811 21.6094 263.926 21.2645 264.156C20.4599 264.615 19.8852 265.649 19.4254 267.258C19.3105 267.372 19.0806 267.372 18.9656 267.372C18.7357 267.372 18.6208 267.258 18.6208 267.143C18.8507 266.224 19.1955 265.42 19.6553 264.73C20.1151 263.926 20.6898 263.237 21.3795 262.892C22.0692 262.548 22.5289 262.433 22.9887 262.662C23.4485 262.892 23.6784 263.582 23.6784 264.501C23.6784 265.305 23.3336 266.339 22.7588 267.372C22.1841 268.406 21.4944 269.555 20.9197 270.704C20.345 271.738 20.0001 272.542 19.8852 273.116L23.3336 271.049C23.3336 271.163 23.3336 271.278 23.3336 271.393Z" fill="white"/>
<path d="M30.6901 262.433C30.5752 264.041 30.3453 265.535 29.8855 266.798C29.3108 268.177 28.6211 269.096 27.7016 269.67C26.782 270.245 26.0923 270.13 25.7475 269.326C25.4027 268.636 25.1728 267.487 25.2877 265.764C25.4027 264.156 25.6325 262.663 26.0923 261.399C26.6671 260.02 27.3567 259.101 28.2763 258.527C29.1958 257.953 29.8855 258.067 30.2304 258.872C30.5752 259.561 30.6901 260.71 30.6901 262.433ZM29.6556 263.007C29.7706 261.744 29.6556 260.71 29.4257 260.135C29.1958 259.446 28.7361 259.331 28.1613 259.676C27.5866 260.02 27.1268 260.71 26.782 261.744C26.4372 262.663 26.3222 263.811 26.2073 265.075C26.2073 266.339 26.2073 267.258 26.4372 267.947C26.6671 268.636 27.1268 268.751 27.7016 268.407C28.2763 268.062 28.7361 267.373 29.0809 266.339C29.4257 265.42 29.6556 264.271 29.6556 263.007Z" fill="white"/>
<path d="M34.9434 264.96C34.8285 265.19 34.5986 265.304 34.4837 265.419C34.3687 265.419 34.2538 265.534 34.0239 265.649L34.3687 256.918L33.2193 259.101C33.1043 259.101 32.9894 259.101 32.8744 258.986C32.7595 258.871 32.6445 258.756 32.6445 258.641L34.5986 255.08C34.7135 254.965 34.8285 254.851 35.0584 254.736C35.2883 254.621 35.4032 254.506 35.5182 254.506L34.9434 264.96Z" fill="white"/>
<path d="M43.9086 256.343C43.9086 257.377 43.5637 258.296 43.104 259.215C42.5292 260.134 41.9545 260.824 41.1499 261.398C40.3453 261.857 39.7705 261.972 39.3108 261.628C38.851 261.283 38.6211 260.594 38.6211 259.675C38.6211 258.296 39.1958 257.147 40.1154 255.999C39.4257 255.769 39.1958 255.195 39.1958 254.276C39.1958 253.471 39.4257 252.782 39.8855 252.093C40.3453 251.404 40.92 250.829 41.6097 250.37C42.2993 249.91 42.8741 249.795 43.2189 250.025C43.5637 250.255 43.7936 250.714 43.7936 251.518C43.7936 252.552 43.3338 253.586 42.6442 254.505C43.5637 254.39 43.9086 255.08 43.9086 256.343ZM42.989 256.918C42.989 256.343 42.8741 255.884 42.5292 255.654C42.1844 255.424 41.8396 255.424 41.2648 255.769C40.8051 256.114 40.3453 256.573 40.0004 257.147C39.6556 257.837 39.4257 258.411 39.4257 259.1C39.4257 259.675 39.5407 260.134 39.8855 260.364C40.2303 260.594 40.5752 260.594 41.1499 260.249C41.6097 259.905 42.0694 259.445 42.4143 258.871C42.7591 258.181 42.8741 257.607 42.989 256.918ZM42.7591 252.208C42.7591 251.748 42.6442 251.518 42.4143 251.404C42.1844 251.289 41.8396 251.289 41.4947 251.518C41.1499 251.748 40.8051 252.093 40.4602 252.552C40.2303 253.012 40.0004 253.471 40.0004 253.931C40.0004 254.39 40.1154 254.62 40.3453 254.735C40.5752 254.85 40.92 254.85 41.2648 254.62C41.6097 254.39 41.9545 254.046 42.2993 253.586C42.6442 253.012 42.7591 252.552 42.7591 252.208Z" fill="white"/>
<path d="M65.4039 247.153C65.4039 247.497 65.4039 247.727 65.2889 247.842L60.5762 250.714C60.5762 249.45 61.1509 247.727 62.3003 245.774C62.7601 244.855 63.3348 243.936 63.7946 243.017C64.2544 241.983 64.5992 241.179 64.5992 240.605C64.5992 240.03 64.4843 239.686 64.2544 239.571C64.0245 239.456 63.6797 239.571 63.3348 239.8C62.5302 240.26 61.9555 241.294 61.4957 242.902C61.3808 243.017 61.1509 243.017 61.0359 243.017C60.8061 243.017 60.6911 242.902 60.6911 242.787C60.921 241.868 61.2658 241.064 61.7256 240.375C62.1854 239.571 62.7601 238.881 63.4498 238.537C64.1395 238.192 64.5992 238.077 65.059 238.307C65.5188 238.537 65.7487 239.226 65.7487 240.145C65.7487 240.949 65.4039 241.983 64.8291 243.017C64.2544 244.166 63.5647 245.2 62.99 246.349C62.4153 247.268 62.1854 248.187 61.9555 248.761L65.4039 246.693C65.4039 246.923 65.4039 247.038 65.4039 247.153Z" fill="white"/>
<path d="M72.7604 238.193C72.6455 239.801 72.4156 241.294 71.9558 242.558C71.3811 243.936 70.6914 244.856 69.7719 245.43C68.8523 246.004 68.1626 245.889 67.8178 245.085C67.473 244.396 67.2431 243.247 67.358 241.524C67.473 239.916 67.7029 238.422 68.1626 237.159C68.7374 235.78 69.427 234.861 70.3466 234.287C71.2662 233.712 71.9558 233.827 72.3007 234.631C72.6455 235.321 72.7604 236.584 72.7604 238.193ZM71.7259 238.767C71.7259 237.503 71.7259 236.469 71.496 235.895C71.2662 235.206 70.8064 235.091 70.2316 235.436C69.6569 235.78 69.1971 236.469 68.8523 237.503C68.5075 238.422 68.3925 239.571 68.2776 240.835C68.2776 242.098 68.2776 243.017 68.5075 243.707C68.7374 244.396 69.1971 244.511 69.7719 244.166C70.3466 243.822 70.8064 243.132 71.1512 242.098C71.496 241.179 71.7259 240.031 71.7259 238.767Z" fill="white"/>
<path d="M77.0137 240.72C76.8988 240.949 76.6689 241.064 76.554 241.179C76.439 241.179 76.3241 241.294 76.0942 241.409L76.439 232.678L75.2896 234.861C75.1746 234.861 75.0597 234.861 74.9447 234.746C74.8298 234.631 74.7148 234.516 74.7148 234.401L76.6689 230.84C76.7839 230.725 76.8988 230.61 77.1287 230.495C77.3586 230.38 77.4735 230.266 77.5885 230.266L77.0137 240.72Z" fill="white"/>
<path d="M85.9789 229.117C85.8639 230.955 85.4042 232.793 84.5995 234.402C83.68 236.125 82.5305 237.503 81.0362 238.422C81.0362 238.192 81.0362 238.078 81.0362 237.848C81.0362 237.503 81.0362 237.388 81.1512 237.273C82.0707 236.699 82.8754 235.895 83.565 234.746C84.2547 233.597 84.7145 232.449 84.7145 231.415C84.2547 232.334 83.565 233.023 82.8754 233.482C82.3006 233.827 81.8409 233.827 81.3811 233.597C80.9213 233.253 80.6914 232.563 80.6914 231.3C80.6914 230.266 81.0362 229.232 81.496 228.313C81.9558 227.394 82.6455 226.705 83.4501 226.13C84.3697 225.556 85.0593 225.556 85.5191 226.245C85.9789 226.82 86.0938 227.853 85.9789 229.117ZM84.9444 228.658C84.9444 227.968 84.8294 227.509 84.4846 227.279C84.1398 227.049 83.7949 227.049 83.3351 227.279C82.8754 227.509 82.4156 228.083 82.1857 228.658C81.8409 229.347 81.611 229.921 81.611 230.611C81.611 231.3 81.7259 231.759 81.9558 231.989C82.3006 232.219 82.6455 232.219 83.1053 231.989C83.565 231.759 84.0248 231.185 84.2547 230.611C84.8294 230.036 84.9444 229.347 84.9444 228.658Z" fill="white"/>
<path d="M105.75 223.832C105.75 224.177 105.75 224.407 105.635 224.522L100.922 227.394C100.922 226.13 101.497 224.407 102.646 222.454C103.106 221.535 103.681 220.616 104.14 219.697C104.6 218.663 104.945 217.859 104.945 217.284C104.945 216.71 104.83 216.365 104.6 216.25C104.37 216.136 104.025 216.25 103.681 216.48C102.876 216.94 102.301 217.974 101.841 219.582C101.726 219.697 101.497 219.697 101.382 219.697C101.152 219.697 101.037 219.582 101.037 219.467C101.267 218.548 101.612 217.744 102.071 217.055C102.531 216.25 103.106 215.561 103.795 215.216C104.485 214.872 104.945 214.757 105.405 214.987C105.865 215.216 106.094 215.906 106.094 216.825C106.094 217.629 105.75 218.663 105.175 219.697C104.6 220.731 103.91 221.879 103.336 223.028C102.761 224.062 102.416 224.866 102.301 225.441L105.75 223.373C105.75 223.488 105.75 223.717 105.75 223.832Z" fill="white"/>
<path d="M113.106 214.757C112.991 216.365 112.761 217.859 112.302 219.122C111.727 220.501 111.037 221.42 110.118 221.994C109.198 222.569 108.508 222.454 108.164 221.65C107.819 220.96 107.589 219.812 107.704 218.089C107.819 216.48 108.049 214.987 108.508 213.723C109.083 212.345 109.773 211.426 110.692 210.851C111.612 210.277 112.302 210.392 112.761 211.196C112.991 212 113.106 213.149 113.106 214.757ZM112.072 215.331C112.072 214.068 112.072 213.034 111.842 212.459C111.612 211.77 111.152 211.655 110.577 212C110.003 212.345 109.543 213.034 109.198 214.068C108.853 214.987 108.738 216.136 108.623 217.399C108.623 218.663 108.623 219.582 108.853 220.271C109.083 220.96 109.543 221.075 110.118 220.731C110.692 220.386 111.152 219.697 111.497 218.663C111.842 217.744 112.072 216.71 112.072 215.331Z" fill="white"/>
<path d="M119.199 215.561C119.199 215.906 119.199 216.136 119.084 216.25L114.371 219.122C114.371 217.859 114.946 216.136 116.095 214.183C116.555 213.264 117.13 212.345 117.59 211.54C118.049 210.507 118.394 209.702 118.394 209.128C118.394 208.554 118.279 208.209 118.049 208.094C117.819 207.979 117.475 208.094 117.13 208.324C116.325 208.783 115.75 209.817 115.291 211.426C115.176 211.54 114.946 211.54 114.831 211.54C114.601 211.54 114.486 211.426 114.486 211.311C114.716 210.392 115.061 209.588 115.521 208.898C115.98 208.094 116.555 207.405 117.245 207.06C117.934 206.716 118.394 206.601 118.854 206.83C119.314 207.06 119.544 207.749 119.429 208.669C119.429 209.473 119.084 210.507 118.509 211.54C117.934 212.574 117.245 213.723 116.67 214.872C116.095 215.906 115.865 216.71 115.635 217.284L119.084 215.217C119.199 215.217 119.199 215.446 119.199 215.561Z" fill="white"/>
<path d="M126.555 206.486C126.44 208.094 126.211 209.587 125.751 210.851C125.176 212.229 124.486 213.148 123.567 213.723C122.647 214.297 121.958 214.182 121.613 213.378C121.268 212.689 121.038 211.54 121.153 209.817C121.268 208.209 121.498 206.715 121.958 205.452C122.532 204.073 123.222 203.154 124.142 202.58C125.061 202.005 125.751 202.12 126.211 202.924C126.44 203.728 126.555 204.877 126.555 206.486ZM125.521 207.175C125.521 205.911 125.521 204.877 125.291 204.303C125.061 203.614 124.601 203.499 124.027 203.843C123.452 204.188 122.992 204.877 122.647 205.911C122.302 206.83 122.187 207.979 122.073 209.243C122.073 210.506 122.073 211.425 122.302 212.115C122.532 212.804 122.992 212.919 123.567 212.574C124.142 212.229 124.601 211.54 124.946 210.506C125.291 209.587 125.521 208.438 125.521 207.175Z" fill="white"/>
<path d="M148.394 199.477C148.394 199.822 148.394 200.051 148.279 200.166L143.566 203.038C143.566 201.774 144.141 200.051 145.291 198.098C145.75 197.179 146.325 196.26 146.785 195.341C147.245 194.307 147.589 193.503 147.589 192.929C147.589 192.354 147.475 192.01 147.245 191.895C147.015 191.78 146.67 191.895 146.325 192.125C145.52 192.584 144.946 193.618 144.486 195.226C144.371 195.341 144.141 195.341 144.026 195.341C143.796 195.341 143.681 195.226 143.681 195.112C143.911 194.192 144.256 193.388 144.716 192.699C145.176 191.895 145.75 191.206 146.44 190.861C147.13 190.516 147.589 190.402 148.049 190.631C148.509 190.861 148.739 191.55 148.624 192.469C148.624 193.273 148.279 194.307 147.704 195.341C147.13 196.375 146.44 197.524 145.865 198.673C145.291 199.592 144.946 200.511 144.831 201.085L148.279 199.017C148.394 199.132 148.394 199.362 148.394 199.477Z" fill="white"/>
<path d="M155.751 190.402C155.636 192.01 155.406 193.503 154.946 194.767C154.371 196.145 153.682 197.065 152.762 197.639C151.843 198.213 151.153 198.098 150.808 197.294C150.463 196.605 150.233 195.456 150.348 193.733C150.463 192.125 150.693 190.631 151.153 189.368C151.728 187.989 152.417 187.07 153.337 186.496C154.256 185.921 154.946 186.036 155.406 186.84C155.636 187.644 155.751 188.793 155.751 190.402ZM154.716 191.091C154.831 189.827 154.716 188.793 154.486 188.219C154.256 187.53 153.797 187.415 153.222 187.759C152.647 188.104 152.187 188.793 151.843 189.827C151.498 190.746 151.383 191.895 151.268 193.159C151.268 194.422 151.268 195.456 151.498 196.031C151.728 196.72 152.187 196.835 152.762 196.49C153.337 196.145 153.797 195.456 154.141 194.422C154.486 193.388 154.716 192.355 154.716 191.091Z" fill="white"/>
<path d="M161.843 191.206C161.843 191.55 161.843 191.78 161.728 191.895L157.016 194.767C157.016 193.503 157.59 191.78 158.74 189.827C159.2 188.908 159.774 187.989 160.234 187.185C160.694 186.151 161.039 185.347 161.039 184.773C161.039 184.198 160.924 183.854 160.694 183.739C160.464 183.624 160.119 183.739 159.774 183.968C158.97 184.428 158.395 185.462 157.935 187.07C157.82 187.185 157.59 187.185 157.475 187.185C157.246 187.185 157.131 187.07 157.131 186.955C157.36 186.036 157.705 185.232 158.165 184.543C158.625 183.739 159.2 183.049 159.889 182.705C160.579 182.36 161.039 182.245 161.498 182.475C161.958 182.705 162.188 183.394 162.073 184.313C162.073 185.117 161.728 186.151 161.154 187.185C160.579 188.219 159.889 189.368 159.315 190.402C158.74 191.436 158.51 192.24 158.28 192.814L161.728 190.631C161.843 190.861 161.843 191.091 161.843 191.206Z" fill="white"/>
<path d="M166.785 188.794C166.67 188.909 166.44 189.138 166.325 189.253C166.21 189.253 166.096 189.368 165.866 189.483L166.211 180.752L165.061 182.935C164.946 182.935 164.831 182.935 164.716 182.82C164.601 182.705 164.486 182.59 164.486 182.475L166.44 178.914C166.555 178.799 166.67 178.684 166.9 178.57C167.13 178.455 167.245 178.34 167.36 178.34L166.785 188.794Z" fill="white"/>
<g opacity="0.5">
<path opacity="0.5" d="M155.175 41.4059C145.29 44.6225 145.06 54.0425 144.715 64.8411C144.485 73.1123 144.255 81.7282 139.658 88.506C134.485 94.8243 129.772 95.7433 123.68 97.007C120.807 97.5814 117.588 98.2707 114.025 99.6492C108.622 101.717 106.898 105.163 105.059 108.725C103.45 111.941 101.726 115.388 97.1279 117.455C90.1162 119.983 86.438 119.064 82.7598 118.03C79.8861 117.226 77.1274 116.536 72.7595 117.455C61.9547 120.212 60.5753 130.551 58.9661 142.499C58.1615 147.898 57.4718 153.527 55.7477 158.812C50.92 168.576 42.414 173.631 32.1839 172.712C17.7008 172.712 8.39027 197.296 4.36719 211.081V221.88C4.36719 230.151 10.2294 233.597 17.4709 229.462L167.819 142.729C175.061 138.593 180.923 128.369 180.923 120.098V45.082C173.911 42.4398 164.716 39.1083 155.175 41.4059Z" fill="white"/>
</g>
<g opacity="0.5">
<path opacity="0.5" d="M32.0702 247.843V171.908H31.2656V248.302L32.0702 247.843Z" fill="url(#paint3_linear)"/>
<path opacity="0.5" d="M73.3356 224.062V116.766H72.416V224.521L73.3356 224.062Z" fill="url(#paint4_linear)"/>
<path opacity="0.5" d="M114.601 200.284V98.9609H113.682V200.743L114.601 200.284Z" fill="url(#paint5_linear)"/>
<path opacity="0.5" d="M155.867 176.388V40.7168H154.947V176.962L155.867 176.388Z" fill="url(#paint6_linear)"/>
</g>
<path d="M27.357 171.792C27.2421 174.09 28.9662 176.043 31.0352 176.043C33.1043 176.158 34.9434 174.32 34.9434 172.022C35.0583 169.724 33.3341 167.771 31.2651 167.771C29.1961 167.771 27.4719 169.495 27.357 171.792Z" fill="white"/>
<path d="M68.6226 116.651C68.5077 118.948 70.2319 120.901 72.3009 120.901C74.3699 121.016 76.209 119.178 76.209 116.881C76.3239 114.583 74.5998 112.63 72.5307 112.63C70.4617 112.515 68.7376 114.353 68.6226 116.651Z" fill="white"/>
<path d="M109.888 98.8442C109.773 101.142 111.497 103.095 113.566 103.095C115.636 103.21 117.475 101.372 117.475 99.074C117.59 96.7764 115.865 94.8235 113.796 94.8235C111.727 94.7086 110.003 96.5466 109.888 98.8442Z" fill="white"/>
<path d="M151.152 40.602C151.037 42.8996 152.761 44.8525 154.83 44.8525C156.899 44.9674 158.738 43.1293 158.738 40.8318C158.853 38.5342 157.129 36.5813 155.06 36.5813C152.991 36.4664 151.267 38.3045 151.152 40.602Z" fill="white"/>
<path opacity="0.9" d="M493.459 132.046L268.281 2.23324C262.074 -1.32799 248.396 0.624942 245.407 8.55154C247.246 10.5045 245.177 11.3086 246.671 13.4913C249.315 17.3972 247.936 21.9923 246.786 26.4726C246.327 27.966 245.752 29.3445 244.947 30.723C246.212 31.0677 247.476 31.6421 248.74 32.2165C256.557 35.6628 263.683 42.7853 267.132 50.597C269.201 55.1921 270.35 59.4426 268.971 64.4973C268.051 68.0585 265.982 71.1602 263.109 73.5726C267.017 78.5124 270.925 83.4522 275.063 88.1622C292.535 108.266 311.041 128.255 323.34 152.034C324.029 152.609 324.604 153.183 325.294 153.873C353.34 185.234 370.352 223.489 393.571 258.182C416.1 291.841 449.09 315.851 473.688 347.902C474.952 349.051 476.217 350.314 477.251 351.808C477.596 352.267 477.711 352.497 477.941 352.727C478.171 352.957 478.286 353.186 478.631 353.531C479.32 354.45 480.125 355.254 480.815 356.173C482.309 357.896 483.803 359.62 485.412 361.228C488.861 364.904 492.309 368.35 495.872 371.911C499.321 375.358 500.355 378.689 500.355 383.284C506.907 381.217 512.999 373.29 512.999 367.776V166.05C512.999 153.643 504.263 138.364 493.459 132.046Z" fill="url(#paint7_linear)"/>
<path d="M508.632 369.614C508.632 382.021 499.781 387.191 488.976 380.987L263.913 251.06C253.109 244.856 244.258 229.578 244.258 217.056V15.3297C244.258 2.92283 253.109 -2.2467 263.913 3.95672L488.976 133.884C499.781 140.087 508.632 155.366 508.632 167.888V369.614Z" fill="url(#paint8_linear)"/>
<path d="M508.632 176.733V167.887C508.632 155.48 499.781 140.202 488.976 133.883L263.913 4.07091C253.109 -2.13252 244.258 2.92212 244.258 15.4438V21.877L508.632 176.733Z" fill="white"/>
<path d="M244.258 217.055C244.258 229.462 253.109 244.74 263.913 251.059L488.976 380.986C499.781 387.189 508.632 382.135 508.632 369.613L244.258 217.055Z" fill="white"/>
<path d="M476.103 141.58C476.677 143.418 476.103 145.256 474.608 145.715C473.229 146.175 471.505 145.141 470.93 143.418C470.355 141.58 470.93 139.742 472.424 139.282C473.919 138.708 475.528 139.857 476.103 141.58Z" fill="url(#paint9_linear)"/>
<path d="M400.009 98.7301C400.009 100.568 398.63 101.372 397.021 100.453L363.227 80.924C361.618 80.005 360.238 77.7074 360.238 75.8694V71.0445C360.238 69.2064 361.618 68.4023 363.227 69.3213L397.021 88.8506C398.63 89.7696 400.009 92.0672 400.009 93.9053V98.7301Z" fill="url(#paint10_linear)"/>
<path opacity="0.9" d="M493.573 388.454C489.205 388.224 484.837 386.501 481.504 383.284L52.2988 340.205C53.3333 347.442 54.4828 353.99 58.6208 356.403L299.546 495.635C309.546 501.379 325.983 501.494 336.098 495.635L486.906 407.524C491.619 404.767 497.136 397.07 494.608 388.569C493.573 388.569 494.608 388.569 493.573 388.454Z" fill="url(#paint11_linear)"/>
<path d="M59.5412 351.233C49.541 345.489 49.541 335.954 59.5412 330.21L210.349 241.984C220.349 236.24 236.787 236.24 246.902 241.984L487.827 381.216C497.827 386.96 497.827 396.495 487.827 402.239L337.019 490.35C327.018 496.094 310.581 496.094 300.466 490.35L59.5412 351.233Z" fill="url(#paint12_linear)"/>
<path fill-rule="evenodd" clip-rule="evenodd" d="M230.926 268.407C231.845 268.866 231.845 269.785 230.926 270.245L219.661 276.793C218.741 277.252 217.362 277.252 216.443 276.793L205.178 270.245C204.258 269.785 204.258 268.866 205.178 268.407L216.443 261.974C217.362 261.514 218.741 261.514 219.661 261.974L230.926 268.407Z" fill="white"/>
<path fill-rule="evenodd" clip-rule="evenodd" d="M249.316 278.975C250.236 279.549 250.236 280.354 249.316 280.813L238.052 287.361C237.132 287.821 235.753 287.821 234.833 287.361L223.569 280.813C222.649 280.354 222.649 279.435 223.569 278.975L234.833 272.542C235.753 272.082 237.132 272.082 238.052 272.542L249.316 278.975Z" fill="white"/>
<path fill-rule="evenodd" clip-rule="evenodd" d="M267.594 289.545C268.513 290.005 268.513 290.924 267.594 291.383L256.329 297.931C255.409 298.506 254.03 298.506 253.111 297.931L241.846 291.383C240.926 290.924 240.926 290.005 241.846 289.545L253.111 282.997C254.03 282.537 255.409 282.537 256.329 282.997L267.594 289.545Z" fill="white"/>
<path fill-rule="evenodd" clip-rule="evenodd" d="M285.984 300.457C286.904 300.917 286.904 301.836 285.984 302.296L274.72 308.844C273.8 309.303 272.421 309.303 271.501 308.844L260.237 302.296C259.317 301.721 259.317 300.917 260.237 300.457L271.501 294.024C272.421 293.565 273.8 293.565 274.72 294.024L285.984 300.457Z" fill="white"/>
<path fill-rule="evenodd" clip-rule="evenodd" d="M304.262 310.797C305.181 311.257 305.181 312.176 304.262 312.635L292.997 319.183C292.077 319.758 290.698 319.758 289.779 319.183L278.514 312.635C277.594 312.176 277.594 311.257 278.514 310.797L289.779 304.364C290.698 303.905 292.077 303.905 292.997 304.364L304.262 310.797Z" fill="white"/>
<path fill-rule="evenodd" clip-rule="evenodd" d="M322.883 321.481C323.802 321.94 323.802 322.859 322.883 323.319L311.618 329.867C310.699 330.326 309.319 330.326 308.4 329.867L297.135 323.319C296.215 322.859 296.215 321.94 297.135 321.481L308.4 315.048C309.319 314.588 310.699 314.588 311.618 315.048L322.883 321.481Z" fill="white"/>
<path fill-rule="evenodd" clip-rule="evenodd" d="M341.273 332.049C342.193 332.509 342.193 333.428 341.273 333.887L330.009 340.435C329.089 340.895 327.71 340.895 326.79 340.435L315.526 333.887C314.606 333.313 314.606 332.509 315.526 332.049L326.79 325.616C327.71 325.157 329.089 325.157 330.009 325.616L341.273 332.049Z" fill="white"/>
<path fill-rule="evenodd" clip-rule="evenodd" d="M359.666 342.618C360.585 343.077 360.585 343.996 359.666 344.456L348.401 351.004C347.482 351.463 346.102 351.578 345.183 351.004L333.918 344.456C332.999 343.996 332.999 343.077 333.918 342.618L345.183 336.184C346.102 335.725 347.482 335.725 348.401 336.184L359.666 342.618Z" fill="white"/>
<path fill-rule="evenodd" clip-rule="evenodd" d="M377.941 353.532C378.861 353.991 378.861 354.91 377.941 355.37L366.677 361.918C365.757 362.377 364.378 362.377 363.458 361.918L352.194 355.37C351.274 354.91 351.274 353.991 352.194 353.532L363.458 347.099C364.378 346.639 365.757 346.639 366.677 347.099L377.941 353.532Z" fill="white"/>
<path fill-rule="evenodd" clip-rule="evenodd" d="M396.332 363.872C397.251 364.331 397.251 365.25 396.332 365.71L385.067 372.258C384.148 372.717 382.768 372.717 381.849 372.258L370.584 365.71C369.665 365.25 369.665 364.331 370.584 363.872L381.849 357.438C382.768 356.979 384.148 356.979 385.067 357.438L396.332 363.872Z" fill="white"/>
<path fill-rule="evenodd" clip-rule="evenodd" d="M415.412 375.014C416.332 375.473 416.332 376.392 415.412 376.852L404.147 383.4C403.228 383.859 401.848 383.859 400.929 383.4L389.664 376.852C388.745 376.392 388.745 375.473 389.664 375.014L400.929 368.466C401.848 368.006 403.228 368.006 404.147 368.466L415.412 375.014Z" fill="white"/>
<path fill-rule="evenodd" clip-rule="evenodd" d="M433.803 385.582C434.722 386.042 434.722 386.961 433.803 387.421L422.538 393.969C421.618 394.428 420.239 394.428 419.32 393.969L408.055 387.421C407.135 386.961 407.135 386.042 408.055 385.582L419.32 379.149C420.239 378.69 421.618 378.69 422.538 379.149L433.803 385.582Z" fill="white"/>
<path fill-rule="evenodd" clip-rule="evenodd" d="M452.08 396.151C453 396.61 453 397.529 452.08 397.989L440.815 404.537C439.896 404.996 438.516 405.111 437.597 404.537L426.332 397.989C425.413 397.529 425.413 396.61 426.332 396.151L437.597 389.718C438.516 389.258 439.896 389.258 440.815 389.718L452.08 396.151Z" fill="white"/>
<path fill-rule="evenodd" clip-rule="evenodd" d="M202.764 283.57C203.683 284.03 203.683 284.949 202.764 285.408L191.499 291.957C190.579 292.531 189.2 292.531 188.28 291.957L177.016 285.408C176.096 284.949 176.096 284.03 177.016 283.57L188.28 277.022C189.2 276.563 190.579 276.563 191.499 277.022L202.764 283.57Z" fill="white"/>
<path fill-rule="evenodd" clip-rule="evenodd" d="M221.154 294.139C222.074 294.598 222.074 295.517 221.154 295.977L209.89 302.525C208.97 302.984 207.591 302.984 206.671 302.525L195.406 295.977C194.487 295.517 194.487 294.598 195.406 294.139L206.671 287.591C207.591 287.131 208.97 287.131 209.89 287.591L221.154 294.139Z" fill="white"/>
<path fill-rule="evenodd" clip-rule="evenodd" d="M239.432 304.708C240.351 305.167 240.351 306.086 239.432 306.546L228.167 313.094C227.247 313.553 225.868 313.553 224.948 313.094L213.684 306.546C212.764 305.971 212.764 305.167 213.684 304.708L224.948 298.274C225.868 297.815 227.247 297.815 228.167 298.274L239.432 304.708Z" fill="white"/>
<path fill-rule="evenodd" clip-rule="evenodd" d="M257.822 315.622C258.742 316.081 258.742 317 257.822 317.46L246.558 324.008C245.638 324.467 244.259 324.467 243.339 324.008L232.074 317.46C231.155 317 231.155 316.081 232.074 315.622L243.339 309.188C244.259 308.729 245.638 308.729 246.558 309.188L257.822 315.622Z" fill="white"/>
<path fill-rule="evenodd" clip-rule="evenodd" d="M276.098 325.961C277.017 326.421 277.017 327.34 276.098 327.799L264.833 334.348C263.913 334.807 262.534 334.807 261.614 334.348L250.35 327.799C249.43 327.34 249.43 326.421 250.35 325.961L261.614 319.528C262.534 319.069 263.913 319.069 264.833 319.528L276.098 325.961Z" fill="white"/>
<path fill-rule="evenodd" clip-rule="evenodd" d="M294.721 336.645C295.64 337.104 295.64 338.024 294.721 338.483L283.456 345.031C282.536 345.491 281.157 345.606 280.237 345.031L268.973 338.483C268.053 338.024 268.053 337.104 268.973 336.645L280.237 330.212C281.157 329.752 282.536 329.752 283.456 330.212L294.721 336.645Z" fill="white"/>
<path fill-rule="evenodd" clip-rule="evenodd" d="M313.111 347.213C314.031 347.673 314.031 348.592 313.111 349.051L301.847 355.599C300.927 356.059 299.548 356.059 298.628 355.599L287.363 349.051C286.444 348.592 286.444 347.673 287.363 347.213L298.628 340.78C299.548 340.321 300.927 340.321 301.847 340.78L313.111 347.213Z" fill="white"/>
<path fill-rule="evenodd" clip-rule="evenodd" d="M331.504 357.782C332.423 358.241 332.423 359.16 331.504 359.62L320.239 366.168C319.32 366.627 317.94 366.627 317.021 366.168L305.756 359.62C304.837 359.045 304.837 358.241 305.756 357.782L317.021 351.349C317.94 350.889 319.32 350.889 320.239 351.349L331.504 357.782Z" fill="white"/>
<path fill-rule="evenodd" clip-rule="evenodd" d="M349.779 368.696C350.699 369.155 350.699 370.074 349.779 370.534L338.515 377.082C337.595 377.541 336.216 377.541 335.296 377.082L324.031 370.534C323.112 370.074 323.112 369.155 324.031 368.696L335.296 362.263C336.216 361.803 337.595 361.803 338.515 362.263L349.779 368.696Z" fill="white"/>
<path fill-rule="evenodd" clip-rule="evenodd" d="M368.17 379.036C369.089 379.495 369.089 380.414 368.17 380.874L356.905 387.422C355.986 387.881 354.606 387.881 353.687 387.422L342.422 380.874C341.503 380.414 341.503 379.495 342.422 379.036L353.687 372.602C354.606 372.143 355.986 372.143 356.905 372.602L368.17 379.036Z" fill="white"/>
<path fill-rule="evenodd" clip-rule="evenodd" d="M387.25 390.178C388.169 390.638 388.169 391.557 387.25 392.016L375.985 398.564C375.066 399.024 373.686 399.139 372.767 398.564L361.502 392.016C360.583 391.557 360.583 390.638 361.502 390.178L372.767 383.745C373.686 383.286 375.066 383.286 375.985 383.745L387.25 390.178Z" fill="white"/>
<path fill-rule="evenodd" clip-rule="evenodd" d="M405.64 400.747C406.56 401.206 406.56 402.125 405.64 402.585L394.376 409.133C393.456 409.592 392.077 409.592 391.157 409.133L379.893 402.585C378.973 402.125 378.973 401.206 379.893 400.747L391.157 394.313C392.077 393.854 393.456 393.854 394.376 394.313L405.64 400.747Z" fill="white"/>
<path fill-rule="evenodd" clip-rule="evenodd" d="M423.918 411.315C424.837 411.774 424.837 412.693 423.918 413.153L412.653 419.701C411.734 420.161 410.354 420.161 409.435 419.701L398.17 413.153C397.251 412.693 397.251 411.774 398.17 411.315L409.435 404.882C410.354 404.422 411.734 404.422 412.653 404.882L423.918 411.315Z" fill="white"/>
<path fill-rule="evenodd" clip-rule="evenodd" d="M179.66 298.735C180.58 299.194 180.58 300.113 179.66 300.573L168.395 307.121C167.476 307.58 166.097 307.695 165.177 307.121L153.912 300.573C152.993 300.113 152.993 299.194 153.912 298.735L165.177 292.186C166.097 291.727 167.476 291.727 168.395 292.186L179.66 298.735Z" fill="white"/>
<path fill-rule="evenodd" clip-rule="evenodd" d="M198.051 309.303C198.97 309.763 198.97 310.682 198.051 311.141L186.786 317.689C185.866 318.149 184.487 318.264 183.568 317.689L172.303 311.141C171.383 310.682 171.383 309.763 172.303 309.303L183.568 302.87C184.487 302.411 185.866 302.411 186.786 302.87L198.051 309.303Z" fill="white"/>
<path fill-rule="evenodd" clip-rule="evenodd" d="M216.328 319.872C217.248 320.331 217.248 321.25 216.328 321.71L205.063 328.258C204.144 328.717 202.764 328.717 201.845 328.258L190.58 321.71C189.661 321.25 189.661 320.331 190.58 319.872L201.845 313.438C202.764 312.979 204.144 312.979 205.063 313.438L216.328 319.872Z" fill="white"/>
<path fill-rule="evenodd" clip-rule="evenodd" d="M234.719 330.785C235.638 331.245 235.638 332.164 234.719 332.623L223.454 339.171C222.534 339.746 221.155 339.746 220.236 339.171L208.971 332.623C208.051 332.164 208.051 331.245 208.971 330.785L220.236 324.237C221.155 323.778 222.534 323.778 223.454 324.237L234.719 330.785Z" fill="white"/>
<path fill-rule="evenodd" clip-rule="evenodd" d="M252.996 341.125C253.916 341.585 253.916 342.504 252.996 342.963L241.731 349.511C240.812 349.971 239.432 349.971 238.513 349.511L227.248 342.963C226.329 342.504 226.329 341.585 227.248 341.125L238.513 334.577C239.432 334.118 240.812 334.118 241.731 334.577L252.996 341.125Z" fill="white"/>
<path fill-rule="evenodd" clip-rule="evenodd" d="M271.73 351.694C272.65 352.153 272.65 353.072 271.73 353.532L260.466 360.08C259.546 360.539 258.167 360.539 257.247 360.08L245.983 353.532C245.063 352.957 245.063 352.153 245.983 351.694L257.247 345.261C258.167 344.801 259.546 344.801 260.466 345.261L271.73 351.694Z" fill="white"/>
<path fill-rule="evenodd" clip-rule="evenodd" d="M290.006 362.377C290.925 362.952 290.925 363.756 290.006 364.215L278.741 370.764C277.822 371.223 276.442 371.223 275.523 370.764L264.258 364.215C263.338 363.756 263.338 362.837 264.258 362.377L275.523 355.944C276.442 355.485 277.822 355.485 278.741 355.944L290.006 362.377Z" fill="white"/>
<path fill-rule="evenodd" clip-rule="evenodd" d="M308.398 372.946C309.318 373.405 309.318 374.324 308.398 374.784L297.134 381.332C296.214 381.791 294.835 381.906 293.915 381.332L282.651 374.784C281.731 374.324 281.731 373.405 282.651 372.946L293.915 366.513C294.835 366.053 296.214 366.053 297.134 366.513L308.398 372.946Z" fill="white"/>
<path fill-rule="evenodd" clip-rule="evenodd" d="M326.674 383.86C327.593 384.319 327.593 385.238 326.674 385.698L315.409 392.246C314.489 392.705 313.11 392.705 312.191 392.246L300.926 385.698C300.006 385.123 300.006 384.319 300.926 383.86L312.191 377.427C313.11 376.967 314.489 376.967 315.409 377.427L326.674 383.86Z" fill="white"/>
<path fill-rule="evenodd" clip-rule="evenodd" d="M345.064 394.2C345.984 394.659 345.984 395.578 345.064 396.038L333.8 402.586C332.88 403.16 331.501 403.16 330.581 402.586L319.317 396.038C318.397 395.578 318.397 394.659 319.317 394.2L330.581 387.767C331.501 387.307 332.88 387.307 333.8 387.767L345.064 394.2Z" fill="white"/>
<path fill-rule="evenodd" clip-rule="evenodd" d="M364.146 405.342C365.066 405.801 365.066 406.72 364.146 407.18L352.882 413.728C351.962 414.188 350.583 414.188 349.663 413.728L338.399 407.18C337.479 406.72 337.479 405.801 338.399 405.342L349.663 398.794C350.583 398.334 351.962 398.334 352.882 398.794L364.146 405.342Z" fill="white"/>
<path fill-rule="evenodd" clip-rule="evenodd" d="M382.537 415.911C383.457 416.485 383.457 417.289 382.537 417.749L371.272 424.297C370.353 424.756 368.973 424.756 368.054 424.297L356.789 417.749C355.87 417.289 355.87 416.37 356.789 415.911L368.054 409.477C368.973 409.018 370.353 409.018 371.272 409.477L382.537 415.911Z" fill="white"/>
<path fill-rule="evenodd" clip-rule="evenodd" d="M400.814 426.479C401.734 426.938 401.734 427.857 400.814 428.317L389.55 434.865C388.63 435.324 387.251 435.439 386.331 434.865L375.067 428.317C374.147 427.857 374.147 426.938 375.067 426.479L386.331 420.046C387.251 419.586 388.63 419.586 389.55 420.046L400.814 426.479Z" fill="white"/>
<path fill-rule="evenodd" clip-rule="evenodd" d="M151.383 313.899C152.302 314.358 152.302 315.277 151.383 315.737L140.118 322.285C139.199 322.744 137.819 322.744 136.9 322.285L125.635 315.737C124.715 315.277 124.715 314.358 125.635 313.899L136.9 307.35C137.819 306.891 139.199 306.891 140.118 307.35L151.383 313.899Z" fill="white"/>
<path fill-rule="evenodd" clip-rule="evenodd" d="M169.773 324.467C170.693 325.042 170.693 325.846 169.773 326.305L158.509 332.853C157.589 333.313 156.21 333.313 155.29 332.853L144.026 326.305C143.106 325.846 143.106 324.927 144.026 324.467L155.29 318.034C156.21 317.575 157.589 317.575 158.509 318.034L169.773 324.467Z" fill="white"/>
<path fill-rule="evenodd" clip-rule="evenodd" d="M188.051 335.035C188.97 335.495 188.97 336.414 188.051 336.873L176.786 343.421C175.866 343.996 174.487 343.996 173.568 343.421L162.303 336.873C161.383 336.414 161.383 335.495 162.303 335.035L173.568 328.487C174.487 328.028 175.866 328.028 176.786 328.487L188.051 335.035Z" fill="white"/>
<path fill-rule="evenodd" clip-rule="evenodd" d="M206.441 345.95C207.361 346.409 207.361 347.328 206.441 347.788L195.177 354.336C194.257 354.795 192.878 354.795 191.958 354.336L180.694 347.788C179.774 347.328 179.774 346.409 180.694 345.95L191.958 339.517C192.878 339.057 194.257 339.057 195.177 339.517L206.441 345.95Z" fill="white"/>
<path fill-rule="evenodd" clip-rule="evenodd" d="M298.396 399.024L225.061 356.519C224.947 356.404 224.832 356.404 224.717 356.29L213.452 349.856C212.532 349.397 211.153 349.397 210.234 349.856L198.969 356.29C198.049 356.749 198.049 357.668 198.969 358.128L204.716 361.459L283.913 407.41C284.833 407.87 286.212 407.87 287.132 407.41L298.396 400.862C299.316 400.403 299.316 399.599 298.396 399.024Z" fill="white"/>
<path fill-rule="evenodd" clip-rule="evenodd" d="M316.787 409.364C317.707 409.823 317.707 410.742 316.787 411.202L305.522 417.75C304.603 418.209 303.223 418.209 302.304 417.75L291.039 411.202C290.12 410.742 290.12 409.823 291.039 409.364L302.304 402.931C303.223 402.471 304.603 402.471 305.522 402.931L316.787 409.364Z" fill="white"/>
<path fill-rule="evenodd" clip-rule="evenodd" d="M335.984 420.506C336.904 420.965 336.904 421.884 335.984 422.344L324.72 428.892C323.8 429.351 322.421 429.466 321.501 428.892L310.237 422.344C309.317 421.884 309.317 420.965 310.237 420.506L321.501 413.958C322.421 413.498 323.8 413.498 324.72 413.958L335.984 420.506Z" fill="white"/>
<path fill-rule="evenodd" clip-rule="evenodd" d="M354.26 431.075C355.179 431.534 355.179 432.453 354.26 432.913L342.995 439.461C342.075 439.92 340.696 439.92 339.777 439.461L328.512 432.913C327.592 432.453 327.592 431.534 328.512 431.075L339.777 424.642C340.696 424.182 342.075 424.182 342.995 424.642L354.26 431.075Z" fill="white"/>
<path fill-rule="evenodd" clip-rule="evenodd" d="M372.652 441.643C373.572 442.103 373.572 443.021 372.652 443.481L361.388 450.029C360.468 450.489 359.089 450.489 358.169 450.029L346.905 443.481C345.985 443.021 345.985 442.103 346.905 441.643L358.169 435.21C359.089 434.75 360.468 434.75 361.388 435.21L372.652 441.643Z" fill="white"/>
<path fill-rule="evenodd" clip-rule="evenodd" d="M259.201 410.281C261.5 411.544 261.5 413.727 259.201 415.106L230.464 431.878C228.166 433.142 224.487 433.142 222.188 431.878L162.187 397.414C159.888 396.151 159.888 393.968 162.187 392.589L191.038 375.932C193.337 374.668 197.015 374.668 199.314 375.932L259.201 410.281Z" fill="white"/>
<path fill-rule="evenodd" clip-rule="evenodd" d="M290.236 183.281C290.236 184.314 289.662 185.348 288.282 186.153L254.833 205.567C252.19 207.06 247.822 207.06 245.178 205.567L211.499 186.038C210.12 185.234 209.545 184.314 209.545 183.281C209.545 182.247 209.66 157.778 209.66 157.778C212.304 156.284 287.593 156.973 290.236 158.582C290.236 158.697 290.121 182.362 290.236 183.281Z" fill="url(#paint13_linear)"/>
<path fill-rule="evenodd" clip-rule="evenodd" d="M288.282 155.365C290.925 156.858 290.925 159.386 288.282 160.994L254.833 180.408C252.189 181.902 247.821 181.902 245.177 180.408L211.498 160.879C208.855 159.386 208.855 156.858 211.498 155.365L245.062 136.065C247.706 134.572 252.074 134.572 254.718 136.065L288.282 155.365Z" fill="url(#paint14_linear)"/>
<path fill-rule="evenodd" clip-rule="evenodd" d="M354.49 219.926C354.49 220.96 353.916 221.994 352.536 222.798L319.087 242.213C316.443 243.706 312.076 243.706 309.432 242.213L275.753 222.683C274.374 221.879 273.799 220.96 273.799 219.926C273.799 218.892 273.799 154.101 273.799 154.101C276.443 152.607 351.847 152.378 354.49 153.871C354.49 153.871 354.375 218.892 354.49 219.926Z" fill="url(#paint15_linear)"/>
<path fill-rule="evenodd" clip-rule="evenodd" d="M352.42 151.343C355.064 152.837 355.064 155.364 352.42 156.972L318.971 176.387C316.328 177.88 311.96 177.88 309.316 176.387L275.637 156.858C272.993 155.364 272.993 152.837 275.637 151.343L309.201 132.044C311.845 130.55 316.213 130.55 318.856 132.044L352.42 151.343Z" fill="url(#paint16_linear)"/>
<path fill-rule="evenodd" clip-rule="evenodd" d="M418.631 256.573C418.631 257.607 418.056 258.641 416.677 259.445L383.228 278.859C380.584 280.353 376.216 280.353 373.572 278.859L339.894 259.33C338.629 258.526 337.939 257.607 337.939 256.573C337.939 255.539 338.054 156.284 338.054 156.284C340.698 154.791 415.987 154.906 418.631 156.514C418.631 156.629 418.631 255.654 418.631 256.573Z" fill="url(#paint17_linear)"/>
<path fill-rule="evenodd" clip-rule="evenodd" d="M416.676 153.986C419.32 155.479 419.32 158.007 416.676 159.615L383.227 179.029C380.583 180.523 376.216 180.523 373.572 179.029L339.893 159.5C337.249 158.007 337.249 155.479 339.893 153.986L373.572 134.686C376.216 133.193 380.583 133.193 383.227 134.686L416.676 153.986Z" fill="url(#paint18_linear)"/>
<path fill-rule="evenodd" clip-rule="evenodd" d="M482.885 294.596C482.885 295.63 482.31 296.664 480.931 297.468L447.482 316.882C444.838 318.376 440.47 318.376 437.826 316.882L404.147 297.353C402.768 296.549 402.193 295.63 402.193 294.596C402.193 293.562 402.193 228.771 402.193 228.771C404.837 227.277 480.241 227.048 482.885 228.541C482.885 228.656 482.885 293.677 482.885 294.596Z" fill="url(#paint19_linear)"/>
<path fill-rule="evenodd" clip-rule="evenodd" d="M480.93 226.129C483.574 227.622 483.574 230.149 480.93 231.758L447.481 251.172C444.837 252.665 440.47 252.665 437.826 251.172L404.147 231.643C401.503 230.149 401.503 227.622 404.147 226.129L437.711 206.829C440.355 205.336 444.723 205.336 447.366 206.829L480.93 226.129Z" fill="url(#paint20_linear)"/>
<defs>
<linearGradient id="paint0_linear" x1="117.227" y1="137.775" x2="10.2446" y2="54.6335" gradientUnits="userSpaceOnUse">
<stop stop-color="#E55E16"/>
<stop offset="0.5645" stop-color="#E30D3B"/>
<stop offset="1" stop-color="#89106A"/>
</linearGradient>
<linearGradient id="paint1_linear" x1="0.231117" y1="57.5331" x2="193.606" y2="184.617" gradientUnits="userSpaceOnUse">
<stop stop-color="#E55E16"/>
<stop offset="0.5645" stop-color="#E30D3B"/>
<stop offset="1" stop-color="#89106A"/>
</linearGradient>
<linearGradient id="paint2_linear" x1="1.15292" y1="125.119" x2="221.174" y2="125.119" gradientUnits="userSpaceOnUse">
<stop stop-color="#F3B4D0"/>
<stop offset="0.5" stop-color="#817DB5"/>
<stop offset="0.8387" stop-color="#2A96CF"/>
<stop offset="1" stop-color="#01A2DB"/>
</linearGradient>
<linearGradient id="paint3_linear" x1="31.2131" y1="210.136" x2="32.0549" y2="210.136" gradientUnits="userSpaceOnUse">
<stop stop-color="#E55E16"/>
<stop offset="0.5645" stop-color="#E30D3B"/>
<stop offset="1" stop-color="#89106A"/>
</linearGradient>
<linearGradient id="paint4_linear" x1="72.4721" y1="170.625" x2="73.314" y2="170.625" gradientUnits="userSpaceOnUse">
<stop stop-color="#E55E16"/>
<stop offset="0.5645" stop-color="#E30D3B"/>
<stop offset="1" stop-color="#89106A"/>
</linearGradient>
<linearGradient id="paint5_linear" x1="113.734" y1="149.834" x2="114.573" y2="149.834" gradientUnits="userSpaceOnUse">
<stop stop-color="#E55E16"/>
<stop offset="0.5645" stop-color="#E30D3B"/>
<stop offset="1" stop-color="#89106A"/>
</linearGradient>
<linearGradient id="paint6_linear" x1="154.993" y1="108.817" x2="155.833" y2="108.817" gradientUnits="userSpaceOnUse">
<stop stop-color="#E55E16"/>
<stop offset="0.5645" stop-color="#E30D3B"/>
<stop offset="1" stop-color="#89106A"/>
</linearGradient>
<linearGradient id="paint7_linear" x1="112.559" y1="287.783" x2="623.531" y2="103.324" gradientUnits="userSpaceOnUse">
<stop stop-color="#E55E16"/>
<stop offset="0.5645" stop-color="#E30D3B"/>
<stop offset="1" stop-color="#89106A"/>
</linearGradient>
<linearGradient id="paint8_linear" x1="380.224" y1="52.0897" x2="372.575" y2="336.758" gradientUnits="userSpaceOnUse">
<stop stop-color="#E55E16"/>
<stop offset="0.5645" stop-color="#E30D3B"/>
<stop offset="1" stop-color="#89106A"/>
</linearGradient>
<linearGradient id="paint9_linear" x1="470.749" y1="142.472" x2="476.375" y2="142.472" gradientUnits="userSpaceOnUse">
<stop stop-color="#E55E16"/>
<stop offset="0.5645" stop-color="#E30D3B"/>
<stop offset="1" stop-color="#89106A"/>
</linearGradient>
<linearGradient id="paint10_linear" x1="360.326" y1="84.9081" x2="400.057" y2="84.9081" gradientUnits="userSpaceOnUse">
<stop stop-color="#E55E16"/>
<stop offset="0.5645" stop-color="#E30D3B"/>
<stop offset="1" stop-color="#89106A"/>
</linearGradient>
<linearGradient id="paint11_linear" x1="328.703" y1="317.916" x2="122.434" y2="514.03" gradientUnits="userSpaceOnUse">
<stop stop-color="#E55E16"/>
<stop offset="0.5645" stop-color="#E30D3B"/>
<stop offset="1" stop-color="#89106A"/>
</linearGradient>
<linearGradient id="paint12_linear" x1="52.0261" y1="366.195" x2="495.322" y2="366.195" gradientUnits="userSpaceOnUse">
<stop stop-color="#E55E16"/>
<stop offset="0.5645" stop-color="#E30D3B"/>
<stop offset="1" stop-color="#89106A"/>
</linearGradient>
<linearGradient id="paint13_linear" x1="300.644" y1="182.961" x2="206.122" y2="181.143" gradientUnits="userSpaceOnUse">
<stop stop-color="white"/>
<stop offset="1" stop-color="#8C8C8C"/>
</linearGradient>
<linearGradient id="paint14_linear" x1="209.559" y1="158.191" x2="290.272" y2="158.191" gradientUnits="userSpaceOnUse">
<stop stop-color="white"/>
<stop offset="1" stop-color="#8C8C8C"/>
</linearGradient>
<linearGradient id="paint15_linear" x1="365.414" y1="198.987" x2="269.887" y2="197.149" gradientUnits="userSpaceOnUse">
<stop stop-color="white"/>
<stop offset="1" stop-color="#8C8C8C"/>
</linearGradient>
<linearGradient id="paint16_linear" x1="273.739" y1="154.202" x2="354.453" y2="154.202" gradientUnits="userSpaceOnUse">
<stop stop-color="white"/>
<stop offset="1" stop-color="#8C8C8C"/>
</linearGradient>
<linearGradient id="paint17_linear" x1="337.921" y1="217.788" x2="418.635" y2="217.788" gradientUnits="userSpaceOnUse">
<stop stop-color="white"/>
<stop offset="1" stop-color="#8C8C8C"/>
</linearGradient>
<linearGradient id="paint18_linear" x1="338.003" y1="156.867" x2="418.717" y2="156.867" gradientUnits="userSpaceOnUse">
<stop offset="0.00537634" stop-color="#8C8C8C"/>
<stop offset="1" stop-color="white"/>
</linearGradient>
<linearGradient id="paint19_linear" x1="493.856" y1="273.73" x2="398.331" y2="271.893" gradientUnits="userSpaceOnUse">
<stop stop-color="white"/>
<stop offset="1" stop-color="#8C8C8C"/>
</linearGradient>
<linearGradient id="paint20_linear" x1="402.185" y1="228.945" x2="482.896" y2="228.945" gradientUnits="userSpaceOnUse">
<stop stop-color="white"/>
<stop offset="1" stop-color="#8C8C8C"/>
</linearGradient>
</defs>
</svg>
