<svg class="svg1" viewBox="0 0 517 610" fill="none" xmlns="http://www.w3.org/2000/svg"><g id="anim1"><g id="Frame" clip-path="url(#clip0)"><g id="paper"><g id="Group"><path id="Vector" d="M248.104 554.088L373.701 480.518L470.076 536.431L344.479 610.001L248.104 554.088Z" fill="url(#paint0_linear)"/><path id="Vector_2" d="M248.104 554.088L373.701 480.518L470.076 536.431L344.479 610.001L248.104 554.088Z" fill="url(#paint1_linear)"/></g><g id="Group_2"><path id="Vector_3" d="M283.226 563.056L274.234 557.872L305.985 539.654L314.836 544.839L283.226 563.056Z" fill="url(#paint2_linear)"/><path id="Vector_4" d="M297.978 571.885L288.986 566.7L351.223 530.826L360.214 536.011L297.978 571.885Z" fill="url(#paint3_linear)"/><path id="Vector_5" d="M313.149 580.293L304.158 575.108L364.147 540.635L373.138 545.82L313.149 580.293Z" fill="url(#paint4_linear)"/><path id="Vector_6" d="M328.183 588.841L319.191 583.656L392.667 541.336L401.659 546.521L328.183 588.841Z" fill="url(#paint5_linear)"/></g></g><g id="calc"><g id="Group_3"><path id="Vector_7" opacity="0.9" d="M305.705 483.599C303.176 483.458 300.507 482.477 298.68 480.516L171.959 503.077C172.521 507.421 173.223 511.205 175.752 512.606L213.403 534.467C219.304 537.83 228.998 537.83 234.898 534.467L301.771 494.669C304.581 493.128 307.812 488.503 306.267 483.458C305.705 483.739 306.407 483.739 305.705 483.599Z" fill="url(#paint6_linear)"/><path id="Vector_8" d="M176.173 509.664C170.273 506.301 170.273 500.696 176.173 497.332L245.856 456.273C251.757 452.91 258.641 454.171 264.541 457.535L302.192 479.395C308.093 482.759 308.093 488.364 302.192 491.727L235.319 531.525C229.419 534.888 219.725 534.888 213.825 531.525L176.173 509.664Z" fill="url(#paint7_linear)"/></g><g id="Group_4"><g id="Group_5"><path id="Vector_9" fill-rule="evenodd" clip-rule="evenodd" d="M237.004 480.095C237.566 480.376 237.566 480.936 237.004 481.216L230.401 485C229.84 485.28 228.997 485.28 228.435 485L221.832 481.216C221.27 480.936 221.27 480.376 221.832 480.095L228.435 476.312C228.997 476.031 229.84 476.031 230.401 476.312L237.004 480.095Z" fill="white"/><path id="Vector_10" fill-rule="evenodd" clip-rule="evenodd" d="M247.821 486.261C248.383 486.542 248.383 487.102 247.821 487.382L241.218 491.166C240.656 491.446 239.813 491.446 239.251 491.166L232.648 487.382C232.086 487.102 232.086 486.542 232.648 486.261L239.251 482.478C239.813 482.198 240.656 482.198 241.218 482.478L247.821 486.261Z" fill="white"/><path id="Vector_11" fill-rule="evenodd" clip-rule="evenodd" d="M258.639 492.568C259.201 492.848 259.201 493.409 258.639 493.689L252.036 497.473C251.474 497.753 250.631 497.753 250.069 497.473L243.466 493.689C242.904 493.409 242.904 492.848 243.466 492.568L250.069 488.784C250.631 488.504 251.474 488.504 252.036 488.784L258.639 492.568Z" fill="white"/><path id="Vector_12" fill-rule="evenodd" clip-rule="evenodd" d="M269.317 499.013C269.879 499.294 269.879 499.854 269.317 500.134L262.714 503.918C262.152 504.198 261.309 504.198 260.747 503.918L254.144 500.134C253.582 499.854 253.582 499.294 254.144 499.013L260.747 495.23C261.309 494.949 262.152 494.949 262.714 495.23L269.317 499.013Z" fill="white"/></g></g><path id="Vector_13" fill-rule="evenodd" clip-rule="evenodd" d="M293.763 485.281L254.707 462.579C254.145 462.299 253.302 462.299 252.74 462.579L240.658 469.446C240.096 469.726 240.096 470.287 240.658 470.567L279.714 493.268C280.276 493.549 281.119 493.549 281.681 493.268L293.763 486.402C294.184 485.982 294.184 485.561 293.763 485.281Z" fill="white"/><g id="Group_6"><g id="Group_7"><path id="Vector_14" fill-rule="evenodd" clip-rule="evenodd" d="M225.063 486.963C225.625 487.243 225.625 487.803 225.063 488.084L218.46 491.867C217.898 492.147 217.055 492.147 216.493 491.867L209.89 488.084C209.328 487.803 209.328 487.243 209.89 486.963L216.493 483.179C217.055 482.899 217.898 482.899 218.46 483.179L225.063 486.963Z" fill="white"/><path id="Vector_15" fill-rule="evenodd" clip-rule="evenodd" d="M235.879 493.129C236.441 493.409 236.441 493.969 235.879 494.25L229.276 498.033C228.714 498.313 227.872 498.313 227.31 498.033L220.707 494.25C220.145 493.969 220.145 493.409 220.707 493.129L227.31 489.345C227.872 489.065 228.714 489.065 229.276 489.345L235.879 493.129Z" fill="white"/><path id="Vector_16" fill-rule="evenodd" clip-rule="evenodd" d="M246.698 499.435C247.26 499.715 247.26 500.276 246.698 500.556L240.095 504.34C239.533 504.62 238.69 504.62 238.128 504.34L231.525 500.556C230.963 500.276 230.963 499.715 231.525 499.435L238.128 495.652C238.69 495.371 239.533 495.371 240.095 495.652L246.698 499.435Z" fill="white"/><path id="Vector_17" fill-rule="evenodd" clip-rule="evenodd" d="M257.516 505.881C258.078 506.161 258.078 506.721 257.516 507.002L250.913 510.785C250.351 511.065 249.508 511.065 248.946 510.785L242.343 507.002C241.781 506.721 241.781 506.161 242.343 505.881L248.946 502.097C249.508 501.817 250.351 501.817 250.913 502.097L257.516 505.881Z" fill="white"/></g></g><g id="Group_8"><path id="Vector_18" fill-rule="evenodd" clip-rule="evenodd" d="M212.28 494.81C212.842 495.09 212.842 495.651 212.28 495.931L205.677 499.715C205.115 499.995 204.272 499.995 203.71 499.715L197.107 495.931C196.545 495.651 196.545 495.09 197.107 494.81L203.71 491.027C204.272 490.746 205.115 490.746 205.677 491.027L212.28 494.81Z" fill="white"/><path id="Vector_19" fill-rule="evenodd" clip-rule="evenodd" d="M223.096 500.976C223.658 501.257 223.658 501.817 223.096 502.097L216.493 505.881C215.931 506.161 215.088 506.161 214.526 505.881L207.923 502.097C207.361 501.817 207.361 501.257 207.923 500.976L214.526 497.193C215.088 496.912 215.931 496.912 216.493 497.193L223.096 500.976Z" fill="white"/><path id="Vector_20" fill-rule="evenodd" clip-rule="evenodd" d="M233.915 507.283C234.477 507.563 234.477 508.124 233.915 508.404L227.312 512.187C226.75 512.468 225.907 512.468 225.345 512.187L218.742 508.404C218.18 508.124 218.18 507.563 218.742 507.283L225.345 503.499C225.907 503.219 226.75 503.219 227.312 503.499L233.915 507.283Z" fill="white"/><path id="Vector_21" fill-rule="evenodd" clip-rule="evenodd" d="M245.716 513.869L239.113 510.085C238.551 509.805 237.708 509.805 237.146 510.085L232.51 512.748L217.197 521.576C216.635 521.856 216.635 522.417 217.197 522.697L223.8 526.481C224.362 526.761 225.205 526.761 225.767 526.481L245.716 514.99C246.278 514.71 246.278 514.289 245.716 513.869Z" fill="white"/></g><g id="Group_9"><g id="Group_10"><path id="Vector_22" fill-rule="evenodd" clip-rule="evenodd" d="M199.354 502.377C199.916 502.657 199.916 503.217 199.354 503.498L192.751 507.281C192.189 507.562 191.346 507.562 190.784 507.281L184.181 503.498C183.619 503.217 183.619 502.657 184.181 502.377L190.784 498.593C191.346 498.313 192.189 498.313 192.751 498.593L199.354 502.377Z" fill="white"/><path id="Vector_23" fill-rule="evenodd" clip-rule="evenodd" d="M210.171 508.543C210.732 508.823 210.732 509.383 210.171 509.664L203.567 513.447C203.006 513.727 202.163 513.727 201.601 513.447L194.998 509.664C194.436 509.383 194.436 508.823 194.998 508.543L201.601 504.759C202.163 504.479 203.006 504.479 203.567 504.759L210.171 508.543Z" fill="white"/><path id="Vector_24" fill-rule="evenodd" clip-rule="evenodd" d="M220.989 514.849C221.551 515.129 221.551 515.69 220.989 515.97L214.386 519.754C213.824 520.034 212.981 520.034 212.419 519.754L205.816 515.97C205.254 515.69 205.254 515.129 205.816 514.849L212.419 511.066C212.981 510.785 213.824 510.785 214.386 511.066L220.989 514.849Z" fill="white"/></g></g></g><path id="Vector_25" fill-rule="evenodd" clip-rule="evenodd" d="M216.635 385.226C218.602 386.347 218.602 388.309 216.635 389.43L191.066 404.284C189.099 405.405 185.868 407.787 181.934 406.386L128.689 376.257C126.722 375.136 125.036 370.652 127.143 369.391L156.365 354.677C158.332 353.556 161.704 353.556 163.67 354.677L216.635 385.226Z" fill="url(#paint8_linear)"/><path id="Vector_26" fill-rule="evenodd" clip-rule="evenodd" d="M218.178 387.047L158.33 353.976V316.98L218.178 351.593V387.047Z" fill="url(#paint9_linear)"/><path id="Vector_27" fill-rule="evenodd" clip-rule="evenodd" d="M213.683 383.545C215.65 384.666 215.65 386.628 213.683 387.749L188.254 402.603C186.288 403.724 182.916 403.724 180.949 402.603L127.704 372.054C125.737 370.933 125.737 368.971 127.704 367.85L153.273 353.136C155.24 352.015 158.611 352.015 160.578 353.136L213.683 383.545Z" fill="url(#paint10_linear)"/><path id="Vector_28" fill-rule="evenodd" clip-rule="evenodd" d="M215.229 385.506L155.381 352.435V315.439L215.229 349.912V385.506Z" fill="url(#paint11_linear)"/><g id="screen"><g id="Group_11"><path id="Vector_29" opacity="0.9" d="M318.104 197.424L91.3549 66.5398C85.7353 63.3168 73.6533 65.1385 70.984 72.1452C72.6698 73.8268 70.703 74.5274 72.1079 76.4893C74.4962 79.9926 73.2318 84.0565 72.1079 87.9802C71.6864 89.2414 71.1245 90.5026 70.5625 91.7638C71.6864 92.1842 72.8103 92.6046 73.9342 93.025C80.9587 96.108 87.1402 102.414 90.231 109.28C92.0573 113.344 93.0408 117.128 91.9168 121.612C91.0739 124.695 89.2476 127.498 86.7188 129.6C90.231 133.944 93.7432 138.288 97.3959 142.492C112.85 160.289 129.287 177.946 140.245 199.106C140.807 199.666 141.369 200.087 141.931 200.787C166.798 228.534 181.83 262.446 202.482 293.135C222.431 322.984 278.908 360.119 300.684 388.426C301.808 389.407 302.932 390.668 303.915 391.929C304.196 392.35 304.336 392.49 304.477 392.77C304.617 392.91 304.758 393.19 305.039 393.471C305.741 394.311 306.303 395.012 307.006 395.853C308.27 397.394 309.675 398.936 311.08 400.337C314.03 403.56 317.261 406.643 320.352 409.726C323.443 412.809 324.286 415.752 324.426 419.816C330.186 417.994 335.665 410.987 335.665 406.083V227.553C335.525 216.482 327.798 202.889 318.104 197.424Z" fill="url(#paint12_linear)"/><path id="Vector_30" d="M331.591 407.765C331.591 418.836 323.723 423.32 314.17 417.855L87.4207 286.971C77.8674 281.505 70 267.912 70 256.842V78.172C70 67.1015 77.8674 62.6172 87.4207 68.0824L314.311 198.967C323.864 204.432 331.731 218.025 331.731 229.095V407.765H331.591Z" fill="url(#paint13_linear)"/><path id="Vector_31" d="M70 256.84C70 267.91 77.8674 281.363 87.4207 286.969L314.311 417.853C323.864 423.318 331.731 418.834 331.731 407.763L70 256.84Z" fill="white"/></g><g id="Group_12"><path id="Vector_32" d="M258.921 324.549L0 176.148L51.419 146.58L310.902 295.962L258.921 324.549Z" fill="white"/><path id="Vector_33" opacity="0.8" d="M242.203 269.056L76.8477 173.905C76.8477 173.905 84.2936 105.1 110.706 117.292C131.357 126.4 132.06 174.886 146.952 183.435C157.348 189.46 182.214 161.294 199.354 169.001C225.626 183.435 242.203 269.056 242.203 269.056Z" fill="url(#paint14_linear)"/><path id="Vector_34" opacity="0.8" d="M234.758 284.191L69.4023 189.04C69.4023 189.04 76.8483 120.235 103.26 132.426C123.912 141.535 124.615 190.021 139.506 198.569C149.903 204.595 174.769 176.428 191.909 184.136C218.18 198.569 234.758 284.191 234.758 284.191Z" fill="url(#paint15_linear)"/><path id="Vector_35" opacity="0.8" d="M229.137 299.884L63.9219 204.734C63.9219 204.734 71.3678 135.928 97.7798 148.12C118.432 157.228 119.134 205.715 134.026 214.263C144.422 220.288 169.289 192.122 186.428 199.829C212.7 214.263 229.137 299.884 229.137 299.884Z" fill="url(#paint16_linear)"/><g id="left-antenna"><path id="Vector_36" d="M99.1846 224.913V60.957H98.2012V224.212C98.4822 224.493 98.9036 224.773 99.1846 224.913Z" fill="#0E3C65"/><path id="Vector_37" d="M93.7063 60.8173C93.5658 63.6199 95.5327 65.8621 98.0615 65.8621C100.59 66.0022 102.557 63.7601 102.698 61.0975C102.838 58.435 100.871 56.1929 98.3425 56.0527C95.8136 56.0527 93.8468 58.1547 93.7063 60.8173Z" fill="#2267A2"/></g><g id="mid-antenna"><path id="Vector_38" d="M133.042 244.532V124.018H132.059V243.972C132.48 244.252 132.48 244.252 133.042 244.532Z" fill="#0E3C65"/><path id="Vector_39" d="M127.564 123.878C127.423 126.541 129.39 128.783 131.919 128.923C134.448 129.063 136.415 126.821 136.555 124.158C136.695 121.496 134.729 119.254 132.2 119.114C129.671 118.974 127.564 121.216 127.564 123.878Z" fill="#2267A2"/></g><g id="right-antenna"><path id="Vector_40" d="M188.114 276.202V143.916H187.131V275.641C187.412 275.781 187.833 276.062 188.114 276.202Z" fill="#0E3C65"/><path id="Vector_41" d="M182.636 143.916C182.495 146.578 184.462 148.82 186.991 148.96C189.52 149.101 191.487 146.858 191.627 144.196C191.768 141.533 189.801 139.291 187.272 139.151C184.884 139.011 182.776 141.113 182.636 143.916Z" fill="#2267A2"/></g><g id="Group_13"><path id="Vector_42" d="M127.565 58.1553C127.565 60.3974 124.755 61.6586 122.928 60.5376L83.5915 36.9952C81.7651 35.8741 80.0793 33.0714 80.0793 30.8293L79.2363 2.24213C79.2363 0 81.7651 -0.560533 83.732 0.560533L124.052 23.8227C126.019 24.9437 127.565 27.6062 127.565 29.8484V58.1553Z" fill="url(#paint17_linear)"/><path id="Vector_43" d="M126.44 58.5755C126.44 60.8176 124.895 61.6584 122.928 60.5374L82.4673 37.2752C80.5005 36.1542 78.9551 33.4916 78.9551 31.2495V2.9426C78.9551 0.700465 80.5005 -0.140335 82.4673 0.980731L122.788 24.2428C124.755 25.2238 126.44 28.0264 126.44 30.2686V58.5755Z" fill="url(#paint18_linear)"/></g><g id="Group_14"><path id="Vector_44" d="M160.719 120.374C160.719 122.616 157.909 123.877 156.083 122.756L116.886 99.0738C114.92 97.9527 113.374 95.2902 113.374 93.0481L112.531 64.4609C112.531 62.2188 115.06 61.6582 117.027 62.7793L157.347 86.0414C159.314 87.1625 160.86 89.825 160.86 92.0671V120.374H160.719Z" fill="url(#paint19_linear)"/><path id="Vector_45" d="M159.595 120.654C159.595 122.896 158.049 123.737 156.083 122.615L115.762 99.4935C113.795 98.3724 112.25 95.7099 112.25 93.4678V65.0207C112.25 62.7786 113.795 61.9378 115.762 63.0589L156.083 86.321C158.049 87.442 159.595 90.1046 159.595 92.3467V120.654Z" fill="url(#paint20_linear)"/></g><g id="Group_15"><path id="Vector_46" d="M218.883 130.605C218.883 132.847 216.073 134.108 214.247 132.987L175.05 109.304C173.083 108.183 171.538 105.521 171.538 103.279L170.555 74.6914C170.555 72.4492 173.083 71.8887 175.05 73.0098L215.371 96.2719C217.338 97.3929 218.883 100.055 218.883 102.298V130.605Z" fill="url(#paint21_linear)"/><path id="Vector_47" d="M217.759 130.884C217.759 133.126 216.214 133.967 214.247 132.846L173.926 109.584C171.959 108.463 170.414 105.8 170.414 103.558V75.2512C170.414 73.0091 171.959 72.1683 173.926 73.2893L214.247 96.5514C216.214 97.6725 217.759 100.335 217.759 102.577V130.884Z" fill="url(#paint22_linear)"/></g><g id="Group_16"><path id="Vector_48" d="M90.7548 27.7458C90.7548 28.0261 90.7548 28.1662 90.6143 28.3063L83.8708 24.1023C83.8708 22.8411 84.5733 22.1405 86.1186 21.8602C86.8211 21.7201 87.5235 21.5799 88.226 21.4398C88.9284 21.1595 89.2094 20.8793 89.3499 20.3187C89.3499 19.7582 89.2094 19.1977 88.7879 18.6371C88.3665 18.2167 87.945 17.7963 87.383 17.3759C86.2591 16.6753 85.4162 16.8154 84.8542 17.6562C84.7138 17.5161 84.4328 17.3759 84.1518 16.9555C83.8708 16.6753 83.7303 16.395 83.5898 16.2549C83.8708 15.6943 84.2923 15.4141 84.9947 15.4141C85.6972 15.4141 86.5401 15.6943 87.383 16.2549C88.3665 16.8154 89.0689 17.5161 89.7714 18.497C90.4738 19.4779 90.7548 20.3187 90.7548 21.2997C90.7548 22.0003 90.3333 22.5609 89.6309 22.8411C88.7879 22.9813 87.945 23.1214 87.1021 23.2615C86.3996 23.4017 85.9782 23.6819 85.6972 24.1023L90.6143 27.1853C90.7548 27.4655 90.7548 27.6057 90.7548 27.7458Z" fill="white"/><path id="Vector_49" d="M101.01 29.988C101.01 31.5294 100.729 32.5104 100.027 32.9308C99.3242 33.4913 98.3408 33.3512 97.0764 32.5104C95.812 31.6696 94.8286 30.5485 94.1261 29.1472C93.5642 27.886 93.2832 26.4846 93.2832 24.9432C93.2832 23.4017 93.5642 22.4208 94.2666 22.0004C94.9691 21.4398 95.9525 21.58 97.2169 22.4208C98.4813 23.2616 99.4647 24.3826 100.167 25.784C100.729 27.0452 101.01 28.4465 101.01 29.988ZM99.6052 29.007C99.6052 27.886 99.4647 26.7649 99.0433 25.784C98.6218 24.6629 98.0598 23.9622 97.2169 23.4017C96.374 22.8412 95.6715 22.8412 95.2501 23.4017C94.8286 23.8221 94.6881 24.6629 94.6881 25.784C94.6881 26.905 94.8286 28.0261 95.2501 29.007C95.6715 29.988 96.2335 30.8288 97.0764 31.3893C97.9193 31.9498 98.6218 31.9498 99.0433 31.3893C99.4647 31.109 99.6052 30.2682 99.6052 29.007Z" fill="white"/><path id="Vector_50" d="M107.473 38.9568C107.192 38.8166 107.052 38.8166 106.771 38.5364C106.63 38.3962 106.349 38.2561 106.068 37.9758L106.209 29.9882L104.663 30.2685C104.523 30.1284 104.242 29.8481 104.101 29.5678C103.82 29.2876 103.82 29.0073 103.82 28.8672L106.349 28.3066C106.49 28.3066 106.771 28.4468 106.911 28.5869C107.192 28.727 107.473 29.0073 107.614 29.1474L107.473 38.9568Z" fill="white"/><path id="Vector_51" d="M119.977 44.0022C119.977 44.843 119.555 45.4035 118.853 45.5436C118.151 45.6838 117.167 45.4035 116.043 44.7028C114.919 44.0022 113.936 43.1614 113.233 42.0403C112.531 41.0594 112.25 40.0784 112.25 39.0975C112.25 37.8363 112.952 37.4159 114.217 37.6962C113.233 36.5751 112.812 35.4541 112.812 34.6133C112.812 33.9126 113.093 33.4922 113.795 33.4922C114.357 33.4922 115.2 33.7725 116.184 34.333C117.167 35.0337 118.01 35.7343 118.572 36.435C119.134 37.2758 119.415 37.9764 119.415 38.6771C119.415 39.658 118.853 40.0784 117.87 39.9383C119.415 41.4798 120.117 42.741 119.977 44.0022ZM118.712 43.1614C118.712 42.6008 118.432 41.9002 118.01 41.1995C117.589 40.4988 116.886 39.9383 116.324 39.5179C115.622 39.0975 115.06 38.9574 114.498 38.9574C113.936 39.0975 113.795 39.3778 113.795 39.9383C113.795 40.4988 114.076 41.0594 114.498 41.76C114.919 42.4607 115.622 43.0212 116.324 43.4416C117.027 43.862 117.589 44.0022 118.151 44.0022C118.432 44.0022 118.712 43.7219 118.712 43.1614ZM118.291 38.2567C118.291 37.8363 118.151 37.4159 117.729 36.8554C117.308 36.2948 116.886 35.8745 116.324 35.5942C115.762 35.3139 115.341 35.0337 114.919 35.1738C114.498 35.1738 114.357 35.4541 114.357 35.7343C114.357 36.1547 114.498 36.5751 114.919 37.1356C115.341 37.6962 115.762 38.1166 116.324 38.3968C116.886 38.6771 117.308 38.9574 117.729 38.8172C118.01 38.8172 118.291 38.537 118.291 38.2567Z" fill="white"/></g><g id="Group_17"><path id="Vector_52" d="M125.177 90.1057C125.177 90.3859 125.177 90.5261 125.036 90.6662L118.152 86.1819C118.152 85.0609 118.855 84.3602 120.54 84.0799C121.243 83.9398 121.945 83.9398 122.648 83.7997C123.35 83.6595 123.772 83.2391 123.772 82.6786C123.772 82.1181 123.631 81.6977 123.21 81.1371C122.788 80.7167 122.367 80.2963 121.805 79.8759C120.681 79.1753 119.697 79.1753 119.136 80.0161C118.995 79.8759 118.714 79.7358 118.433 79.3154C118.152 79.0351 118.012 78.7549 117.871 78.6147C118.152 78.1943 118.714 77.9141 119.276 77.9141C119.978 77.9141 120.821 78.1943 121.805 78.7549C122.788 79.3154 123.491 80.1562 124.193 80.997C124.896 81.9779 125.177 82.8187 125.177 83.6595C125.177 84.3602 124.755 84.7806 123.912 85.0609C123.069 85.201 122.226 85.201 121.243 85.3411C120.54 85.4813 119.978 85.7615 119.838 86.0418L124.896 89.2649C125.177 89.8254 125.177 89.9655 125.177 90.1057Z" fill="white"/><path id="Vector_53" d="M135.854 92.7675C135.854 94.1688 135.432 95.1498 134.87 95.5702C134.168 96.1307 133.044 95.8504 131.779 95.0096C130.375 94.1688 129.391 93.0478 128.689 91.6464C128.127 90.3852 127.846 89.124 127.846 87.5826C127.846 86.1812 128.267 85.2003 128.829 84.7799C129.532 84.2194 130.655 84.4996 131.92 85.3404C133.325 86.1812 134.308 87.3023 135.011 88.7036C135.573 89.9648 135.854 91.3662 135.854 92.7675ZM134.308 91.9267C134.308 90.8056 134.168 89.8247 133.746 88.8438C133.325 87.8628 132.622 87.022 131.779 86.4615C130.936 85.901 130.234 85.901 129.813 86.3214C129.391 86.7418 129.11 87.4424 129.11 88.5635C129.11 89.6846 129.251 90.6655 129.672 91.6464C130.094 92.6274 130.796 93.4682 131.639 94.0287C132.482 94.5892 133.184 94.5892 133.606 94.1688C134.168 93.7484 134.308 93.0478 134.308 91.9267Z" fill="white"/><path id="Vector_54" d="M142.317 101.738C142.036 101.597 141.895 101.457 141.614 101.317C141.474 101.177 141.193 101.037 140.912 100.757L141.193 93.1894L139.507 93.3295C139.367 93.1894 139.086 92.9091 138.945 92.6289C138.664 92.3486 138.664 92.0683 138.664 91.9282L141.333 91.5078C141.474 91.5078 141.755 91.6479 142.036 91.7881C142.317 92.0683 142.598 92.2085 142.738 92.3486L142.317 101.738Z" fill="white"/><path id="Vector_55" d="M155.381 104.68C155.381 106.361 154.679 107.342 153.555 107.623C152.291 107.903 150.605 107.342 148.357 105.941C148.357 105.661 148.357 105.521 148.357 105.38C148.357 105.1 148.357 104.96 148.497 104.96C149.902 105.801 151.026 106.221 152.15 106.361C153.274 106.361 153.836 105.941 153.836 104.96C153.134 105.1 152.291 104.68 151.167 103.979C150.324 103.419 149.481 102.718 148.919 101.737C148.216 100.616 147.795 99.6349 147.795 98.654C147.795 97.6731 148.216 97.2527 148.919 97.1125C149.621 96.9724 150.605 97.2527 151.729 98.0935C153.134 98.9343 154.117 100.055 154.819 101.317C155.241 102.297 155.522 103.419 155.381 104.68ZM153.836 102.578C153.836 102.017 153.695 101.317 153.134 100.616C152.712 99.9152 152.15 99.3547 151.448 98.9343C150.745 98.5139 150.183 98.3737 149.621 98.3737C149.2 98.5139 148.919 98.7941 148.919 99.3547C148.919 99.9152 149.059 100.616 149.621 101.317C150.043 102.017 150.605 102.578 151.307 102.998C152.01 103.419 152.572 103.559 152.993 103.559C153.555 103.559 153.836 103.278 153.836 102.578Z" fill="white"/></g><g id="Group_18"><path id="Vector_56" d="M183.339 100.336C183.339 100.616 183.339 100.897 183.339 100.897L176.315 96.4124C176.034 95.011 176.595 94.3104 177.86 93.89C178.422 93.7498 179.124 93.6097 179.686 93.4696C180.248 93.1893 180.529 92.7689 180.389 92.2084C180.248 91.6478 179.967 91.0873 179.546 90.5268C179.124 89.9662 178.562 89.5458 178 89.2656C176.876 88.5649 176.034 88.5649 175.753 89.5458C175.612 89.4057 175.331 89.2656 174.91 88.8452C174.629 88.5649 174.348 88.2846 174.348 88.0044C174.488 87.4438 174.91 87.1636 175.472 87.0234C176.174 87.0234 176.876 87.1636 177.86 87.8642C178.843 88.4248 179.686 89.2656 180.529 90.2465C181.372 91.2274 181.934 92.2084 182.075 93.1893C182.215 94.0301 181.934 94.5906 181.372 94.8709C180.67 95.011 179.827 95.1512 179.124 95.4314C178.562 95.5716 178.141 95.992 178 96.4124L183.198 99.6354C183.198 100.056 183.339 100.196 183.339 100.336Z" fill="white"/><path id="Vector_57" d="M193.313 102.578C193.594 104.259 193.594 105.24 193.032 105.801C192.47 106.361 191.628 106.221 190.223 105.38C188.818 104.54 187.694 103.278 186.851 101.737C186.008 100.336 185.446 98.9343 185.165 97.2527C184.884 95.5711 184.884 94.5902 185.446 94.0297C186.008 93.4691 186.851 93.6093 188.256 94.4501C189.661 95.2909 190.785 96.5521 191.628 98.0935C192.47 99.4949 193.032 100.896 193.313 102.578ZM191.768 101.737C191.487 100.476 191.206 99.3547 190.644 98.3738C190.082 97.2527 189.239 96.4119 188.396 95.8514C187.553 95.2909 186.851 95.2909 186.57 95.8514C186.289 96.2718 186.289 97.2527 186.57 98.5139C186.851 99.7751 187.132 100.896 187.694 101.877C188.256 102.998 189.099 103.839 189.942 104.4C190.785 104.96 191.487 104.96 191.768 104.4C192.049 103.839 192.049 102.998 191.768 101.737Z" fill="white"/><path id="Vector_58" d="M203.71 113.088C203.71 113.368 203.71 113.649 203.71 113.649L196.686 109.164C196.405 107.763 196.967 107.062 198.231 106.642C198.793 106.502 199.495 106.362 200.057 106.222C200.619 105.941 200.9 105.521 200.76 104.96C200.619 104.4 200.338 103.839 199.917 103.279C199.495 102.718 198.933 102.298 198.371 102.018C197.248 101.317 196.405 101.317 196.124 102.298C195.983 102.158 195.702 102.018 195.281 101.597C195 101.317 194.719 101.037 194.719 100.756C194.859 100.196 195.281 99.9155 195.843 99.7754C196.545 99.7754 197.248 99.9155 198.231 100.616C199.214 101.177 200.057 102.018 200.9 102.998C201.743 103.979 202.305 104.96 202.446 105.941C202.586 106.782 202.305 107.343 201.743 107.623C201.041 107.763 200.198 107.903 199.495 108.183C198.933 108.324 198.512 108.744 198.371 109.164L203.57 112.387C203.57 112.808 203.57 113.088 203.71 113.088Z" fill="white"/><path id="Vector_59" d="M213.545 115.33C213.826 117.011 213.826 117.992 213.264 118.553C212.702 119.113 211.859 118.973 210.454 118.132C209.049 117.292 207.925 116.03 207.082 114.489C206.239 113.088 205.677 111.686 205.396 110.005C205.115 108.323 205.256 107.342 205.677 106.782C206.239 106.221 207.082 106.361 208.487 107.202C209.892 108.043 211.016 109.304 211.859 110.845C212.702 112.247 213.264 113.788 213.545 115.33ZM212.14 114.489C211.859 113.228 211.578 112.107 211.016 111.126C210.454 110.005 209.611 109.164 208.768 108.603C207.925 108.043 207.363 108.043 206.942 108.603C206.661 109.024 206.661 110.005 206.942 111.266C207.223 112.527 207.504 113.648 208.065 114.629C208.627 115.75 209.47 116.591 210.313 117.151C211.156 117.712 211.859 117.712 212.14 117.151C212.28 116.591 212.421 115.75 212.14 114.489Z" fill="white"/></g></g></g><g id="keyboard"><g id="Group_19"><path id="Vector_60" opacity="0.9" d="M195.562 450.528C193.314 450.388 191.206 449.547 189.521 447.865L4.77734 407.787C5.3393 411.431 5.90126 414.654 8.00859 415.915L129.11 485.701C134.168 488.644 142.457 488.644 147.514 485.701L192.19 460.057C194.578 458.655 197.388 454.872 196.124 450.528C195.562 450.528 195.983 450.528 195.562 450.528Z" fill="url(#paint23_linear)"/><path id="Vector_61" d="M8.42992 413.252C3.37232 410.309 3.37232 405.545 8.42992 402.742L53.1055 377.098C58.1631 374.155 66.4519 374.155 71.5095 377.098L192.611 446.884C197.669 449.827 197.669 454.591 192.611 457.394L147.936 483.038C142.878 485.981 134.589 485.981 129.532 483.038L8.42992 413.252Z" fill="url(#paint24_linear)"/></g><g id="Group_20"><g id="Group_21"><g id="Group_22"><path id="Vector_62" fill-rule="evenodd" clip-rule="evenodd" d="M74.7408 391.111C75.1622 391.391 75.1622 391.671 74.7408 391.951L69.8237 394.754C69.4022 395.034 68.8402 395.034 68.4188 394.754L63.5016 391.951C63.0802 391.671 63.0802 391.391 63.5016 391.111L68.4188 388.308C68.8402 388.028 69.4022 388.028 69.8237 388.308L74.7408 391.111Z" fill="white"/><path id="Vector_63" fill-rule="evenodd" clip-rule="evenodd" d="M82.8892 395.876C83.3107 396.156 83.3107 396.437 82.8892 396.717L77.9721 399.52C77.5506 399.8 76.9887 399.8 76.5672 399.52L71.6501 396.717C71.2286 396.437 71.2286 396.156 71.6501 395.876L76.5672 393.073C76.9887 392.793 77.5506 392.793 77.9721 393.073L82.8892 395.876Z" fill="white"/><path id="Vector_64" fill-rule="evenodd" clip-rule="evenodd" d="M90.897 400.499C91.3185 400.779 91.3185 401.06 90.897 401.34L85.9799 404.143C85.5584 404.423 84.9965 404.423 84.575 404.143L79.6579 401.34C79.2364 401.06 79.2364 400.779 79.6579 400.499L84.575 397.697C84.9965 397.416 85.5584 397.416 85.9799 397.697L90.897 400.499Z" fill="white"/><path id="Vector_65" fill-rule="evenodd" clip-rule="evenodd" d="M98.9048 405.263C99.3263 405.543 99.3263 405.823 98.9048 406.104L93.9877 408.906C93.5663 409.186 93.0043 409.186 92.5828 408.906L87.6657 406.104C87.2442 405.823 87.2442 405.543 87.6657 405.263L92.5828 402.46C93.0043 402.18 93.5663 402.18 93.9877 402.46L98.9048 405.263Z" fill="white"/><path id="Vector_66" fill-rule="evenodd" clip-rule="evenodd" d="M107.053 409.749C107.475 410.029 107.475 410.31 107.053 410.59L102.136 413.393C101.715 413.673 101.153 413.673 100.731 413.393L95.8141 410.59C95.3927 410.31 95.3927 410.029 95.8141 409.749L100.731 406.947C101.153 406.666 101.715 406.666 102.136 406.947L107.053 409.749Z" fill="white"/></g><g id="Group_23"><path id="Vector_67" fill-rule="evenodd" clip-rule="evenodd" d="M115.202 414.513C115.623 414.793 115.623 415.073 115.202 415.354L110.285 418.156C109.863 418.437 109.301 418.437 108.88 418.156L103.963 415.354C103.541 415.073 103.541 414.793 103.963 414.513L108.88 411.71C109.301 411.43 109.863 411.43 110.285 411.71L115.202 414.513Z" fill="white"/><path id="Vector_68" fill-rule="evenodd" clip-rule="evenodd" d="M123.21 419.138C123.631 419.418 123.631 419.698 123.21 419.979L118.292 422.781C117.871 423.062 117.309 423.062 116.888 422.781L111.97 419.979C111.549 419.698 111.549 419.418 111.97 419.138L116.888 416.335C117.309 416.055 117.871 416.055 118.292 416.335L123.21 419.138Z" fill="white"/><path id="Vector_69" fill-rule="evenodd" clip-rule="evenodd" d="M131.358 423.761C131.779 424.041 131.779 424.321 131.358 424.602L126.441 427.404C126.019 427.685 125.457 427.685 125.036 427.404L120.119 424.602C119.697 424.321 119.697 424.041 120.119 423.761L125.036 420.958C125.457 420.678 126.019 420.678 126.441 420.958L131.358 423.761Z" fill="white"/><path id="Vector_70" fill-rule="evenodd" clip-rule="evenodd" d="M139.366 428.527C139.787 428.807 139.787 429.087 139.366 429.367L134.449 432.17C134.027 432.45 133.465 432.45 133.044 432.17L128.127 429.367C127.705 429.087 127.705 428.807 128.127 428.527L133.044 425.724C133.465 425.444 134.027 425.444 134.449 425.724L139.366 428.527Z" fill="white"/><path id="Vector_71" fill-rule="evenodd" clip-rule="evenodd" d="M147.514 433.011C147.936 433.291 147.936 433.571 147.514 433.852L142.597 436.654C142.176 436.935 141.614 436.935 141.192 436.654L136.275 433.852C135.854 433.571 135.854 433.291 136.275 433.011L141.192 430.208C141.614 429.928 142.176 429.928 142.597 430.208L147.514 433.011Z" fill="white"/></g><g id="Group_24"><path id="Vector_72" fill-rule="evenodd" clip-rule="evenodd" d="M155.803 437.915C156.225 438.195 156.225 438.476 155.803 438.756L150.886 441.559C150.465 441.839 149.903 441.839 149.481 441.559L144.564 438.756C144.143 438.476 144.143 438.195 144.564 437.915L149.481 435.113C149.903 434.832 150.465 434.832 150.886 435.113L155.803 437.915Z" fill="white"/><path id="Vector_73" fill-rule="evenodd" clip-rule="evenodd" d="M163.952 442.54C164.373 442.82 164.373 443.101 163.952 443.381L159.035 446.184C158.613 446.464 158.051 446.464 157.63 446.184L152.713 443.381C152.291 443.101 152.291 442.82 152.713 442.54L157.63 439.738C158.051 439.457 158.613 439.457 159.035 439.738L163.952 442.54Z" fill="white"/><path id="Vector_74" fill-rule="evenodd" clip-rule="evenodd" d="M171.96 447.163C172.381 447.443 172.381 447.724 171.96 448.004L167.042 450.807C166.621 451.087 166.059 451.087 165.638 450.807L160.72 448.004C160.299 447.724 160.299 447.443 160.72 447.163L165.638 444.361C166.059 444.08 166.621 444.08 167.042 444.361L171.96 447.163Z" fill="white"/></g></g><g id="Group_25"><g id="Group_26"><path id="Vector_75" fill-rule="evenodd" clip-rule="evenodd" d="M62.3775 397.837C62.799 398.117 62.799 398.398 62.3775 398.678L57.4604 401.481C57.0389 401.761 56.477 401.761 56.0555 401.481L51.1384 398.678C50.7169 398.398 50.7169 398.117 51.1384 397.837L56.0555 395.034C56.477 394.754 57.0389 394.754 57.4604 395.034L62.3775 397.837Z" fill="white"/><path id="Vector_76" fill-rule="evenodd" clip-rule="evenodd" d="M70.3853 402.462C70.8068 402.742 70.8068 403.023 70.3853 403.303L65.4682 406.106C65.0467 406.386 64.4848 406.386 64.0633 406.106L59.1462 403.303C58.7247 403.023 58.7247 402.742 59.1462 402.462L64.0633 399.659C64.4848 399.379 65.0467 399.379 65.4682 399.659L70.3853 402.462Z" fill="white"/><path id="Vector_77" fill-rule="evenodd" clip-rule="evenodd" d="M78.5337 407.085C78.9552 407.365 78.9552 407.646 78.5337 407.926L73.6166 410.729C73.1952 411.009 72.6332 411.009 72.2117 410.729L67.2946 407.926C66.8731 407.646 66.8731 407.365 67.2946 407.085L72.2117 404.282C72.6332 404.002 73.1952 404.002 73.6166 404.282L78.5337 407.085Z" fill="white"/><path id="Vector_78" fill-rule="evenodd" clip-rule="evenodd" d="M86.5416 411.851C86.963 412.131 86.963 412.411 86.5416 412.692L81.6244 415.494C81.203 415.774 80.641 415.774 80.2195 415.494L75.3024 412.692C74.881 412.411 74.881 412.131 75.3024 411.851L80.2195 409.048C80.641 408.768 81.203 408.768 81.6244 409.048L86.5416 411.851Z" fill="white"/><path id="Vector_79" fill-rule="evenodd" clip-rule="evenodd" d="M94.69 416.476C95.1115 416.756 95.1115 417.036 94.69 417.316L89.7729 420.119C89.3514 420.399 88.7895 420.399 88.368 420.119L83.4509 417.316C83.0294 417.036 83.0294 416.756 83.4509 416.476L88.368 413.673C88.7895 413.393 89.3514 413.393 89.7729 413.673L94.69 416.476Z" fill="white"/></g><g id="Group_27"><path id="Vector_80" fill-rule="evenodd" clip-rule="evenodd" d="M102.838 421.099C103.26 421.379 103.26 421.659 102.838 421.94L97.9213 424.742C97.4998 425.023 96.9379 425.023 96.5164 424.742L91.5993 421.94C91.1778 421.659 91.1778 421.379 91.5993 421.099L96.5164 418.296C96.9379 418.016 97.4998 418.016 97.9213 418.296L102.838 421.099Z" fill="white"/><path id="Vector_81" fill-rule="evenodd" clip-rule="evenodd" d="M110.846 425.724C111.268 426.004 111.268 426.284 110.846 426.565L105.929 429.367C105.508 429.648 104.946 429.648 104.524 429.367L99.6071 426.565C99.1856 426.284 99.1856 426.004 99.6071 425.724L104.524 422.921C104.946 422.641 105.508 422.641 105.929 422.921L110.846 425.724Z" fill="white"/><path id="Vector_82" fill-rule="evenodd" clip-rule="evenodd" d="M118.995 430.347C119.416 430.627 119.416 430.907 118.995 431.188L114.078 433.99C113.656 434.271 113.094 434.271 112.673 433.99L107.756 431.188C107.334 430.907 107.334 430.627 107.756 430.347L112.673 427.544C113.094 427.264 113.656 427.264 114.078 427.544L118.995 430.347Z" fill="white"/><path id="Vector_83" fill-rule="evenodd" clip-rule="evenodd" d="M127.003 435.251C127.424 435.531 127.424 435.812 127.003 436.092L122.085 438.895C121.664 439.175 121.102 439.175 120.68 438.895L115.763 436.092C115.342 435.812 115.342 435.531 115.763 435.251L120.68 432.448C121.102 432.168 121.664 432.168 122.085 432.448L127.003 435.251Z" fill="white"/><path id="Vector_84" fill-rule="evenodd" clip-rule="evenodd" d="M135.01 439.737C135.432 440.018 135.432 440.298 135.01 440.578L130.093 443.381C129.672 443.661 129.11 443.661 128.688 443.381L123.771 440.578C123.35 440.298 123.35 440.018 123.771 439.737L128.688 436.935C129.11 436.655 129.672 436.655 130.093 436.935L135.01 439.737Z" fill="white"/></g><g id="Group_28"><path id="Vector_85" fill-rule="evenodd" clip-rule="evenodd" d="M143.44 444.642C143.861 444.922 143.861 445.202 143.44 445.483L138.523 448.285C138.101 448.566 137.539 448.566 137.118 448.285L132.201 445.483C131.779 445.202 131.779 444.922 132.201 444.642L137.118 441.839C137.539 441.559 138.101 441.559 138.523 441.839L143.44 444.642Z" fill="white"/><path id="Vector_86" fill-rule="evenodd" clip-rule="evenodd" d="M151.588 449.267C152.01 449.547 152.01 449.827 151.588 450.108L146.671 452.91C146.25 453.191 145.688 453.191 145.266 452.91L140.349 450.108C139.928 449.827 139.928 449.547 140.349 449.267L145.266 446.464C145.688 446.184 146.25 446.184 146.671 446.464L151.588 449.267Z" fill="white"/><path id="Vector_87" fill-rule="evenodd" clip-rule="evenodd" d="M159.596 453.89C160.018 454.17 160.018 454.45 159.596 454.731L154.679 457.533C154.258 457.814 153.696 457.814 153.274 457.533L148.357 454.731C147.936 454.45 147.936 454.17 148.357 453.89L153.274 451.087C153.696 450.807 154.258 450.807 154.679 451.087L159.596 453.89Z" fill="white"/></g></g><g id="Group_29"><g id="Group_30"><path id="Vector_88" fill-rule="evenodd" clip-rule="evenodd" d="M52.2623 404.423C52.6837 404.703 52.6837 404.984 52.2623 405.264L47.3451 408.066C46.9237 408.347 46.3617 408.347 45.9402 408.066L41.0231 405.264C40.6017 404.984 40.6017 404.703 41.0231 404.423L45.9402 401.62C46.3617 401.34 46.9237 401.34 47.3451 401.62L52.2623 404.423Z" fill="white"/><path id="Vector_89" fill-rule="evenodd" clip-rule="evenodd" d="M60.2701 409.048C60.6915 409.328 60.6915 409.609 60.2701 409.889L55.353 412.692C54.9315 412.972 54.3695 412.972 53.9481 412.692L49.0309 409.889C48.6095 409.609 48.6095 409.328 49.0309 409.048L53.9481 406.245C54.3695 405.965 54.9315 405.965 55.353 406.245L60.2701 409.048Z" fill="white"/><path id="Vector_90" fill-rule="evenodd" clip-rule="evenodd" d="M68.4185 413.812C68.84 414.092 68.84 414.372 68.4185 414.653L63.5014 417.455C63.0799 417.735 62.518 417.735 62.0965 417.455L57.1794 414.653C56.7579 414.372 56.7579 414.092 57.1794 413.812L62.0965 411.009C62.518 410.729 63.0799 410.729 63.5014 411.009L68.4185 413.812Z" fill="white"/><path id="Vector_91" fill-rule="evenodd" clip-rule="evenodd" d="M76.4263 418.575C76.8478 418.856 76.8478 419.136 76.4263 419.416L71.5092 422.219C71.0877 422.499 70.5258 422.499 70.1043 422.219L65.1872 419.416C64.7657 419.136 64.7657 418.856 65.1872 418.575L70.1043 415.773C70.5258 415.492 71.0877 415.492 71.5092 415.773L76.4263 418.575Z" fill="white"/><path id="Vector_92" fill-rule="evenodd" clip-rule="evenodd" d="M84.4341 423.062C84.8556 423.342 84.8556 423.622 84.4341 423.902L79.517 426.705C79.0955 426.985 78.5336 426.985 78.1121 426.705L73.195 423.902C72.7735 423.622 72.7735 423.342 73.195 423.062L78.1121 420.259C78.5336 419.979 79.0955 419.979 79.517 420.259L84.4341 423.062Z" fill="white"/></g><g id="Group_31"><path id="Vector_93" fill-rule="evenodd" clip-rule="evenodd" d="M92.7232 427.685C93.1447 427.965 93.1447 428.245 92.7232 428.525L87.8061 431.328C87.3846 431.608 86.8227 431.608 86.4012 431.328L81.4841 428.525C81.0626 428.245 81.0626 427.965 81.4841 427.685L86.4012 424.882C86.8227 424.602 87.3846 424.602 87.8061 424.882L92.7232 427.685Z" fill="white"/><path id="Vector_94" fill-rule="evenodd" clip-rule="evenodd" d="M100.731 432.45C101.152 432.731 101.152 433.011 100.731 433.291L95.8139 436.094C95.3924 436.374 94.8305 436.374 94.409 436.094L89.4919 433.291C89.0704 433.011 89.0704 432.731 89.4919 432.45L94.409 429.648C94.8305 429.367 95.3924 429.367 95.8139 429.648L100.731 432.45Z" fill="white"/><path id="Vector_95" fill-rule="evenodd" clip-rule="evenodd" d="M108.739 437.073C109.16 437.354 109.16 437.634 108.739 437.914L103.822 440.717C103.4 440.997 102.838 440.997 102.417 440.717L97.4997 437.914C97.0782 437.634 97.0782 437.354 97.4997 437.073L102.417 434.271C102.838 433.99 103.4 433.99 103.822 434.271L108.739 437.073Z" fill="white"/><path id="Vector_96" fill-rule="evenodd" clip-rule="evenodd" d="M116.887 441.837C117.309 442.117 117.309 442.398 116.887 442.678L111.97 445.481C111.549 445.761 110.987 445.761 110.565 445.481L105.648 442.678C105.227 442.398 105.227 442.117 105.648 441.837L110.565 439.034C110.987 438.754 111.549 438.754 111.97 439.034L116.887 441.837Z" fill="white"/><path id="Vector_97" fill-rule="evenodd" clip-rule="evenodd" d="M124.895 446.323C125.317 446.604 125.317 446.884 124.895 447.164L119.978 449.967C119.556 450.247 118.995 450.247 118.573 449.967L113.656 447.164C113.234 446.884 113.234 446.604 113.656 446.323L118.573 443.521C118.995 443.24 119.556 443.24 119.978 443.521L124.895 446.323Z" fill="white"/></g><g id="Group_32"><path id="Vector_98" fill-rule="evenodd" clip-rule="evenodd" d="M133.325 451.228C133.746 451.508 133.746 451.788 133.325 452.069L128.408 454.871C127.986 455.151 127.424 455.151 127.003 454.871L122.086 452.069C121.664 451.788 121.664 451.508 122.086 451.228L127.003 448.425C127.424 448.145 127.986 448.145 128.408 448.425L133.325 451.228Z" fill="white"/><path id="Vector_99" fill-rule="evenodd" clip-rule="evenodd" d="M141.333 455.853C141.754 456.133 141.754 456.413 141.333 456.694L136.415 459.496C135.994 459.776 135.432 459.776 135.011 459.496L130.093 456.694C129.672 456.413 129.672 456.133 130.093 455.853L135.011 453.05C135.432 452.77 135.994 452.77 136.415 453.05L141.333 455.853Z" fill="white"/><path id="Vector_100" fill-rule="evenodd" clip-rule="evenodd" d="M149.481 460.476C149.902 460.756 149.902 461.036 149.481 461.317L144.564 464.119C144.142 464.4 143.58 464.4 143.159 464.119L138.242 461.317C137.82 461.036 137.82 460.756 138.242 460.476L143.159 457.673C143.58 457.393 144.142 457.393 144.564 457.673L149.481 460.476Z" fill="white"/></g></g><g id="Group_33"><g id="Group_34"><path id="Vector_101" fill-rule="evenodd" clip-rule="evenodd" d="M39.7584 411.15C40.1798 411.43 40.1798 411.71 39.7584 411.99L34.8412 414.793C34.4198 415.073 33.8578 415.073 33.4363 414.793L28.5192 411.99C28.0978 411.71 28.0978 411.43 28.5192 411.15L33.4363 408.347C33.8578 408.067 34.4198 408.067 34.8412 408.347L39.7584 411.15Z" fill="white"/><path id="Vector_102" fill-rule="evenodd" clip-rule="evenodd" d="M47.9068 415.775C48.3283 416.055 48.3283 416.335 47.9068 416.615L42.9897 419.418C42.5682 419.698 42.0062 419.698 41.5848 419.418L36.6677 416.615C36.2462 416.335 36.2462 416.055 36.6677 415.775L41.5848 412.972C42.0062 412.692 42.5682 412.692 42.9897 412.972L47.9068 415.775Z" fill="white"/><path id="Vector_103" fill-rule="evenodd" clip-rule="evenodd" d="M55.9146 420.398C56.3361 420.678 56.3361 420.958 55.9146 421.238L50.9975 424.041C50.576 424.321 50.0141 424.321 49.5926 424.041L44.6755 421.238C44.254 420.958 44.254 420.678 44.6755 420.398L49.5926 417.595C50.0141 417.315 50.576 417.315 50.9975 417.595L55.9146 420.398Z" fill="white"/><path id="Vector_104" fill-rule="evenodd" clip-rule="evenodd" d="M64.0631 425.163C64.4845 425.444 64.4845 425.724 64.0631 426.004L59.1459 428.807C58.7245 429.087 58.1625 429.087 57.741 428.807L52.8239 426.004C52.4024 425.724 52.4024 425.444 52.8239 425.163L57.741 422.361C58.1625 422.08 58.7245 422.08 59.1459 422.361L64.0631 425.163Z" fill="white"/><path id="Vector_105" fill-rule="evenodd" clip-rule="evenodd" d="M72.0709 429.788C72.4923 430.069 72.4923 430.349 72.0709 430.629L67.1537 433.432C66.7323 433.712 66.1703 433.712 65.7488 433.432L60.8317 430.629C60.4103 430.349 60.4103 430.069 60.8317 429.788L65.7488 426.986C66.1703 426.705 66.7323 426.705 67.1537 426.986L72.0709 429.788Z" fill="white"/></g><g id="Group_35"><path id="Vector_106" fill-rule="evenodd" clip-rule="evenodd" d="M80.2193 434.411C80.6408 434.692 80.6408 434.972 80.2193 435.252L75.3022 438.055C74.8807 438.335 74.3187 438.335 73.8973 438.055L68.9802 435.252C68.5587 434.972 68.5587 434.692 68.9802 434.411L73.8973 431.609C74.3187 431.328 74.8807 431.328 75.3022 431.609L80.2193 434.411Z" fill="white"/><path id="Vector_107" fill-rule="evenodd" clip-rule="evenodd" d="M88.3677 439.036C88.7892 439.317 88.7892 439.597 88.3677 439.877L83.4506 442.68C83.0291 442.96 82.4672 442.96 82.0457 442.68L77.1286 439.877C76.7071 439.597 76.7071 439.317 77.1286 439.036L82.0457 436.234C82.4672 435.953 83.0291 435.953 83.4506 436.234L88.3677 439.036Z" fill="white"/><path id="Vector_108" fill-rule="evenodd" clip-rule="evenodd" d="M96.3755 443.659C96.797 443.94 96.797 444.22 96.3755 444.5L91.4584 447.303C91.037 447.583 90.475 447.583 90.0535 447.303L85.1364 444.5C84.7149 444.22 84.7149 443.94 85.1364 443.659L90.0535 440.857C90.475 440.576 91.037 440.576 91.4584 440.857L96.3755 443.659Z" fill="white"/><path id="Vector_109" fill-rule="evenodd" clip-rule="evenodd" d="M104.383 448.425C104.805 448.705 104.805 448.986 104.383 449.266L99.4662 452.068C99.0448 452.349 98.4828 452.349 98.0613 452.068L93.1442 449.266C92.7228 448.986 92.7228 448.705 93.1442 448.425L98.0613 445.622C98.4828 445.342 99.0448 445.342 99.4662 445.622L104.383 448.425Z" fill="white"/><path id="Vector_110" fill-rule="evenodd" clip-rule="evenodd" d="M112.532 453.05C112.953 453.33 112.953 453.61 112.532 453.891L107.615 456.693C107.193 456.974 106.631 456.974 106.21 456.693L101.293 453.891C100.871 453.61 100.871 453.33 101.293 453.05L106.21 450.247C106.631 449.967 107.193 449.967 107.615 450.247L112.532 453.05Z" fill="white"/></g><g id="Group_36"><path id="Vector_111" fill-rule="evenodd" clip-rule="evenodd" d="M120.961 457.814C121.383 458.094 121.383 458.374 120.961 458.654L116.044 461.457C115.623 461.737 115.061 461.737 114.639 461.457L109.722 458.654C109.301 458.374 109.301 458.094 109.722 457.814L114.639 455.011C115.061 454.731 115.623 454.731 116.044 455.011L120.961 457.814Z" fill="white"/><path id="Vector_112" fill-rule="evenodd" clip-rule="evenodd" d="M128.969 462.579C129.391 462.86 129.391 463.14 128.969 463.42L124.052 466.223C123.631 466.503 123.069 466.503 122.647 466.223L117.73 463.42C117.309 463.14 117.309 462.86 117.73 462.579L122.647 459.777C123.069 459.496 123.631 459.496 124.052 459.777L128.969 462.579Z" fill="white"/><path id="Vector_113" fill-rule="evenodd" clip-rule="evenodd" d="M136.977 467.202C137.399 467.483 137.399 467.763 136.977 468.043L132.06 470.846C131.639 471.126 131.077 471.126 130.655 470.846L125.738 468.043C125.317 467.763 125.317 467.483 125.738 467.202L130.655 464.4C131.077 464.119 131.639 464.119 132.06 464.4L136.977 467.202Z" fill="white"/></g></g></g></g><g id="right-charts"><path id="left-chart" d="M516.999 423.624L372.857 340.525V274.102L516.999 357.201V423.624Z" fill="url(#paint25_linear)"/><path id="top-chart" d="M516.999 502.099L372.857 419.14V352.717L516.999 435.676V502.099Z" fill="url(#paint26_linear)"/><g id="chart-text"><path id="Vector_114" opacity="0.8" d="M438.326 331.275L397.584 307.732V309.834L438.326 333.377V331.275Z" fill="white"/><path id="Vector_115" opacity="0.8" d="M397.584 316.561V318.663L485.249 369.111V367.009L397.584 316.561Z" fill="white"/><path id="Vector_116" opacity="0.8" d="M397.584 325.389V327.351L485.249 377.939V375.837L397.584 325.389Z" fill="white"/><path id="Vector_117" opacity="0.8" d="M397.584 334.078V336.18L485.249 386.628V384.526L397.584 334.078Z" fill="white"/><path id="Vector_118" opacity="0.8" d="M438.326 411.291L397.584 387.889V389.991L438.326 413.393V411.291Z" fill="white"/><path id="Vector_119" opacity="0.8" d="M397.584 396.576V398.678L485.249 449.126V447.164L397.584 396.576Z" fill="white"/><path id="Vector_120" opacity="0.8" d="M397.584 405.404V407.506L485.249 457.954V455.852L397.584 405.404Z" fill="white"/><path id="Vector_121" opacity="0.8" d="M397.584 414.094V416.196L485.249 466.644V464.682L397.584 414.094Z" fill="white"/></g></g></g></g><defs><linearGradient id="paint0_linear" x1="248.121" y1="545.273" x2="470.098" y2="545.273" gradientUnits="userSpaceOnUse"><stop stop-color="#E55E16"/><stop offset="0.5645" stop-color="#E30D3B"/><stop offset="1" stop-color="#89106A"/></linearGradient><linearGradient id="paint1_linear" x1="248.121" y1="545.273" x2="470.098" y2="545.273" gradientUnits="userSpaceOnUse"><stop stop-color="white"/><stop offset="1" stop-color="#CCCCCC"/></linearGradient><linearGradient id="paint2_linear" x1="274.28" y1="551.416" x2="314.85" y2="551.416" gradientUnits="userSpaceOnUse"><stop stop-color="#E55E16"/><stop offset="0.5645" stop-color="#E30D3B"/><stop offset="1" stop-color="#89106A"/></linearGradient><linearGradient id="paint3_linear" x1="288.988" y1="551.334" x2="360.171" y2="551.334" gradientUnits="userSpaceOnUse"><stop stop-color="#E55E16"/><stop offset="0.5645" stop-color="#E30D3B"/><stop offset="1" stop-color="#89106A"/></linearGradient><linearGradient id="paint4_linear" x1="304.201" y1="560.439" x2="373.102" y2="560.439" gradientUnits="userSpaceOnUse"><stop stop-color="#E55E16"/><stop offset="0.5645" stop-color="#E30D3B"/><stop offset="1" stop-color="#89106A"/></linearGradient><linearGradient id="paint5_linear" x1="319.256" y1="565.105" x2="401.604" y2="565.105" gradientUnits="userSpaceOnUse"><stop stop-color="#E55E16"/><stop offset="0.5645" stop-color="#E30D3B"/><stop offset="1" stop-color="#89106A"/></linearGradient><linearGradient id="paint6_linear" x1="260.836" y1="476.413" x2="180.377" y2="553.06" gradientUnits="userSpaceOnUse"><stop stop-color="#E55E16"/><stop offset="0.5645" stop-color="#E30D3B"/><stop offset="1" stop-color="#89106A"/></linearGradient><linearGradient id="paint7_linear" x1="171.765" y1="494.147" x2="306.779" y2="494.147" gradientUnits="userSpaceOnUse"><stop stop-color="#E55E16"/><stop offset="0.5645" stop-color="#E30D3B"/><stop offset="1" stop-color="#89106A"/></linearGradient><linearGradient id="paint8_linear" x1="227.045" y1="416.231" x2="215.931" y2="408.946" gradientUnits="userSpaceOnUse"><stop stop-color="white"/><stop offset="1" stop-color="#CCCCCC"/></linearGradient><linearGradient id="paint9_linear" x1="243.934" y1="389.134" x2="233.173" y2="382.08" gradientUnits="userSpaceOnUse"><stop stop-color="white"/><stop offset="1" stop-color="#CCCCCC"/></linearGradient><linearGradient id="paint10_linear" x1="145.54" y1="397.187" x2="185.604" y2="366.15" gradientUnits="userSpaceOnUse"><stop stop-color="white"/><stop offset="1" stop-color="#E6E6E6"/></linearGradient><linearGradient id="paint11_linear" x1="155.438" y1="350.418" x2="215.23" y2="350.418" gradientUnits="userSpaceOnUse"><stop stop-color="white"/><stop offset="1" stop-color="#E6E6E6"/></linearGradient><linearGradient id="paint12_linear" x1="-62.0767" y1="337.716" x2="440.495" y2="155.935" gradientUnits="userSpaceOnUse"><stop stop-color="white"/><stop offset="1" stop-color="#CCCCCC"/></linearGradient><linearGradient id="paint13_linear" x1="204.313" y1="113.039" x2="197.248" y2="376.515" gradientUnits="userSpaceOnUse"><stop stop-color="#E55E16"/><stop offset="0.5645" stop-color="#E30D3B"/><stop offset="1" stop-color="#89106A"/></linearGradient><linearGradient id="paint14_linear" x1="263.695" y1="192.475" x2="428.994" y2="192.475" gradientUnits="userSpaceOnUse"><stop stop-color="#E55E16"/><stop offset="0.5645" stop-color="#E30D3B"/><stop offset="1" stop-color="#89106A"/></linearGradient><linearGradient id="paint15_linear" x1="51.7858" y1="207.528" x2="279.268" y2="207.528" gradientUnits="userSpaceOnUse"><stop stop-color="#E55E16"/><stop offset="0.5645" stop-color="#E30D3B"/><stop offset="1" stop-color="#89106A"/></linearGradient><linearGradient id="paint16_linear" x1="-4.39152" y1="223.226" x2="160.907" y2="223.226" gradientUnits="userSpaceOnUse"><stop stop-color="#E55E16"/><stop offset="0.5645" stop-color="#E30D3B"/><stop offset="1" stop-color="#89106A"/></linearGradient><linearGradient id="paint17_linear" x1="96.0541" y1="35.9768" x2="124.742" y2="13.6382" gradientUnits="userSpaceOnUse"><stop stop-color="#E55E16"/><stop offset="0.5645" stop-color="#E30D3B"/><stop offset="1" stop-color="#89106A"/></linearGradient><linearGradient id="paint18_linear" x1="127.472" y1="14.4701" x2="75.6038" y2="48.6239" gradientUnits="userSpaceOnUse"><stop stop-color="#E55E16"/><stop offset="0.5645" stop-color="#E30D3B"/><stop offset="1" stop-color="#89106A"/></linearGradient><linearGradient id="paint19_linear" x1="129.3" y1="98.1233" x2="157.988" y2="75.7849" gradientUnits="userSpaceOnUse"><stop stop-color="#E55E16"/><stop offset="0.5645" stop-color="#E30D3B"/><stop offset="1" stop-color="#89106A"/></linearGradient><linearGradient id="paint20_linear" x1="160.718" y1="76.6158" x2="108.849" y2="110.77" gradientUnits="userSpaceOnUse"><stop stop-color="#E55E16"/><stop offset="0.5645" stop-color="#E30D3B"/><stop offset="1" stop-color="#89106A"/></linearGradient><linearGradient id="paint21_linear" x1="187.436" y1="108.374" x2="216.124" y2="86.035" gradientUnits="userSpaceOnUse"><stop stop-color="#E55E16"/><stop offset="0.5645" stop-color="#E30D3B"/><stop offset="1" stop-color="#89106A"/></linearGradient><linearGradient id="paint22_linear" x1="218.854" y1="86.8661" x2="166.986" y2="121.02" gradientUnits="userSpaceOnUse"><stop stop-color="#E55E16"/><stop offset="0.5645" stop-color="#E30D3B"/><stop offset="1" stop-color="#89106A"/></linearGradient><linearGradient id="paint23_linear" x1="211.201" y1="493.215" x2="174.892" y2="474.408" gradientUnits="userSpaceOnUse"><stop stop-color="white"/><stop offset="1" stop-color="#CCCCCC"/></linearGradient><linearGradient id="paint24_linear" x1="-34.3081" y1="430.076" x2="157.407" y2="430.076" gradientUnits="userSpaceOnUse"><stop stop-color="white"/><stop offset="1" stop-color="#CCCCCC"/></linearGradient><linearGradient id="paint25_linear" x1="444.368" y1="272.687" x2="445.419" y2="407.526" gradientUnits="userSpaceOnUse"><stop stop-color="#E55E16"/><stop offset="0.5645" stop-color="#E30D3B"/><stop offset="1" stop-color="#89106A"/></linearGradient><linearGradient id="paint26_linear" x1="444.368" y1="351.199" x2="445.419" y2="486.037" gradientUnits="userSpaceOnUse"><stop stop-color="#E55E16"/><stop offset="0.5645" stop-color="#E30D3B"/><stop offset="1" stop-color="#89106A"/></linearGradient><clipPath id="clip0"><rect width="517" height="610" fill="white"/></clipPath></defs></svg>