<svg width="160" height="160" viewBox="0 0 160 160" fill="none" xmlns="http://www.w3.org/2000/svg">
<path d="M122.719 115.938H113.75V94.6793C113.75 94.182 113.552 93.7051 113.201 93.3535C112.849 93.0019 112.372 92.8043 111.875 92.8043C111.378 92.8043 110.901 93.0019 110.549 93.3535C110.197 93.7051 110 94.182 110 94.6793V115.938H82.8124V94.6793C82.8124 94.182 82.6149 93.7051 82.2632 93.3535C81.9116 93.0019 81.4347 92.8043 80.9374 92.8043C80.4401 92.8043 79.9632 93.0019 79.6116 93.3535C79.2599 93.7051 79.0624 94.182 79.0624 94.6793V115.938H73.3087C73.2273 115.954 73.1471 115.974 73.0683 116C65.3861 109.125 55.4344 105.331 45.1249 105.346C21.9655 105.346 3.12491 124.264 3.12491 147.422C3.12208 147.928 3.31629 148.414 3.66634 148.779C4.0164 149.144 4.49475 149.357 4.99991 149.375H85.2468C85.7551 149.35 86.234 149.129 86.5834 148.759C86.9328 148.389 87.1257 147.898 87.1218 147.389C87.1104 137.21 83.4324 127.376 76.7615 119.688H122.719C123.216 119.688 123.693 119.49 124.044 119.139C124.396 118.787 124.594 118.31 124.594 117.813C124.594 117.315 124.396 116.839 124.044 116.487C123.693 116.135 123.216 115.938 122.719 115.938V115.938ZM6.92053 145.625C7.40639 135.82 11.6434 126.578 18.7546 119.81C25.8658 113.043 35.3069 109.268 45.1237 109.268C54.9405 109.268 64.3815 113.043 71.4927 119.81C78.6039 126.578 82.8409 135.82 83.3268 145.625H6.92053Z" fill="white"/>
<path d="M146.898 10.625H45.8178C40.3169 10.625 35.9375 15.2344 35.9375 20.7356V55H39.6875V20.7356C39.6875 17.3019 42.3844 14.375 45.8178 14.375H146.898C150.332 14.375 153.125 17.3019 153.125 20.7356V86.5772C153.124 88.229 152.467 89.8128 151.3 90.9816C150.133 92.1504 148.55 92.8088 146.898 92.8125H57.5V96.5625H146.898C149.544 96.5575 152.08 95.5037 153.95 93.6319C155.821 91.7601 156.872 89.2232 156.875 86.5772V20.7356C156.875 15.2344 152.399 10.625 146.898 10.625Z" fill="#00FF4A"/>
<path d="M63.7416 45.7731L72.9916 52.2147C72.7071 53.4444 72.6982 54.7219 72.9657 55.9555C73.2332 57.1891 73.7703 58.3482 74.5386 59.3496C75.3069 60.3511 76.2874 61.1701 77.4096 61.748C78.5318 62.3258 79.7679 62.6481 81.0294 62.6918C82.2909 62.7355 83.5464 62.4995 84.7059 62.0007C85.8654 61.5019 86.9002 60.7527 87.7359 59.8067C88.5717 58.8608 89.1877 57.7417 89.5399 56.5296C89.8921 55.3175 89.9716 54.0424 89.7729 52.7959L96.9998 38.8628C98.0728 39.6976 99.3296 40.2643 100.666 40.5159C102.002 40.7674 103.379 40.6964 104.682 40.3089C105.985 39.9214 107.177 39.2285 108.158 38.2878C109.14 37.3472 109.883 36.1858 110.325 34.9003L116.021 37.5497C114.908 41.8782 115.497 46.4686 117.667 50.3761C119.836 54.2836 123.421 57.2108 127.683 58.5553C131.945 59.8998 136.56 59.5591 140.579 57.6035C144.598 55.6479 147.714 52.2262 149.286 48.0426C150.858 43.859 150.767 39.2318 149.031 35.1136C147.294 30.9954 144.046 27.6994 139.953 25.9041C135.86 24.1088 131.235 23.9509 127.029 25.4627C122.823 26.9745 119.357 30.0411 117.344 34.0312L110.713 30.9472C110.547 29.7307 110.121 28.5642 109.464 27.527C108.807 26.4898 107.934 25.6062 106.906 24.9362C105.877 24.2663 104.716 23.8256 103.502 23.6443C102.287 23.4629 101.048 23.5451 99.8684 23.8852C98.6887 24.2253 97.5961 24.8154 96.6647 25.6154C95.7334 26.4154 94.9852 27.4065 94.471 28.5214C93.9567 29.6362 93.6886 30.8487 93.6846 32.0765C93.6807 33.3042 93.9411 34.5184 94.4482 35.6366L87.7657 48.5225C86.9441 47.5781 85.925 46.8259 84.7804 46.3191C83.6358 45.8124 82.3938 45.5635 81.1423 45.5901C79.8908 45.6167 78.6605 45.9181 77.5385 46.473C76.4164 47.028 75.4301 47.8228 74.6494 48.8013L65.4216 42.375C65.9142 40.3256 65.6343 38.1666 64.6353 36.3106C63.6364 34.4547 61.9886 33.0319 60.0068 32.3143C58.025 31.5966 55.8483 31.6345 53.8926 32.4206C51.937 33.2067 50.3396 34.6859 49.4058 36.5755C48.4721 38.4651 48.2674 40.6326 48.8309 42.6636C49.3945 44.6945 50.6867 46.4466 52.4606 47.5849C54.2345 48.7233 56.3657 49.1679 58.4468 48.834C60.5279 48.5 62.4129 47.4109 63.7416 45.7747V45.7731ZM132.897 28.1875C135.6 28.1875 138.242 28.9889 140.489 30.4905C142.736 31.992 144.487 34.1262 145.522 36.6231C146.556 39.1201 146.827 41.8677 146.299 44.5184C145.772 47.1692 144.471 49.604 142.56 51.5151C140.648 53.4262 138.214 54.7277 135.563 55.2549C132.912 55.7822 130.165 55.5116 127.668 54.4773C125.171 53.443 123.036 51.6916 121.535 49.4444C120.033 47.1972 119.232 44.5552 119.232 41.8525C119.236 38.2296 120.677 34.7562 123.239 32.1944C125.801 29.6326 129.274 28.1916 132.897 28.1875V28.1875ZM102.241 27.305C103.191 27.3049 104.12 27.5867 104.91 28.1146C105.701 28.6426 106.316 29.393 106.68 30.271C107.044 31.149 107.139 32.1151 106.954 33.0472C106.768 33.9793 106.311 34.8355 105.639 35.5075C104.967 36.1796 104.111 36.6372 103.179 36.8226C102.246 37.0081 101.28 36.9129 100.402 36.5493C99.5243 36.1856 98.7738 35.5697 98.2458 34.7795C97.7178 33.9894 97.436 33.0604 97.436 32.11C97.4372 30.836 97.9436 29.6146 98.8442 28.7135C99.7449 27.8125 100.966 27.3055 102.24 27.3037L102.241 27.305ZM81.326 49.3378C82.2764 49.3377 83.2054 49.6195 83.9956 50.1475C84.7859 50.6754 85.4018 51.4259 85.7655 52.3039C86.1292 53.1819 86.2244 54.148 86.039 55.0801C85.8536 56.0123 85.396 56.8684 84.724 57.5405C84.052 58.2125 83.1958 58.6701 82.2637 58.8555C81.3315 59.0409 80.3654 58.9457 79.4874 58.582C78.6094 58.2183 77.8589 57.6024 77.331 56.8121C76.803 56.0219 76.5213 55.0929 76.5213 54.1425C76.5224 52.8685 77.0288 51.647 77.9295 50.746C78.8301 49.845 80.0514 49.3381 81.3254 49.3366L81.326 49.3378ZM57.1026 45.1906C56.1522 45.1909 55.2232 44.9093 54.4329 44.3815C53.6426 43.8537 53.0266 43.1034 52.6627 42.2255C52.2989 41.3476 52.2035 40.3815 52.3888 39.4494C52.574 38.5173 53.0315 37.661 53.7034 36.989C54.3753 36.3169 55.2315 35.8592 56.1635 35.6737C57.0956 35.4882 58.0617 35.5832 58.9397 35.9469C59.8177 36.3105 60.5682 36.9263 61.0962 37.7165C61.6242 38.5066 61.906 39.4356 61.906 40.3859C61.9046 41.6596 61.3981 42.8807 60.4976 43.7814C59.5972 44.6821 58.3762 45.1889 57.1026 45.1906Z" fill="#00FF4A"/>
<path d="M132.928 48.625C132.917 48.625 132.908 48.625 132.896 48.625C132.885 48.625 132.877 48.625 132.865 48.625C132.208 48.6161 131.58 48.3489 131.118 47.8811C130.656 47.4132 130.397 46.7824 130.396 46.125C130.396 45.6277 130.199 45.1508 129.847 44.7991C129.496 44.4475 129.019 44.25 128.521 44.25C128.02 44.2485 127.538 44.4442 127.179 44.795C126.82 45.1457 126.614 45.6234 126.604 46.125C126.603 47.4494 127.022 48.7401 127.801 49.8116C128.579 50.883 129.678 51.6801 130.938 52.0884V53.105C130.938 53.6022 131.135 54.0792 131.487 54.4308C131.838 54.7824 132.315 54.98 132.813 54.98C133.31 54.98 133.787 54.7824 134.138 54.4308C134.49 54.0792 134.688 53.6022 134.688 53.105V52.0884C135.957 51.6845 137.067 50.891 137.86 49.8205C138.653 48.7501 139.089 47.457 139.105 46.125C139.106 45.3056 138.947 44.4939 138.634 43.7364C138.322 42.9788 137.864 42.2902 137.285 41.7099C136.707 41.1295 136.02 40.6687 135.263 40.3539C134.507 40.0391 133.696 39.8763 132.876 39.875C132.383 39.8713 131.901 39.7216 131.492 39.4447C131.084 39.1678 130.766 38.7761 130.58 38.319C130.393 37.8618 130.347 37.3598 130.445 36.876C130.544 36.3923 130.783 35.9486 131.133 35.6008C131.484 35.253 131.929 35.0167 132.414 34.9217C132.898 34.8268 133.4 34.8773 133.856 35.0671C134.311 35.2568 134.701 35.5773 134.975 35.988C135.249 36.3987 135.395 36.8813 135.395 37.375C135.395 37.8722 135.592 38.3492 135.944 38.7008C136.296 39.0524 136.772 39.25 137.27 39.25C137.514 39.2491 137.755 39.1998 137.98 39.1047C138.205 39.0097 138.408 38.8709 138.579 38.6964C138.75 38.5219 138.884 38.3152 138.974 38.0883C139.064 37.8615 139.108 37.619 139.103 37.375C139.086 36.0437 138.651 34.7516 137.858 33.6818C137.065 32.612 135.956 31.8189 134.688 31.415V30.5978C134.688 30.1005 134.49 29.6236 134.138 29.272C133.787 28.9203 133.31 28.7228 132.813 28.7228C132.315 28.7228 131.838 28.9203 131.487 29.272C131.135 29.6236 130.938 30.1005 130.938 30.5978V31.415C129.518 31.8739 128.309 32.8248 127.529 34.0963C126.749 35.3678 126.449 36.8762 126.682 38.3496C126.916 39.823 127.669 41.1644 128.804 42.1319C129.939 43.0995 131.383 43.6295 132.875 43.6265C133.538 43.6197 134.177 43.8766 134.65 44.3406C135.124 44.8047 135.394 45.4379 135.401 46.1009C135.407 46.7639 135.151 47.4025 134.687 47.8762C134.223 48.3498 133.589 48.6197 132.926 48.6265L132.928 48.625Z" fill="#00FF4A"/>
<path d="M69.8685 77.1872C69.9025 76.8747 69.9263 76.1922 69.9263 75.6585C69.9492 69.4578 67.5958 63.4839 63.3499 58.965C59.1039 54.446 53.2881 51.7254 47.098 51.3623C40.9079 50.9993 34.814 53.0214 30.0689 57.013C25.3238 61.0047 22.2882 66.6625 21.5861 72.8233C20.884 78.9841 22.5688 85.1799 26.2941 90.1368C30.0194 95.0937 35.5022 98.4351 41.6152 99.4741C47.7283 100.513 54.0071 99.1708 59.1609 95.723C64.3147 92.2752 67.9519 86.9841 69.3247 80.9372H153.125V77.1872H69.8685ZM45.7603 96.1328C41.7224 96.1328 37.7752 94.9354 34.4178 92.6921C31.0604 90.4488 28.4437 87.2602 26.8984 83.5297C25.3532 79.7991 24.9489 75.6941 25.7367 71.7338C26.5245 67.7735 28.4689 64.1357 31.3242 61.2805C34.1794 58.4253 37.8173 56.4809 41.7776 55.6932C45.7379 54.9055 49.8429 55.3098 53.5734 56.8551C57.3039 58.4004 60.4924 61.0172 62.7357 64.3746C64.979 67.7321 66.1763 71.6793 66.1763 75.7172C66.1705 81.13 64.0177 86.3195 60.1902 90.1469C56.3627 93.9744 51.1732 96.1271 45.7603 96.1328V96.1328Z" fill="white"/>
</svg>
