<svg width="160" height="161" viewBox="0 0 160 161" fill="none" xmlns="http://www.w3.org/2000/svg">
<path d="M63.2185 76.9597C62.9873 76.7298 62.7126 76.5478 62.4101 76.4243C62.1076 76.3007 61.7834 76.238 61.4564 76.2399C61.1293 76.2418 60.8059 76.3081 60.5049 76.4351C60.2039 76.5621 59.9312 76.7472 59.7027 76.9797C59.4743 77.2122 59.2946 77.4875 59.174 77.7895C59.0534 78.0915 58.9944 78.4144 59.0004 78.7392C59.0064 79.0641 59.0772 79.3845 59.2088 79.682C59.3405 79.9794 59.5302 80.248 59.7671 80.472L72.9946 93.3018C73.4561 93.7494 74.0755 94 74.7205 94C75.3655 94 75.9849 93.7494 76.4464 93.3018L100.277 70.1891C100.737 69.7323 100.996 69.1142 101 68.4686C101.004 67.8229 100.751 67.2019 100.297 66.7399C99.8433 66.2779 99.2244 66.0122 98.5746 66.0004C97.9249 65.9886 97.2966 66.2316 96.8259 66.6768L74.7203 88.1168L63.2185 76.9597Z" fill="#00FF4A"/>
<path d="M157.786 66.1792L142.667 64.7216C141.073 58.2612 138.475 52.0909 134.968 46.4359L144.598 34.8069C144.985 34.3393 145.185 33.7445 145.158 33.1378C145.132 32.5312 144.881 31.9561 144.454 31.5241L128.598 15.4665C128.168 15.0302 127.59 14.7712 126.978 14.7405C126.365 14.7098 125.764 14.9098 125.292 15.3008L113.646 24.9453C107.987 21.4559 101.826 18.8543 95.3788 17.231L93.9229 2.16368C93.8623 1.56295 93.578 1.00697 93.1264 0.606193C92.6748 0.205419 92.089 -0.0108255 91.4853 0.000417382H68.718C68.1143 -0.0108255 67.5285 0.205419 67.0769 0.606193C66.6253 1.00697 66.341 1.56295 66.2804 2.16368L64.8229 17.2572C58.3629 18.8467 52.1926 21.4404 46.5371 24.9437L34.9094 15.3065C34.4401 14.9171 33.8423 14.7168 33.2331 14.7448C32.624 14.7729 32.0471 15.0271 31.6155 15.458L15.5567 31.5163C15.1258 31.9475 14.8711 32.5238 14.8425 33.1327C14.8139 33.7417 15.0134 34.3394 15.402 34.809L25.0465 46.4543C21.5571 52.1138 18.9555 58.2745 17.3322 64.722L2.21265 66.1792C1.6069 66.2379 1.04471 66.5201 0.635659 66.9707C0.226608 67.4214 -2.12309e-07 68.0081 0 68.6167V91.3841C2.92223e-05 91.9929 0.226808 92.5798 0.636112 93.0305C1.04542 93.4811 1.6079 93.7632 2.21388 93.8216L17.3327 95.2792C18.9269 101.74 21.525 107.91 25.0322 113.565L15.402 125.193C15.0132 125.662 14.8135 126.26 14.8421 126.869C14.8707 127.478 15.1256 128.055 15.5567 128.486L31.6155 144.545C32.0467 144.977 32.6233 145.232 33.2325 145.26C33.8417 145.289 34.4397 145.089 34.9094 144.7L46.5555 135.056C52.2148 138.545 58.3755 141.147 64.8229 142.77L66.2804 157.839C66.341 158.44 66.6253 158.996 67.0769 159.396C67.5285 159.797 68.1143 160.013 68.718 160.002H91.4853C92.089 160.013 92.6748 159.797 93.1264 159.396C93.578 158.996 93.8623 158.44 93.9229 157.839L95.3804 142.745C101.84 141.156 108.011 138.562 113.666 135.059L125.294 144.694C125.763 145.084 126.361 145.284 126.97 145.256C127.579 145.228 128.156 144.974 128.588 144.543L144.647 128.485C145.077 128.054 145.332 127.478 145.361 126.869C145.389 126.26 145.19 125.662 144.801 125.193L135.157 113.547C138.646 107.887 141.248 101.726 142.871 95.2776L157.79 93.8221C158.395 93.7627 158.957 93.4803 159.365 93.0296C159.774 92.5789 160 91.9924 160 91.3841V68.6167C160 68.008 159.773 67.421 159.364 66.9703C158.955 66.5197 158.392 66.2376 157.786 66.1792ZM155.102 89.1621L140.645 90.5718C140.128 90.6221 139.641 90.835 139.254 91.1797C138.867 91.5245 138.598 91.9834 138.489 92.4902C136.911 99.5853 134.063 106.336 130.082 112.417C129.799 112.855 129.664 113.371 129.695 113.89C129.726 114.41 129.921 114.906 130.253 115.307L139.605 126.6L126.699 139.505L115.408 130.154C115.002 129.818 114.499 129.622 113.973 129.594C113.447 129.567 112.926 129.71 112.487 130.002C106.434 134.008 99.6879 136.851 92.5939 138.387C92.0903 138.486 91.6319 138.745 91.2864 139.124C90.9409 139.504 90.7268 139.984 90.6755 140.495L89.2608 155.102H70.9425L69.5294 140.495C69.479 139.981 69.2656 139.497 68.9205 139.114C68.5754 138.73 68.1165 138.466 67.611 138.362C60.5176 136.79 53.7673 133.946 47.6865 129.969C47.2485 129.688 46.7323 129.554 46.2127 129.586C45.6932 129.618 45.1973 129.814 44.7971 130.147L33.5041 139.502L20.5984 126.598L29.9482 115.307C30.2841 114.901 30.4803 114.398 30.5077 113.872C30.535 113.346 30.3921 112.825 30.1 112.387C26.0942 106.333 23.2505 99.587 21.7143 92.4927C21.6042 91.9854 21.3359 91.5263 20.9479 91.1815C20.56 90.8367 20.0725 90.6241 19.5559 90.5743L4.89796 89.1596V70.8412L19.5563 69.4286C20.073 69.3788 20.5604 69.1662 20.9483 68.8214C21.3363 68.4766 21.6046 68.0174 21.7147 67.5102C23.2916 60.4161 26.1393 53.6658 30.12 47.5857C30.4022 47.1483 30.5377 46.6323 30.5068 46.1127C30.4759 45.5931 30.2802 45.0968 29.9482 44.6959L20.5967 33.4033L33.5024 20.4976L44.7955 29.849C45.2013 30.185 45.7045 30.3812 46.2306 30.4085C46.7567 30.4357 47.2776 30.2926 47.7159 30.0004C53.7694 25.9953 60.5154 23.1519 67.6094 21.6155C68.113 21.5166 68.5714 21.2582 68.9169 20.8786C69.2623 20.4991 69.4765 20.0184 69.5278 19.5078L70.9425 4.89838H89.2608L90.6739 19.5057C90.7243 20.0194 90.9376 20.5035 91.2828 20.8873C91.6279 21.2711 92.0868 21.5344 92.5923 21.6388C99.6857 23.2113 106.436 26.0547 112.517 30.0314C112.955 30.3128 113.471 30.4472 113.991 30.4152C114.51 30.3832 115.006 30.1865 115.407 29.8535L126.688 20.5065L139.411 33.3914L130.051 44.6943C129.716 45.1 129.519 45.6032 129.492 46.1292C129.465 46.6552 129.608 47.176 129.9 47.6143C133.906 53.6676 136.75 60.4139 138.286 67.5082C138.396 68.0154 138.664 68.4745 139.052 68.8193C139.44 69.1641 139.927 69.3768 140.444 69.4265L155.102 70.8412V89.1621Z" fill="white"/>
<path d="M80.1003 33.2246C70.849 33.2247 61.8055 35.9681 54.1133 41.1079C46.4212 46.2477 40.4259 53.5531 36.8857 62.1002C33.3454 70.6473 32.4192 80.0523 34.224 89.1258C36.0289 98.1994 40.4839 106.534 47.0256 113.076C53.5673 119.617 61.9019 124.072 70.9754 125.877C80.049 127.682 89.4539 126.755 98.001 123.215C106.548 119.675 113.853 113.679 118.993 105.987C124.133 98.295 126.876 89.2514 126.876 80.0001C126.862 67.5988 121.929 55.7095 113.16 46.9404C104.391 38.1714 92.5016 33.2388 80.1003 33.2246ZM80.1003 121.878C71.8177 121.878 63.7212 119.421 56.8345 114.82C49.9478 110.218 44.5803 103.678 41.4108 96.0257C38.2412 88.3736 37.412 79.9534 39.0279 71.83C40.6438 63.7065 44.6323 56.2447 50.489 50.3881C56.3457 44.5314 63.8075 40.543 71.931 38.9272C80.0544 37.3114 88.4746 38.1407 96.1267 41.3103C103.779 44.48 110.319 49.8475 114.921 56.7342C119.522 63.621 121.978 71.7175 121.978 80.0001C121.966 91.1029 117.549 101.747 109.698 109.598C101.848 117.449 91.2031 121.865 80.1003 121.878Z" fill="white"/>
</svg>
