<svg width="160" height="153" viewBox="0 0 160 153" fill="none" xmlns="http://www.w3.org/2000/svg">
<path d="M59.5407 21.9048C59.5441 21.9565 59.5499 22.0069 59.5574 22.0597L59.7368 23.2872C59.0598 23.6405 58.4665 24.1352 57.9973 24.7377C57.528 25.3401 57.1936 26.0364 57.0168 26.7793C56.6913 28.1082 56.7943 29.506 57.3112 30.7728C57.8282 32.0396 58.7324 33.1105 59.8947 33.8323C60.1047 33.9562 60.3248 34.062 60.5528 34.1485C60.807 37.5538 61.9502 40.8328 63.8683 43.658C65.7863 46.4832 68.412 48.7558 71.4832 50.2486L68.5215 51.4687L68.5279 51.4847C68.5245 51.4847 68.596 51.4868 68.5913 51.4881C68.2266 51.6468 67.9183 51.9118 67.7066 52.2484C67.4949 52.5851 67.3896 52.9777 67.4045 53.3751V55.4857L60.6924 57.881C60.605 57.908 60.5191 57.9395 60.435 57.9753C58.6935 58.8497 57.204 60.154 56.1074 61.7649C55.0109 63.3758 54.3436 65.2399 54.1688 67.1807C54.164 67.2372 54.1279 67.2938 54.1279 67.3509V82.2395C54.1323 82.7915 54.3511 83.3202 54.738 83.714C55.1248 84.1078 55.6496 84.3359 56.2015 84.3501H103.861C104.406 84.3331 104.923 84.1022 105.3 83.7072C105.676 83.3122 105.882 82.785 105.873 82.2395V67.3506C105.873 67.2941 105.886 67.2376 105.881 67.1804C105.715 65.2425 105.055 63.3794 103.966 61.7682C102.876 60.157 101.393 58.8512 99.6565 57.9749C99.585 57.9392 99.5806 57.9068 99.5057 57.881L92.9365 55.4861V53.3754C92.9246 52.9555 92.7935 52.5476 92.5584 52.1995C92.3233 51.8514 91.9939 51.5773 91.6088 51.4095L91.5748 51.3288H91.5584L88.5195 50.1594C91.5751 48.6743 94.1888 46.4154 96.1009 43.6072C98.013 40.799 99.1569 37.5392 99.4189 34.1519C100.77 33.519 101.859 32.4375 102.502 31.0914C103.145 29.7453 103.302 28.2179 102.945 26.7694C102.768 26.0301 102.436 25.337 101.969 24.737C101.502 24.1369 100.912 23.6438 100.239 23.2906L100.417 22.0515C100.424 22.0018 100.429 21.9534 100.433 21.9034C100.662 18.6499 100.111 15.3887 98.8242 12.3916C97.5377 9.39447 95.5534 6.74829 93.0367 4.67362C90.5201 2.59896 87.5439 1.1559 84.3564 0.464739C81.1689 -0.226419 77.8624 -0.145655 74.7125 0.7003C73.3172 1.11488 71.9656 1.66455 70.6771 2.34149C70.4616 2.44634 70.2457 2.55154 70.0282 2.65537C69.681 2.82174 69.3879 3.08285 69.1827 3.40858C68.9775 3.73431 68.8686 4.11141 68.8684 4.49639C68.869 5.08518 68.7238 5.66495 68.4456 6.18387C68.1674 6.70279 67.7649 7.14468 67.2742 7.47001L62.2982 10.7776C62.0432 10.9467 61.8296 11.171 61.6731 11.4339L61.3776 11.9303C61.3369 11.9984 61.3002 12.0689 61.2677 12.1413C59.9032 15.2059 59.3103 18.5581 59.5407 21.9048ZM86.8837 60.1424L84.6029 64.7014L83.235 63.7897L86.8837 60.1424ZM83.745 57.3816L79.9928 61.2185L76.2556 57.3969V51.8415C77.4699 52.0968 78.7081 52.2202 79.9489 52.2095C81.2249 52.2218 82.4983 52.0905 83.745 51.8183V57.3816ZM76.8252 63.7884L75.4573 64.7L73.1765 60.1407L76.8252 63.7884ZM58.213 67.4412C58.3559 66.2398 58.7842 65.0901 59.462 64.088C60.1399 63.0859 61.0477 62.2605 62.1096 61.6808L68.2631 59.4629L72.8343 68.5979C73.0045 68.9374 73.2658 69.2228 73.589 69.4222C73.9121 69.6216 74.2844 69.7272 74.6641 69.7271C75.0628 69.7271 75.4523 69.6075 75.7824 69.384L77.9577 67.9235V80.265H58.213V67.4412ZM101.788 67.4412V80.265H82.0429V67.9235L84.2485 69.384C84.4915 69.5446 84.7658 69.6521 85.0532 69.6994C85.3406 69.7467 85.6348 69.7329 85.9166 69.6587C86.1967 69.5844 86.4579 69.4513 86.6828 69.2685C86.9077 69.0856 87.0912 68.857 87.2211 68.5979L91.7896 59.4629L97.9203 61.6808C100.094 62.8103 101.447 65.0023 101.788 67.4412ZM98.9767 27.7505C99.0545 28.069 99.0663 28.4 99.0115 28.7231C98.9566 29.0463 98.8361 29.3548 98.6576 29.6297C98.479 29.9046 98.246 30.14 97.9731 30.3215C97.7001 30.503 97.3929 30.6267 97.0703 30.685C96.5955 30.775 96.1671 31.0281 95.8591 31.4005C95.5512 31.773 95.3831 32.2413 95.3838 32.7245C95.3821 34.7467 94.982 36.7488 94.2066 38.6164C93.4311 40.484 92.2954 42.1806 90.8642 43.6092C89.4331 45.0379 87.7345 46.1707 85.8656 46.943C83.9967 47.7152 81.9939 48.1118 79.9717 48.1101C77.9495 48.1083 75.9474 47.7083 74.0798 46.9328C72.2122 46.1573 70.5157 45.0216 69.087 43.5905C67.6583 42.1593 66.5255 40.4608 65.7532 38.5918C64.981 36.7229 64.5844 34.7202 64.5862 32.698C64.5862 32.219 64.418 31.7552 64.1109 31.3877C63.8037 31.0202 63.3772 30.7723 62.9058 30.6874C62.6587 30.5982 62.1841 30.4059 61.9737 30.3129C61.5666 30.0383 61.2534 29.6455 61.0765 29.1874C60.8996 28.7292 60.8675 28.2279 60.9845 27.7509C61.0511 27.4789 61.203 27.2354 61.4179 27.0559C61.6329 26.8764 61.8995 26.7703 62.179 26.7531C62.4267 26.7299 62.6681 26.6615 62.8912 26.5512C64.2523 26.3125 65.4959 25.6293 66.4274 24.6084C67.3588 23.5875 67.9255 22.2866 68.0388 20.9093C68.2726 18.332 69.3511 16.4157 71.6098 14.603L72.5525 14.6125C72.8446 14.6143 73.1241 14.7312 73.3305 14.9379C73.5369 15.1446 73.6534 15.4244 73.6548 15.7165C73.6566 17.0368 74.1825 18.3024 75.1171 19.2351C76.0516 20.1678 77.3183 20.6913 78.6386 20.6905H89.0842C89.9746 20.6935 90.8274 21.0492 91.4561 21.6796C92.0848 22.31 92.4382 23.1639 92.4388 24.0542C92.4387 24.7598 92.6366 25.4513 93.0101 26.0499C93.3835 26.6486 93.9176 27.1304 94.5514 27.4405C95.1852 27.7507 95.8933 27.8767 96.5952 27.8042C97.297 27.7317 97.9645 27.4637 98.5215 27.0306C98.7528 27.2099 98.9139 27.4647 98.9767 27.7505ZM72.836 5.83256C73.7757 5.34614 74.7588 4.94883 75.7726 4.64584C78.288 3.975 80.927 3.91269 83.4713 4.46406C86.0156 5.01543 88.3921 6.16464 90.4041 7.81662C92.4162 9.46861 94.006 11.5759 95.0421 13.9642C96.0783 16.3525 96.5309 18.9531 96.3625 21.5511L96.2761 22.1465C95.8536 20.5604 94.9201 19.1579 93.6199 18.1562C92.3197 17.1545 90.7255 16.6094 89.0842 16.6053H78.6386C78.5212 16.6062 78.4048 16.5839 78.296 16.5397C78.1873 16.4954 78.0884 16.4301 78.005 16.3475C77.9215 16.2649 77.8553 16.1667 77.8099 16.0584C77.7646 15.9501 77.7412 15.8339 77.7409 15.7165C77.7364 14.3485 77.1942 13.0371 76.2313 12.0655C75.2683 11.0938 73.9619 10.5397 72.594 10.523L70.0449 10.4998C71.517 9.33972 72.5105 7.67834 72.836 5.83256ZM64.6917 14.5345L66.0834 14.5481C64.8639 16.3243 64.1357 18.3913 63.9727 20.5396C63.9374 20.9067 63.8153 21.2601 63.6166 21.5708L63.6132 21.5476C63.4502 19.159 63.8185 16.7639 64.6917 14.5345Z" fill="#00FF4A"/>
<path d="M153.671 126.053C153.584 126.017 153.496 125.986 153.406 125.959L146.724 123.564V121.454C146.734 121.044 146.624 120.64 146.408 120.291C146.192 119.943 145.879 119.665 145.507 119.491L145.525 119.415H145.536L142.511 118.242C145.567 116.756 148.182 114.497 150.095 111.689C152.009 108.881 153.154 105.62 153.417 102.232C154.768 101.599 155.858 100.517 156.503 99.1713C157.147 97.8252 157.305 96.2978 156.951 94.8482C156.774 94.109 156.441 93.416 155.975 92.8161C155.508 92.2161 154.919 91.7229 154.246 91.3698L154.424 90.1299C154.431 90.0802 154.436 90.0316 154.44 89.9818C154.669 86.7283 154.118 83.467 152.832 80.4697C151.545 77.4725 149.561 74.8262 147.044 72.7515C144.527 70.6768 141.551 69.2338 138.364 68.5427C135.176 67.8516 131.869 67.9326 128.719 68.7788C127.324 69.1927 125.972 69.7418 124.683 70.4183C124.468 70.5231 124.252 70.6283 124.036 70.7321C123.689 70.8985 123.395 71.1598 123.19 71.4859C122.985 71.8119 122.876 72.1895 122.876 72.5748C122.876 73.1636 122.731 73.7434 122.453 74.2623C122.175 74.7812 121.772 75.2231 121.281 75.5485L116.304 78.8564C116.05 79.0255 115.837 79.2496 115.68 79.512L115.385 80.0084C115.344 80.0767 115.307 80.1472 115.275 80.2198C113.911 83.2845 113.318 86.6366 113.549 89.9832C113.553 90.035 113.558 90.0853 113.566 90.1381L113.746 91.3657C113.069 91.719 112.475 92.2136 112.006 92.8161C111.537 93.4186 111.203 94.1148 111.026 94.8578C110.7 96.1867 110.803 97.5846 111.32 98.8515C111.837 100.118 112.741 101.189 113.904 101.911C114.114 102.035 114.334 102.141 114.562 102.227C114.816 105.632 115.959 108.911 117.877 111.736C119.795 114.562 122.421 116.834 125.492 118.327L122.53 119.547L122.537 119.563C122.533 119.563 122.494 119.565 122.491 119.567C122.113 119.719 121.789 119.979 121.558 120.315C121.327 120.65 121.2 121.046 121.192 121.453V123.564L114.588 125.959C114.518 125.986 114.451 126.018 114.385 126.053C112.655 126.932 111.178 128.239 110.097 129.851C109.015 131.462 108.365 133.324 108.207 135.259C108.203 135.315 108.255 135.372 108.255 135.429V150.318C108.243 150.585 108.285 150.852 108.377 151.103C108.469 151.355 108.61 151.585 108.791 151.782C108.973 151.979 109.191 152.138 109.434 152.25C109.677 152.362 109.94 152.425 110.208 152.436H157.867C158.426 152.422 158.959 152.195 159.356 151.801C159.752 151.407 159.983 150.876 160.001 150.317V135.429C160.001 135.372 159.953 135.316 159.948 135.258C159.771 133.317 159.102 131.452 158.003 129.841C156.905 128.231 155.414 126.927 153.671 126.053ZM134.121 129.296L130.384 125.474V119.92C131.598 120.175 132.836 120.298 134.077 120.288C135.352 120.282 136.624 120.151 137.873 119.896V125.46L134.121 129.296ZM130.831 131.867L129.465 132.78L127.184 128.221L130.831 131.867ZM140.891 128.22L138.61 132.778L137.242 131.867L140.891 128.22ZM126.843 73.9107C127.783 73.4243 128.766 73.027 129.78 72.724C132.295 72.0531 134.934 71.9907 137.479 72.542C140.023 73.0933 142.399 74.2425 144.411 75.8945C146.424 77.5464 148.013 79.6537 149.05 82.042C150.086 84.4303 150.538 87.0309 150.37 89.6288L150.283 90.2283C149.861 88.6425 148.927 87.2404 147.626 86.2392C146.326 85.2381 144.732 84.6939 143.09 84.691H132.645C132.528 84.6914 132.411 84.6686 132.302 84.624C132.193 84.5794 132.095 84.5137 132.011 84.4308C131.928 84.3479 131.862 84.2494 131.816 84.1409C131.771 84.0323 131.748 83.9159 131.747 83.7984C131.743 82.4302 131.201 81.1186 130.238 80.1466C129.275 79.1746 127.969 78.6201 126.601 78.6028L124.051 78.5789C125.524 77.4187 126.518 75.7569 126.843 73.9107ZM118.698 82.6144L120.09 82.628C118.87 84.4041 118.142 86.4711 117.979 88.6195C117.944 88.9866 117.822 89.3401 117.623 89.6506L117.62 89.6271C117.457 87.2386 117.825 84.8436 118.698 82.6144ZM118.593 100.778C118.593 100.299 118.425 99.8352 118.118 99.4676C117.811 99.1001 117.385 98.8522 116.913 98.7672C116.667 98.6784 116.192 98.4857 115.981 98.3928C115.574 98.1182 115.261 97.7253 115.084 97.2672C114.907 96.809 114.875 96.3077 114.992 95.8307C115.058 95.5588 115.21 95.3153 115.425 95.1358C115.64 94.9563 115.907 94.8502 116.186 94.8329C116.434 94.8098 116.675 94.7413 116.898 94.6311C118.26 94.3924 119.503 93.7091 120.435 92.6883C121.366 91.6674 121.933 90.3665 122.046 88.9892C122.28 86.4118 123.358 84.4956 125.617 82.6828L126.56 82.692C126.852 82.6946 127.132 82.8124 127.338 83.0198C127.545 83.2272 127.661 83.5075 127.662 83.8001C127.665 85.1203 128.19 86.3857 129.125 87.3186C130.059 88.2516 131.325 88.7757 132.645 88.7761H143.09C143.98 88.7782 144.833 89.1331 145.462 89.7629C146.091 90.3927 146.444 91.2461 146.445 92.1361C146.445 92.8416 146.643 93.5328 147.017 94.1313C147.391 94.7297 147.925 95.2112 148.558 95.5211C149.192 95.8309 149.9 95.9566 150.602 95.8839C151.304 95.8112 151.971 95.5429 152.528 95.1097C152.759 95.2883 152.92 95.5425 152.983 95.828C153.029 96.0161 153.052 96.2091 153.051 96.4026C153.053 96.9656 152.855 97.5109 152.494 97.9427C152.133 98.3745 151.631 98.665 151.077 98.7631C150.602 98.853 150.174 99.106 149.866 99.4784C149.558 99.8508 149.39 100.319 149.39 100.802C149.398 102.831 149.005 104.84 148.234 106.716C147.462 108.592 146.328 110.297 144.896 111.733C143.464 113.17 141.762 114.309 139.889 115.086C138.015 115.862 136.006 116.261 133.978 116.26C131.95 116.258 129.942 115.855 128.07 115.076C126.197 114.296 124.498 113.153 123.068 111.715C121.638 110.276 120.507 108.569 119.739 106.692C118.971 104.815 118.581 102.804 118.592 100.776L118.593 100.778ZM112.341 135.519C112.341 133.08 114.004 130.889 116.177 129.759L122.3 127.541L126.856 136.676C127.024 137.015 127.283 137.3 127.604 137.5C127.926 137.699 128.296 137.805 128.674 137.805C129.092 137.805 129.5 137.686 129.852 137.462L132.086 136.002V148.351H112.341V135.519ZM155.916 148.351H136.171V136.002L138.316 137.462C138.55 137.623 138.817 137.73 139.097 137.778C139.377 137.825 139.664 137.811 139.939 137.737C140.218 137.662 140.478 137.529 140.702 137.346C140.925 137.163 141.107 136.935 141.236 136.676L145.801 127.541L151.99 129.759C153.056 130.337 153.968 131.162 154.651 132.164C155.333 133.166 155.767 134.316 155.916 135.519V148.351Z" fill="white"/>
<path d="M51.7447 150.317V135.429C51.7447 135.372 51.788 135.316 51.7832 135.258C51.6198 133.322 50.9634 131.459 49.8764 129.847C48.7895 128.236 47.3081 126.93 45.5735 126.053C45.5181 126.017 45.4602 125.986 45.4002 125.959L38.8086 123.564V121.454C38.8026 121.037 38.6774 120.63 38.4476 120.283C38.2179 119.935 37.8932 119.66 37.5122 119.491L37.4908 119.415H37.4809L34.4453 118.242C37.5012 116.756 40.1152 114.497 42.0277 111.689C43.9401 108.88 45.0844 105.62 45.3468 102.232C46.6982 101.6 47.7885 100.518 48.432 99.1715C49.0756 97.8251 49.2326 96.2974 48.8763 94.8482C48.6998 94.1089 48.367 93.416 47.9004 92.816C47.4338 92.216 46.8441 91.7229 46.171 91.3698L46.3487 90.1299C46.3558 90.0802 46.3609 90.0316 46.3643 89.9818C46.5941 86.7283 46.0427 83.467 44.7563 80.4697C43.4698 77.4725 41.4855 74.8262 38.9688 72.7515C36.4521 70.6768 33.4759 69.2338 30.2883 68.5427C27.1007 67.8516 23.7941 67.9326 20.6441 68.7788C19.2486 69.1927 17.8969 69.7418 16.608 70.4183C16.3929 70.5231 16.1767 70.6283 15.9595 70.7321C15.6119 70.8985 15.3184 71.1598 15.113 71.4859C14.9076 71.8119 14.7986 72.1895 14.7987 72.5748C14.7993 73.1636 14.654 73.7434 14.3758 74.2623C14.0976 74.7812 13.6952 75.2231 13.2044 75.5485L8.22741 78.8564C7.97294 79.0255 7.75969 79.2495 7.60341 79.512L7.30758 80.0084C7.26695 80.0767 7.23035 80.1472 7.19797 80.2198C5.83388 83.2845 5.2414 86.6366 5.47235 89.9832C5.47609 90.035 5.48154 90.0853 5.48903 90.1381L5.66877 91.3657C4.99174 91.719 4.39851 92.2136 3.92923 92.8161C3.45996 93.4186 3.12559 94.1148 2.94877 94.8578C2.62312 96.1867 2.72612 97.5846 3.24304 98.8515C3.75996 100.118 4.66432 101.189 5.82673 101.911C6.03668 102.035 6.25683 102.141 6.48477 102.227C6.73899 105.632 7.88217 108.911 9.80014 111.736C11.7181 114.562 14.3438 116.834 17.4148 118.327L14.4531 119.547L14.4596 119.563C14.4562 119.563 14.4967 119.565 14.4936 119.567C14.1255 119.723 13.8129 119.987 13.596 120.323C13.379 120.66 13.2678 121.053 13.2766 121.453V123.564L6.59439 125.959C6.51203 125.986 6.43123 126.018 6.35235 126.053C4.60795 126.927 3.11502 128.23 2.01464 129.841C0.914261 131.452 0.242781 133.316 0.0636597 135.259C0.0588938 135.315 0 135.372 0 135.429V150.318C0.0175847 150.876 0.248466 151.407 0.645228 151.801C1.04199 152.195 1.57452 152.422 2.13345 152.436H49.7931C50.0605 152.425 50.3232 152.362 50.5661 152.25C50.809 152.138 51.0274 151.978 51.2087 151.782C51.39 151.585 51.5307 151.354 51.6227 151.103C51.7147 150.852 51.7562 150.585 51.7447 150.317ZM26.0351 129.297L22.1277 125.474V119.92C23.4018 120.158 24.6949 120.281 25.9912 120.288C27.3226 120.282 28.6506 120.151 29.9575 119.896V125.46L26.0351 129.297ZM22.7571 131.868L21.3893 132.78L19.1084 128.221L22.7571 131.868ZM32.8167 128.221L30.5359 132.78L29.168 131.868L32.8167 128.221ZM18.768 73.9107C19.7077 73.4243 20.6908 73.027 21.7045 72.724C24.22 72.0531 26.859 71.9908 29.4033 72.5422C31.9476 73.0936 34.3241 74.2428 36.3362 75.8948C38.3483 77.5467 39.9382 79.654 40.9743 82.0423C42.0105 84.4306 42.4631 87.0312 42.2949 89.6292L42.208 90.2283C41.7855 88.6427 40.8518 87.2407 39.5515 86.2395C38.2513 85.2384 36.6572 84.6941 35.0162 84.691H24.5709C24.4533 84.6914 24.3368 84.6686 24.228 84.624C24.1193 84.5794 24.0203 84.5137 23.937 84.4308C23.8536 84.3479 23.7874 84.2494 23.7421 84.1409C23.6969 84.0323 23.6734 83.9159 23.6732 83.7984C23.6688 82.4302 23.1266 81.1186 22.1637 80.1466C21.2008 79.1746 19.8944 78.6201 18.5263 78.6028L15.9772 78.5789C17.4494 77.4185 18.4428 75.7568 18.768 73.9107ZM10.624 82.6144L12.0157 82.628C10.7961 84.4041 10.0679 86.4711 9.90503 88.6195C9.87004 88.9866 9.74796 89.3401 9.54895 89.6506L9.54554 89.6271C9.38234 87.2386 9.75066 84.8435 10.624 82.6144ZM10.5192 100.776C10.5193 100.297 10.3511 99.8334 10.044 99.4659C9.73692 99.0984 9.31047 98.8505 8.83916 98.7655C8.59201 98.6767 8.11678 98.484 7.90639 98.3911C7.49916 98.1166 7.18594 97.7238 7.00903 97.2657C6.83212 96.8076 6.80004 96.3063 6.91712 95.8293C6.98386 95.5574 7.13577 95.3139 7.35066 95.1344C7.56556 94.9549 7.8322 94.8488 8.11167 94.8316C8.35941 94.8084 8.6008 94.74 8.82384 94.6297C10.185 94.391 11.4287 93.7078 12.3601 92.6869C13.2916 91.666 13.8582 90.3651 13.9714 88.9878C14.2053 86.4104 15.2838 84.4942 17.5428 82.6814L18.4855 82.6906C18.778 82.6934 19.0576 82.8112 19.2639 83.0186C19.4702 83.2259 19.5865 83.5062 19.5878 83.7987C19.5896 85.1192 20.1153 86.3851 21.0496 87.3183C21.9839 88.2515 23.2504 88.7758 24.5709 88.7761H35.0162C35.9062 88.7782 36.759 89.1331 37.3878 89.7629C38.0166 90.3927 38.3701 91.2461 38.3708 92.1361C38.3709 92.8416 38.569 93.5328 38.9427 94.1313C39.3163 94.7297 39.8504 95.2112 40.4842 95.5211C41.118 95.8309 41.826 95.9566 42.5278 95.8839C43.2295 95.8112 43.8967 95.5429 44.4535 95.1097C44.6849 95.2883 44.8461 95.5425 44.909 95.828C44.9544 96.0161 44.9773 96.2091 44.9771 96.4026C44.9785 96.9656 44.7812 97.5109 44.42 97.9427C44.0589 98.3745 43.5569 98.665 43.0026 98.7631C42.5278 98.853 42.0994 99.106 41.7914 99.4784C41.4835 99.8508 41.3153 100.319 41.3161 100.802C41.3278 102.833 40.9377 104.846 40.1682 106.725C39.3988 108.605 38.2652 110.313 36.8328 111.753C35.4003 113.192 33.6973 114.334 31.8218 115.113C29.9462 115.891 27.9352 116.291 25.9045 116.29C23.8737 116.288 21.8634 115.884 19.9891 115.103C18.1149 114.321 16.4139 113.176 14.9839 111.734C13.5539 110.292 12.4232 108.582 11.657 106.701C10.8907 104.82 10.504 102.807 10.5192 100.776ZM4.08511 135.519C4.23389 134.316 4.66778 133.165 5.35071 132.164C6.03365 131.162 6.94589 130.337 8.01159 129.759L14.1801 127.541L18.7592 136.676C18.9305 137.016 19.1928 137.301 19.5168 137.501C19.8409 137.7 20.2139 137.805 20.5944 137.805C20.9841 137.805 21.3644 137.685 21.6838 137.462L23.8298 136.002V148.351H4.08511V135.519ZM47.6596 148.351H27.9149V136.002L30.1508 137.462C30.3982 137.623 30.6763 137.73 30.9675 137.778C31.2587 137.825 31.5566 137.811 31.8421 137.737C32.1228 137.663 32.3846 137.53 32.6101 137.347C32.8356 137.164 33.0198 136.935 33.1503 136.676L37.7209 127.541L43.8227 129.759C45.9953 130.888 47.6596 133.08 47.6596 135.519V148.351Z" fill="white"/>
<path d="M80.0009 91.0742C79.4592 91.0742 78.9396 91.2894 78.5566 91.6725C78.1735 92.0555 77.9583 92.5751 77.9583 93.1168V112.967L61.2465 132.823C61.0737 133.028 60.9431 133.265 60.8621 133.521C60.781 133.777 60.7511 134.046 60.7741 134.313C60.8205 134.853 61.0795 135.352 61.494 135.701C61.9085 136.05 62.4446 136.22 62.9844 136.173C63.5242 136.127 64.0234 135.868 64.3723 135.454L80.0009 116.885L95.6295 135.454C95.9784 135.868 96.4776 136.127 97.0174 136.173C97.5572 136.22 98.0933 136.05 98.5078 135.701C98.9223 135.352 99.1813 134.853 99.2277 134.313C99.2741 133.773 99.1042 133.237 98.7553 132.823L82.0434 112.967V93.1168C82.0434 92.5751 81.8283 92.0555 81.4452 91.6725C81.0621 91.2894 80.5426 91.0742 80.0009 91.0742Z" fill="white"/>
</svg>
