<svg width="260" height="250" viewBox="0 0 260 250" fill="none" xmlns="http://www.w3.org/2000/svg">
<path d="M241.23 183.74C218.277 170.82 217.722 213.949 203.172 205.768C188.623 197.586 188.623 159.343 173.518 150.828C158.414 142.313 161.19 204.213 142.198 193.513C123.17 182.814 124.836 126.283 112.544 119.36C100.216 112.437 101.364 137.982 86.2594 129.504C71.1547 120.989 63.8616 83.9677 35.3552 67.9005L241.23 183.74Z" fill="url(#paint0_linear)"/>
<path d="M52.6441 77.6371C75.5973 90.5575 76.1526 -7.69685 90.7019 0.484839C105.251 8.66653 105.251 88.6324 120.356 97.1472C135.461 105.662 136.571 29.0652 155.6 39.7644C174.629 50.4635 169.039 134.798 181.33 141.721C193.658 148.644 198.878 113.992 213.983 122.507C229.087 131.022 230.013 177.446 258.556 193.513L52.6441 77.6371Z" fill="url(#paint1_linear)"/>
<path d="M241.23 183.74C218.277 170.819 217.722 130.281 203.173 122.063C188.623 113.881 188.623 140.018 173.519 131.54C158.414 123.025 160.487 71.0103 142.199 53.7954C125.502 38.0984 124.836 86.263 112.545 79.34C100.217 72.4171 101.364 51.0929 86.2595 42.615C71.1549 34.1001 63.8617 83.9307 35.3553 67.9005L241.23 183.74Z" fill="url(#paint2_linear)"/>
<path d="M241.23 183.74C218.277 170.819 217.611 155.048 203.062 146.867C188.512 138.685 187.031 144.683 171.927 136.168C156.822 127.653 160.561 117.694 142.273 100.479C125.576 84.7822 117.135 101.257 104.807 94.3336C92.4792 87.4107 89.3694 76.1192 74.0426 74.3422C58.7158 72.5652 63.8618 83.8937 35.3184 67.8635L241.23 183.74Z" fill="url(#paint3_linear)"/>
<path d="M18.5107 58.423C41.4639 71.3434 42.0192 94.5187 56.5686 102.7C71.1179 110.882 71.1179 94.2226 86.2226 102.737C101.327 111.252 98.5506 162.934 117.542 173.67C136.571 184.369 134.905 133.576 147.196 140.499C159.525 147.422 158.377 167.932 173.482 176.447C188.586 184.962 195.879 158.306 224.386 174.336L18.5107 58.423Z" fill="url(#paint4_linear)"/>
<path d="M18.5107 58.423C41.4639 71.3434 45.7213 77.7481 58.2345 88.7804C70.1553 99.2574 73.6353 90.3353 98.1804 106.143C112.767 115.51 107.103 134.724 120.06 137.537C133.017 140.351 139.274 130.429 151.565 137.352C163.856 144.275 161.857 151.717 176.962 160.231C192.066 168.746 195.842 158.269 224.386 174.299L18.5107 58.423Z" fill="url(#paint5_linear)"/>
<path d="M258 243.915V184L259 184.085V244L258 243.915Z" fill="url(#paint6_linear)"/>
<path d="M201.395 249.267V139.907L201.877 139.981V249.341L201.395 249.267Z" fill="url(#paint7_linear)"/>
<path d="M1.4068 49.2048V48.4273L258.334 192.995V193.773L1.4068 49.2048Z" fill="white"/>
<path d="M203.061 139.351C203.061 140.61 202.432 141.61 201.655 141.61C200.877 141.61 200.248 140.61 200.248 139.351C200.248 138.093 200.877 137.093 201.655 137.093C202.432 137.093 203.061 138.093 203.061 139.351Z" fill="white"/>
<path d="M136.571 204.064V63.3098L137.09 63.4949V204.25L136.571 204.064Z" fill="url(#paint8_linear)"/>
<path d="M138.274 62.7916C138.274 64.0503 137.645 65.0498 136.868 65.0498C136.09 65.0498 135.461 64.0503 135.461 62.7916C135.461 61.5328 136.09 60.5333 136.868 60.5333C137.608 60.5333 138.274 61.5328 138.274 62.7916Z" fill="white"/>
<path d="M83.7791 168.82V58.349L84.2973 58.4971V168.968L83.7791 168.82Z" fill="url(#paint9_linear)"/>
<path d="M85.4449 57.8307C85.4449 59.0895 84.8156 60.089 84.0011 60.089C83.2237 60.089 82.5943 59.0895 82.5943 57.8307C82.5943 56.572 83.2237 55.5724 84.0011 55.5724C84.8156 55.5724 85.4449 56.572 85.4449 57.8307Z" fill="white"/>
<path d="M30.5795 166.858V56.3869L31.0978 56.535V167.006L30.5795 166.858Z" fill="url(#paint10_linear)"/>
<path d="M32.2454 55.8316C32.2454 57.0903 31.6161 58.0899 30.8386 58.0899C30.0612 58.0899 29.4318 57.0903 29.4318 55.8316C29.4318 54.5729 30.0612 53.5733 30.8386 53.5733C31.6161 53.5733 32.2454 54.6099 32.2454 55.8316Z" fill="white"/>
<path d="M1.14764 136.834V26.3627L1.66594 26.4737V136.982L1.14764 136.834Z" fill="url(#paint11_linear)"/>
<path d="M2.81361 25.8074C2.81361 27.0661 2.18425 28.0657 1.40681 28.0657C0.62936 28.0657 0 27.0661 0 25.8074C0 24.5486 0.62936 23.5491 1.40681 23.5491C2.18425 23.5491 2.81361 24.5486 2.81361 25.8074Z" fill="white"/>
<path d="M260 181.926C260 183.185 259.371 184.184 258.593 184.184C257.816 184.184 257.186 183.185 257.186 181.926C257.186 180.667 257.816 179.668 258.593 179.668C259.371 179.668 260 180.667 260 181.926Z" fill="white"/>
<defs>
<linearGradient id="paint0_linear" x1="112.494" y1="171.009" x2="140.137" y2="122.526" gradientUnits="userSpaceOnUse">
<stop offset="0.1386" stop-color="#FF005C"/>
<stop offset="0.2994" stop-color="#E30D3B"/>
<stop offset="0.5536" stop-color="#722800"/>
<stop offset="0.762" stop-color="#351200"/>
<stop offset="0.9138" stop-color="#0E0500"/>
<stop offset="0.9934"/>
</linearGradient>
<linearGradient id="paint1_linear" x1="181.677" y1="79.19" x2="151.334" y2="137.881" gradientUnits="userSpaceOnUse">
<stop stop-color="#FF005C"/>
<stop offset="0.9009" stop-color="#0E0500"/>
<stop offset="0.9934"/>
</linearGradient>
<linearGradient id="paint2_linear" x1="159.644" y1="78.2095" x2="137.511" y2="127.485" gradientUnits="userSpaceOnUse">
<stop stop-color="#00FF4A"/>
<stop offset="1" stop-color="#3BADEA"/>
</linearGradient>
<linearGradient id="paint3_linear" x1="146.044" y1="108.488" x2="135.599" y2="131.744" gradientUnits="userSpaceOnUse">
<stop stop-color="#00FF4A"/>
<stop offset="1" stop-color="#3BADEA"/>
</linearGradient>
<linearGradient id="paint4_linear" x1="97.8097" y1="166.329" x2="120.83" y2="117.728" gradientUnits="userSpaceOnUse">
<stop offset="2e-06" stop-color="#E83155"/>
<stop offset="1" stop-color="#FFDFB9"/>
</linearGradient>
<linearGradient id="paint5_linear" x1="110.637" y1="134.031" x2="120.887" y2="117.327" gradientUnits="userSpaceOnUse">
<stop offset="2e-06" stop-color="#E83155"/>
<stop offset="1" stop-color="#FFDFB9"/>
</linearGradient>
<linearGradient id="paint6_linear" x1="258.521" y1="185.367" x2="258.521" y2="209.636" gradientUnits="userSpaceOnUse">
<stop stop-color="white"/>
<stop offset="0.1206" stop-color="#E7E7E7"/>
<stop offset="0.3755" stop-color="#AAAAAA"/>
<stop offset="0.7402" stop-color="#494949"/>
<stop offset="1"/>
</linearGradient>
<linearGradient id="paint7_linear" x1="201.636" y1="249.357" x2="201.636" y2="139.889" gradientUnits="userSpaceOnUse">
<stop/>
<stop offset="0.090345" stop-color="#060606"/>
<stop offset="0.2167" stop-color="#191919"/>
<stop offset="0.3644" stop-color="#373737"/>
<stop offset="0.5283" stop-color="#606060"/>
<stop offset="0.7054" stop-color="#969696"/>
<stop offset="0.8907" stop-color="#D6D6D6"/>
<stop offset="1" stop-color="white"/>
</linearGradient>
<linearGradient id="paint8_linear" x1="136.834" y1="204.255" x2="136.834" y2="63.3267" gradientUnits="userSpaceOnUse">
<stop/>
<stop offset="0.090345" stop-color="#060606"/>
<stop offset="0.2167" stop-color="#191919"/>
<stop offset="0.3644" stop-color="#373737"/>
<stop offset="0.5283" stop-color="#606060"/>
<stop offset="0.7054" stop-color="#969696"/>
<stop offset="0.8907" stop-color="#D6D6D6"/>
<stop offset="1" stop-color="white"/>
</linearGradient>
<linearGradient id="paint9_linear" x1="84.0338" y1="168.978" x2="84.0338" y2="58.3568" gradientUnits="userSpaceOnUse">
<stop/>
<stop offset="0.090345" stop-color="#060606"/>
<stop offset="0.2167" stop-color="#191919"/>
<stop offset="0.3644" stop-color="#373737"/>
<stop offset="0.5283" stop-color="#606060"/>
<stop offset="0.7054" stop-color="#969696"/>
<stop offset="0.8907" stop-color="#D6D6D6"/>
<stop offset="1" stop-color="white"/>
</linearGradient>
<linearGradient id="paint10_linear" x1="30.8261" y1="167.003" x2="30.8261" y2="56.3822" gradientUnits="userSpaceOnUse">
<stop/>
<stop offset="0.090345" stop-color="#060606"/>
<stop offset="0.2167" stop-color="#191919"/>
<stop offset="0.3644" stop-color="#373737"/>
<stop offset="0.5283" stop-color="#606060"/>
<stop offset="0.7054" stop-color="#969696"/>
<stop offset="0.8907" stop-color="#D6D6D6"/>
<stop offset="1" stop-color="white"/>
</linearGradient>
<linearGradient id="paint11_linear" x1="1.40065" y1="136.965" x2="1.40065" y2="26.3442" gradientUnits="userSpaceOnUse">
<stop/>
<stop offset="0.090345" stop-color="#060606"/>
<stop offset="0.2167" stop-color="#191919"/>
<stop offset="0.3644" stop-color="#373737"/>
<stop offset="0.5283" stop-color="#606060"/>
<stop offset="0.7054" stop-color="#969696"/>
<stop offset="0.8907" stop-color="#D6D6D6"/>
<stop offset="1" stop-color="white"/>
</linearGradient>
</defs>
</svg>
