<svg width="160" height="92" viewBox="0 0 160 92" fill="none" xmlns="http://www.w3.org/2000/svg">
<circle cx="26.4937" cy="36.8834" r="12.026" stroke="white" stroke-width="4"/>
<circle cx="133.506" cy="36.8834" r="12.026" stroke="white" stroke-width="4"/>
<path d="M50.987 84.876C50.987 86.6155 50.808 87.743 50.5612 88.4478C50.3284 89.1125 50.088 89.2667 49.9887 89.3179C49.8402 89.3944 49.4995 89.4889 48.7613 89.3773C48.0264 89.2662 47.1032 88.983 45.9448 88.5377C44.9809 88.1673 43.94 87.7192 42.7853 87.2222C42.5596 87.125 42.3295 87.026 42.0948 86.9253C40.6796 86.3181 39.1301 85.6658 37.489 85.0695C34.2121 83.8787 30.4793 82.876 26.4935 82.876C22.5077 82.876 18.7749 83.8787 15.498 85.0695C13.8569 85.6658 12.3074 86.3181 10.8922 86.9253C10.6575 87.026 10.4274 87.125 10.2017 87.2222C9.04696 87.7192 8.00606 88.1673 7.04219 88.5377C5.8838 88.983 4.96065 89.2662 4.22568 89.3773C3.48752 89.4889 3.14678 89.3944 2.99836 89.3179C2.89904 89.2667 2.65863 89.1125 2.42586 88.4478C2.17906 87.743 2 86.6155 2 84.876C2 71.2234 12.9803 60.1816 26.4935 60.1816C40.0067 60.1816 50.987 71.2234 50.987 84.876Z" stroke="white" stroke-width="4"/>
<path d="M158 84.876C158 86.6155 157.821 87.743 157.574 88.4478C157.341 89.1125 157.101 89.2667 157.001 89.3179C156.853 89.3944 156.512 89.4889 155.774 89.3773C155.039 89.2662 154.116 88.983 152.958 88.5377C151.994 88.1673 150.953 87.7192 149.798 87.2222C149.572 87.125 149.342 87.026 149.108 86.9253C147.692 86.3181 146.143 85.6658 144.502 85.0695C141.225 83.8787 137.492 82.876 133.506 82.876C129.52 82.876 125.788 83.8787 122.511 85.0695C120.87 85.6658 119.32 86.3181 117.905 86.9253C117.67 87.026 117.44 87.125 117.214 87.2222C116.06 87.7192 115.019 88.1673 114.055 88.5377C112.896 88.983 111.973 89.2662 111.238 89.3773C110.5 89.4889 110.159 89.3944 110.011 89.3179C109.912 89.2667 109.671 89.1125 109.439 88.4478C109.192 87.743 109.013 86.6155 109.013 84.876C109.013 71.2234 119.993 60.1816 133.506 60.1816C147.019 60.1816 158 71.2234 158 84.876Z" stroke="white" stroke-width="4"/>
<circle cx="80.0001" cy="18.7013" r="16.7013" stroke="#00FF4A" stroke-width="4"/>
<path d="M114.364 82.4196C114.364 84.8504 114.116 86.4966 113.737 87.5798C113.373 88.6231 112.938 89.0144 112.589 89.1946C112.191 89.3999 111.546 89.516 110.453 89.3505C109.364 89.1855 108.037 88.773 106.432 88.155C105.094 87.6398 103.649 87.0168 102.065 86.3335C101.756 86.2002 101.441 86.0647 101.121 85.9271C99.181 85.0932 97.0704 84.2033 94.8389 83.3909C90.381 81.7681 85.3495 80.4196 80.0004 80.4196C74.6512 80.4196 69.6197 81.7681 65.1618 83.3909C62.9303 84.2033 60.8197 85.0932 58.8794 85.9271C58.5594 86.0646 58.245 86.2002 57.9359 86.3335C56.3513 87.0168 54.9065 87.6398 53.5687 88.155C51.9638 88.773 50.6369 89.1855 49.5475 89.3505C48.4551 89.516 47.8096 89.3999 47.412 89.1946C47.0631 89.0144 46.6282 88.6231 46.2635 87.5798C45.8849 86.4966 45.6367 84.8504 45.6367 82.4196C45.6367 63.235 61.0394 47.7148 80.0004 47.7148C98.9613 47.7148 114.364 63.235 114.364 82.4196Z" stroke="#00FF4A" stroke-width="4"/>
</svg>
