<svg width="159" height="163" viewBox="0 0 159 163" fill="none" xmlns="http://www.w3.org/2000/svg">
<path d="M38.6554 100.134C39.3163 99.7069 40.1662 99.7069 40.827 100.134L73.2003 121.062C74.4193 121.85 74.4193 123.633 73.2003 124.421L74.2861 126.101L73.2003 124.421L40.827 145.349C40.1662 145.776 39.3163 145.776 38.6554 145.349L6.28213 124.421C5.06316 123.633 5.06316 121.85 6.28212 121.062L38.6554 100.134Z" fill="#190624" stroke="#00FF4A" stroke-width="4"/>
<path d="M38.6554 84.1888C39.3163 83.7616 40.1662 83.7616 40.827 84.1888L73.2003 105.116C74.4193 105.904 74.4193 107.688 73.2003 108.476L74.2861 110.155L73.2003 108.476L40.827 129.403C40.1662 129.83 39.3163 129.83 38.6554 129.403L6.28213 108.476C5.06316 107.688 5.06316 105.904 6.28212 105.116L38.6554 84.1888Z" fill="#190624" stroke="#00FF4A" stroke-width="4"/>
<path d="M38.6554 67.7962C39.3163 67.369 40.1662 67.369 40.827 67.7962L73.2003 88.7238C74.4193 89.5118 74.4193 91.295 73.2003 92.083L74.2861 93.7626L73.2003 92.083L40.827 113.011C40.1662 113.438 39.3163 113.438 38.6554 113.011L6.28213 92.083C5.06316 91.295 5.06316 89.5118 6.28212 88.7238L38.6554 67.7962Z" fill="#190624" stroke="#00FF4A" stroke-width="4"/>
<path d="M38.6554 51.472C39.3163 51.0448 40.1662 51.0448 40.827 51.472L73.2003 72.3996C74.4193 73.1876 74.4193 74.9708 73.2003 75.7588L74.2861 77.4384L73.2003 75.7588L40.827 96.6864C40.1662 97.1136 39.3163 97.1136 38.6554 96.6864L6.28213 75.7588C5.06316 74.9708 5.06316 73.1876 6.28212 72.3996L38.6554 51.472Z" fill="#190624" stroke="#00FF4A" stroke-width="4"/>
<path d="M118.173 100.134C118.833 99.7069 119.683 99.7069 120.344 100.134L152.717 121.062C153.936 121.85 153.936 123.633 152.717 124.421L153.803 126.101L152.717 124.421L120.344 145.349C119.683 145.776 118.833 145.776 118.173 145.349L85.7992 124.421C84.5802 123.633 84.5803 121.85 85.7992 121.062L118.173 100.134Z" fill="#190624" stroke="#00FF4A" stroke-width="4"/>
<path d="M118.173 84.1888C118.833 83.7616 119.683 83.7616 120.344 84.1888L152.717 105.116C153.936 105.904 153.936 107.688 152.717 108.476L153.803 110.155L152.717 108.476L120.344 129.403C119.683 129.83 118.833 129.83 118.173 129.403L85.7992 108.476C84.5802 107.688 84.5803 105.904 85.7992 105.116L118.173 84.1888Z" fill="#190624" stroke="#00FF4A" stroke-width="4"/>
<path d="M118.173 67.7962C118.833 67.369 119.683 67.369 120.344 67.7962L152.717 88.7238C153.936 89.5118 153.936 91.295 152.717 92.083L153.803 93.7626L152.717 92.083L120.344 113.011C119.683 113.438 118.833 113.438 118.173 113.011L85.7992 92.083C84.5802 91.295 84.5803 89.5118 85.7992 88.7238L118.173 67.7962Z" fill="#190624" stroke="#00FF4A" stroke-width="4"/>
<path d="M118.173 51.472C118.833 51.0448 119.683 51.0448 120.344 51.472L152.717 72.3996C153.936 73.1876 153.936 74.9708 152.717 75.7588L153.803 77.4384L152.717 75.7588L120.344 96.6864C119.683 97.1136 118.833 97.1136 118.173 96.6864L85.7992 75.7588C84.5802 74.9708 84.5803 73.1876 85.7992 72.3996L118.173 51.472Z" fill="#190624" stroke="#00FF4A" stroke-width="4"/>
<path d="M118.173 34.302C118.834 33.8749 119.684 33.8749 120.345 34.302L152.718 55.2297C153.937 56.0177 153.937 57.8009 152.718 58.5889L153.804 60.2685L152.718 58.5889L120.345 79.5165C119.684 79.9437 118.834 79.9437 118.173 79.5165L85.7997 58.5889C84.5807 57.8009 84.5807 56.0177 85.7997 55.2297L118.173 34.302Z" fill="#190624" stroke="#00FF4A" stroke-width="4"/>
<path d="M118.173 17.1341C118.834 16.7069 119.684 16.7069 120.345 17.1341L152.718 38.0617C153.937 38.8497 153.937 40.6329 152.718 41.4209L153.804 43.1005L152.718 41.4209L120.345 62.3485C119.684 62.7757 118.834 62.7757 118.173 62.3485L85.7997 41.4209C84.5807 40.6329 84.5807 38.8497 85.7997 38.0617L118.173 17.1341Z" fill="#190624" stroke="white" stroke-width="4"/>
</svg>
