<svg width="160" height="140" viewBox="0 0 160 140" fill="none" xmlns="http://www.w3.org/2000/svg">
<path d="M145.398 2.04284e-07C141.527 0.00432898 137.816 1.544 135.079 4.28122C132.342 7.01844 130.802 10.7296 130.798 14.6006C130.798 14.9384 130.814 15.2724 130.836 15.6046L112.69 32.2365C110.383 29.6569 107.235 27.9808 103.807 27.5074C100.379 27.034 96.894 27.7941 93.9745 29.652C91.055 31.5099 88.8907 34.3447 87.8678 37.6506C86.8448 40.9565 87.0299 44.5183 88.3899 47.7004L70.899 62.4517C69.6875 60.3306 67.9626 58.5478 65.8828 57.267C63.8029 55.9861 61.4346 55.2482 58.9953 55.121C56.5559 54.9938 54.1237 55.4813 51.9219 56.5388C49.72 57.5963 47.8191 59.19 46.3935 61.1735L28.7149 48.865C29.6978 45.3475 29.3292 41.5895 27.6815 38.3299C26.0339 35.0704 23.2265 32.5452 19.8112 31.2508C16.396 29.9564 12.6201 29.9865 9.22594 31.3352C5.83178 32.6839 3.06496 35.2535 1.46949 38.5389C-0.125982 41.8242 -0.434655 45.5876 0.60416 49.0891C1.64297 52.5905 3.95411 55.5767 7.08315 57.4604C10.2122 59.3441 13.9327 59.989 17.5132 59.2684C21.0937 58.5478 24.2751 56.5138 26.4319 53.5663L44.1401 65.8972C43.5729 67.9878 43.4779 70.1784 43.8621 72.3103C44.2462 74.4421 45.0998 76.4618 46.3611 78.2229C47.6224 79.9841 49.2597 81.4425 51.1543 82.4926C53.049 83.5427 55.1535 84.1581 57.3154 84.2942C59.4774 84.4303 61.6425 84.0837 63.6539 83.2795C65.6653 82.4754 67.4725 81.2338 68.9447 79.6447C70.4169 78.0557 71.5171 76.159 72.1656 74.0921C72.814 72.0253 72.9946 69.84 72.694 67.6948L91.26 52.0368C93.5872 54.4837 96.6911 56.0475 100.042 56.4615C103.394 56.8756 106.785 56.1143 109.638 54.3074C112.491 52.5006 114.628 49.7601 115.686 46.5533C116.744 43.3465 116.657 39.872 115.44 36.7222L132.38 21.1959C133.554 23.512 135.324 25.4732 137.508 26.8773C139.692 28.2814 142.211 29.0776 144.805 29.1838C147.399 29.29 149.975 28.7024 152.266 27.4816C154.558 26.2607 156.482 24.4508 157.841 22.2385C159.2 20.0261 159.944 17.4913 159.997 14.8955C160.05 12.2996 159.409 9.73661 158.142 7.47071C156.874 5.20481 155.025 3.318 152.785 2.00481C150.545 0.691618 147.996 -0.000434096 145.4 2.04284e-07H145.398ZM14.651 54.3909C12.7847 54.3909 10.9603 53.8375 9.40851 52.8006C7.85672 51.7637 6.64726 50.29 5.93307 48.5657C5.21888 46.8414 5.03204 44.9441 5.39617 43.1136C5.7603 41.2832 6.65906 39.6018 7.97878 38.2822C9.29849 36.9625 10.9799 36.0638 12.8104 35.6998C14.6408 35.3357 16.5382 35.5227 18.2624 36.2369C19.9866 36.9512 21.4603 38.1607 22.4971 39.7125C23.534 41.2644 24.0873 43.0888 24.0872 44.9551C24.0843 47.4568 23.0891 49.8552 21.3201 51.6241C19.5511 53.393 17.1527 54.3881 14.651 54.3909ZM58.2333 79.1369C56.367 79.1369 54.5426 78.5835 52.9908 77.5466C51.4391 76.5098 50.2296 75.036 49.5154 73.3118C48.8012 71.5876 48.6143 69.6903 48.9784 67.8598C49.3425 66.0294 50.2412 64.348 51.5609 63.0283C52.8806 61.7087 54.5619 60.8099 56.3924 60.4459C58.2228 60.0818 60.1201 60.2686 61.8444 60.9828C63.5686 61.697 65.0424 62.9065 66.0792 64.4583C67.1161 66.01 67.6695 67.8344 67.6695 69.7007C67.6668 72.2025 66.6717 74.6011 64.9027 76.3701C63.1336 78.1392 60.7351 79.1342 58.2333 79.1369ZM101.816 51.4024C99.9497 51.4024 98.1253 50.849 96.5735 49.8122C95.0218 48.7753 93.8123 47.3016 93.0981 45.5773C92.3839 43.8531 92.197 41.9558 92.5611 40.1253C92.9252 38.2949 93.8239 36.6135 95.1436 35.2938C96.4633 33.9742 98.1446 33.0755 99.9751 32.7114C101.806 32.3473 103.703 32.5341 105.427 33.2483C107.151 33.9625 108.625 35.172 109.662 36.7238C110.699 38.2756 111.252 40.0999 111.252 41.9662C111.25 44.4682 110.255 46.8669 108.486 48.6361C106.717 50.4053 104.318 51.4005 101.816 51.4033V51.4024ZM145.398 24.0368C143.532 24.0368 141.708 23.4834 140.156 22.4465C138.604 21.4096 137.395 19.9359 136.68 18.2117C135.966 16.4874 135.779 14.5901 136.143 12.7597C136.507 10.9292 137.406 9.24786 138.726 7.92819C140.046 6.60851 141.727 5.7098 143.557 5.3457C145.388 4.9816 147.285 5.16847 149.009 5.88268C150.734 6.59688 152.207 7.80634 153.244 9.35812C154.281 10.9099 154.834 12.7343 154.834 14.6006C154.832 17.1023 153.837 19.5008 152.068 21.2698C150.299 23.0389 147.9 24.0339 145.398 24.0368Z" fill="white"/>
<path d="M71.0609 102.291C71.0609 101.606 70.7889 100.95 70.3046 100.465C69.8203 99.981 69.1635 99.709 68.4787 99.709H47.3908C46.7059 99.709 46.0492 99.981 45.5649 100.465C45.0806 100.95 44.8086 101.606 44.8086 102.291V137.151C44.8086 137.836 45.0806 138.492 45.5649 138.977C46.0492 139.461 46.7059 139.733 47.3908 139.733H68.4787C69.1635 139.733 69.8203 139.461 70.3046 138.977C70.7889 138.492 71.0609 137.836 71.0609 137.151V102.291ZM66.3269 134.138H49.973V104.873H66.3269V134.138Z" fill="#00FF4A"/>
<path d="M114.528 74.9631C114.528 74.2782 114.256 73.6214 113.771 73.1372C113.287 72.6529 112.63 72.3809 111.946 72.3809H90.8576C90.1727 72.3809 89.516 72.6529 89.0317 73.1372C88.5474 73.6214 88.2754 74.2782 88.2754 74.9631V137.151C88.2754 137.836 88.5474 138.493 89.0317 138.977C89.516 139.461 90.1727 139.733 90.8576 139.733H111.946C112.63 139.733 113.287 139.461 113.771 138.977C114.256 138.493 114.528 137.836 114.528 137.151V74.9631ZM109.794 134.138H93.4398V77.5452H109.794V134.138Z" fill="#00FF4A"/>
<path d="M157.994 45.9123C157.994 45.2274 157.722 44.5706 157.238 44.0864C156.754 43.6021 156.097 43.3301 155.412 43.3301H134.324C133.64 43.3301 132.983 43.6021 132.498 44.0864C132.014 44.5706 131.742 45.2274 131.742 45.9123L131.742 137.15C131.742 137.835 132.014 138.491 132.498 138.976C132.983 139.46 133.64 139.732 134.324 139.732H155.412C156.097 139.732 156.754 139.46 157.238 138.976C157.722 138.491 157.994 137.835 157.994 137.15V45.9123ZM153.26 134.137H136.907V48.4945H153.26V134.137Z" fill="#00FF4A"/>
<path d="M27.5936 77.3302C27.5936 76.6454 27.3216 75.9886 26.8373 75.5044C26.3531 75.0201 25.6963 74.748 25.0114 74.748H3.9235C3.23866 74.748 2.58187 75.0201 2.09762 75.5044C1.61336 75.9886 1.34131 76.6454 1.34131 77.3302V136.721C1.34131 137.406 1.61336 138.062 2.09762 138.547C2.58187 139.031 3.23866 139.303 3.9235 139.303H25.0114C25.6963 139.303 26.3531 139.031 26.8373 138.547C27.3216 138.062 27.5936 137.406 27.5936 136.721V77.3302ZM22.8596 134.139H6.5057V79.9124H22.8596V134.139Z" fill="#00FF4A"/>
</svg>
