<svg width="132" height="100" viewBox="0 0 132 100" fill="none" xmlns="http://www.w3.org/2000/svg">
<path d="M131.328 27.561L123.294 9.70497C121.306 5.28641 117.368 1.91649 112.706 0.608695C111.27 0.204907 109.777 0 108.284 0H23.3723C18.3782 0 13.5468 2.35141 10.4521 6.26675C9.61744 7.32142 8.91433 8.47854 8.36289 9.70497L0.328313 27.561C-0.289422 28.9331 -0.0192258 30.5935 1.0023 31.6983L63.0249 98.7834C64.4994 100.406 67.1582 100.406 68.6317 98.7834L130.654 31.6983C131.672 30.5965 131.944 28.9291 131.328 27.561ZM107.301 7.59663L91.1494 23.7481L74.9979 7.59663H107.301ZM81.9798 25.3211H49.6768L65.8283 9.1696L81.9798 25.3211ZM56.6587 7.59663L40.5072 23.7481L24.3557 7.59663H56.6587ZM15.2906 12.8218C15.6491 12.0252 16.1182 11.299 16.6737 10.6582L31.3376 25.3211H9.66565L15.2906 12.8218ZM12.4761 32.9177H37.8806L55.4011 79.3483L12.4761 32.9177ZM65.8283 85.4624L46.0005 32.9177H85.6561L65.8283 85.4624ZM76.2555 79.3473L93.7761 32.9177H119.181L76.2555 79.3473ZM100.319 25.3211L114.982 10.6582C115.538 11.299 116.007 12.0252 116.366 12.8218L121.991 25.3211H100.319Z" fill="#00FF4A"/>
</svg>
