<svg width="103" height="132" viewBox="0 0 103 132" fill="none" xmlns="http://www.w3.org/2000/svg">
<path d="M102.981 46.7899C101.708 34.0212 95.7891 22.2142 86.3143 13.5412C76.7735 4.80881 64.4098 0 51.5004 0C38.59 0 26.2263 4.80981 16.6854 13.5422C7.20967 22.2152 1.29069 34.0242 0.018974 46.793C-0.155261 48.5433 0.885142 50.1858 2.53637 50.7669L12.7612 54.3632C13.9668 54.7872 15.3066 54.5686 16.32 53.7871C22.318 49.1556 30.6973 49.1556 36.6954 53.7871C36.7064 53.7952 36.7215 53.8063 36.7325 53.8153C38.0913 54.8395 39.9628 54.8295 41.3097 53.7892C43.2493 52.2906 45.4382 51.2805 47.7143 50.7508V63.6736C30.7003 65.575 17.4254 80.1213 17.4254 97.7311C17.4254 116.627 32.7121 132 51.5004 132C70.2887 132 85.5743 116.627 85.5743 97.7311C85.5743 80.1213 72.2994 65.575 55.2865 63.6747V50.7518C57.5606 51.2805 59.7475 52.2906 61.6851 53.7871C63.046 54.8395 64.9425 54.8365 66.3024 53.7871C72.2974 49.1576 80.6707 49.1546 86.6688 53.7801C87.6742 54.5626 89.037 54.7862 90.2376 54.3632L100.464 50.7639C102.116 50.1828 103.156 48.5403 102.981 46.7899ZM13.4311 46.5311L7.94466 44.6016C10.6804 28.1277 22.2209 15.0005 37.4014 9.90665C28.7097 18.7337 23.4175 30.4299 22.5904 43.0204C19.3851 43.5451 16.2629 44.7123 13.4311 46.5311ZM39.0035 46.1706C36.2568 44.515 33.2578 43.4525 30.1867 42.9822C31.179 30.2416 37.5286 18.6169 47.7143 10.9429V43.0013C44.6802 43.4797 41.7182 44.5341 39.0035 46.1706ZM24.9977 97.7311C24.9977 84.3268 34.888 73.2036 47.7143 71.3496V79.224C41.8944 80.8867 37.6177 86.2755 37.6177 92.6534V97.7311C37.6177 99.8339 39.313 101.539 41.4038 101.539H57.8099V102.808C57.8099 106.307 54.9791 109.153 51.5004 109.153H41.4038C39.313 109.153 37.6177 110.858 37.6177 112.961C37.6177 115.064 39.313 116.769 41.4038 116.769H47.7143V124.112C34.888 122.259 24.9977 111.135 24.9977 97.7311ZM78.0021 97.7311C78.0021 111.135 68.1118 122.259 55.2865 124.112V116.237C61.1054 114.576 65.3821 109.186 65.3821 102.808V97.7311C65.3821 95.6283 63.6868 93.9233 61.596 93.9233H45.1899V92.6534C45.1899 89.1548 48.0207 86.3078 51.5004 86.3078H61.596C63.6868 86.3078 65.3821 84.6028 65.3821 82.5C65.3821 80.3972 63.6868 78.6922 61.596 78.6922H55.2865V71.3496C68.1118 73.2036 78.0021 84.3268 78.0021 97.7311ZM63.9942 46.1706C61.2796 44.5341 58.3186 43.4797 55.2855 43.0013V10.9429C65.4712 18.6169 71.8208 30.2416 72.8131 42.9832C69.741 43.4535 66.741 44.515 63.9942 46.1706ZM89.5657 46.5311C86.7349 44.7133 83.6147 43.5461 80.4104 43.0225C79.5833 30.4309 74.2911 18.7347 65.5994 9.90765C80.7769 15.0015 92.3174 28.1277 95.0551 44.5995L89.5657 46.5311Z" fill="#00FF4A"/>
</svg>
