<svg width="84" height="100" viewBox="0 0 84 100" fill="none" xmlns="http://www.w3.org/2000/svg">
<path d="M83.6538 41.8268C83.6538 34.1173 81.5695 26.6764 77.606 20.1548L82.7467 15.3162C83.6073 14.5052 83.8865 13.2517 83.4509 12.1523C83.0145 11.0529 81.9517 10.3312 80.7691 10.3312H73.3229V2.88493C73.3229 1.70238 72.6011 0.639608 71.5017 0.203208C70.4031 -0.232429 69.1488 0.0460429 68.3378 0.907399L63.4993 6.04807C56.9785 2.08461 49.5368 0.000266601 41.8265 0.000266601C18.7637 0.000266601 0 18.764 0 41.8268C0 54.7715 5.91124 66.3606 15.1748 74.0388L12.046 96.7209C11.8103 98.4291 13.1813 100 14.904 100H26.4419C27.7396 100 28.8779 99.1333 29.2228 97.8829L33.3846 82.7973C36.1121 83.3588 38.9357 83.6541 41.8265 83.6541C44.7181 83.6541 47.5417 83.3588 50.2692 82.7973L54.4302 97.8829C54.7759 99.1333 55.9134 100 57.2112 100H68.7498C70.4725 100 71.8428 98.4291 71.607 96.7209L68.479 74.0388C77.7426 66.3606 83.6538 54.7715 83.6538 41.8268ZM24.2454 94.2307H18.2136L20.4795 77.8023C22.8118 79.1909 25.267 80.3437 27.8266 81.2516L24.2454 94.2307ZM59.4077 94.2307L55.8272 81.2508C58.3868 80.3437 60.8412 79.1909 63.1743 77.8023L65.4402 94.2307H59.4077ZM66.3458 41.8268C66.3458 55.3468 55.3465 66.3461 41.8265 66.3461C28.3065 66.3461 17.308 55.3468 17.308 41.8268C17.308 28.3068 28.3065 17.3083 41.8265 17.3083C46.4759 17.3083 50.9436 18.5946 54.8361 21.0413V24.7378L52.8815 26.6932C49.7801 24.4211 45.9578 23.0768 41.8265 23.0768C31.488 23.0768 23.0766 31.4882 23.0766 41.8268C23.0766 52.1661 31.488 60.5767 41.8265 60.5767C52.1659 60.5767 60.5765 52.1661 60.5765 41.8268C60.5765 37.6962 59.2329 33.8739 56.9609 30.7726L58.9163 28.8172H62.6128C65.0595 32.7097 66.3458 37.1774 66.3458 41.8268ZM54.8079 41.8268C54.8079 48.9847 48.9844 54.8082 41.8265 54.8082C34.6694 54.8082 28.8459 48.9847 28.8459 41.8268C28.8459 34.6697 34.6694 28.8462 41.8265 28.8462C44.3633 28.8462 46.7299 29.5801 48.7319 30.8428L39.7872 39.7875C38.6603 40.9136 38.6603 42.74 39.7872 43.8669C40.8988 44.9785 42.755 44.9785 43.8666 43.8669L52.8113 34.9222C54.0732 36.9241 54.8079 39.2908 54.8079 41.8268ZM70.4382 16.1005H73.4961L66.1131 23.0486H60.6055V17.5402L67.5535 10.1573V13.2159C67.5535 14.8089 68.8452 16.1005 70.4382 16.1005ZM5.76933 41.8268C5.76933 21.9446 21.9444 5.7696 41.8265 5.7696C48.0574 5.7696 54.0839 7.34735 59.4427 10.3579L55.6204 14.4198C55.5296 14.5167 55.448 14.6204 55.3725 14.728C51.1946 12.6315 46.5865 11.5389 41.8265 11.5389C25.1258 11.5389 11.5387 25.1261 11.5387 41.8268C11.5387 58.5283 25.1258 72.1154 41.8265 72.1154C58.528 72.1154 72.1151 58.5283 72.1151 41.8268C72.1151 37.0668 71.0226 32.4594 68.9261 28.2816C69.0336 28.2061 69.1374 28.1244 69.2343 28.0336L73.2962 24.2113C76.3067 29.5702 77.8845 35.5966 77.8845 41.8275C77.8845 61.7097 61.7087 77.8847 41.8265 77.8847C21.9444 77.8847 5.76933 61.7097 5.76933 41.8268Z" fill="#00FF4A"/>
</svg>
