<svg width="120" height="100" viewBox="0 0 120 100" fill="none" xmlns="http://www.w3.org/2000/svg">
<path d="M119.541 3.44838C119.541 1.54406 117.997 0 116.093 0H105.748C104.386 0 103.152 0.801672 102.598 2.04568C102.044 3.28968 102.274 4.74254 103.185 5.7549L106.388 9.31363L64.9999 31.3874L48.4156 14.8031C47.416 13.8035 45.9066 13.5153 44.6088 14.0762L2.08 32.4673C0.332559 33.2234 -0.471849 35.2526 0.284222 37.001C1.02935 38.7256 3.09144 39.5437 4.81791 38.7977L45.1961 21.336L61.93 38.0708C63.0035 39.1442 64.6524 39.3896 65.9913 38.6745L111.141 14.5952L113.53 17.2492C114.547 18.3801 116.234 18.7084 117.602 18.0426C118.777 17.4717 119.541 16.2487 119.541 14.9427V3.44838Z" fill="#00FF4A"/>
<path d="M117.867 23.48C116.829 22.8571 115.539 22.8242 114.47 23.3942L64.9998 49.7783L48.4164 33.194C47.4159 32.1944 45.9074 31.9062 44.6096 32.4671L2.07991 50.8581C0.817665 51.4035 0.000488281 52.6475 0.000488281 54.0229V96.5516C0.000488281 98.4569 1.54455 100 3.44887 100H116.093C117.998 100 119.541 98.4569 119.541 96.5516V26.4368C119.541 25.2256 118.905 24.1029 117.867 23.48ZM6.89724 56.2883L22.5294 49.5284V93.1033H6.89724V56.2883ZM29.4262 46.5461L45.0583 39.787V93.1042H29.4262V46.5461ZM51.9551 46.4859L61.9299 56.4616C63.0034 57.5351 64.6523 57.7804 65.9912 57.0654L67.5872 56.2145V93.1042H51.9551V46.4859ZM74.4831 52.5353L90.1152 44.1994V93.1033H74.4831V52.5353ZM112.644 93.1033H97.012V40.5221L112.644 32.1844V93.1033Z" fill="#00FF4A"/>
</svg>
