<svg width="100" height="100" viewBox="0 0 100 100" fill="none" xmlns="http://www.w3.org/2000/svg">
<path d="M90.3847 40.3847C86.087 40.3847 82.4402 43.2182 81.2119 47.1153H75.8003C75.2449 42.115 73.2643 37.5397 70.2751 33.8043L74.1081 29.9721C75.4646 30.6816 76.9814 31.0593 78.5568 31.0593C81.1249 31.0593 83.5396 30.0591 85.3554 28.2425C89.1045 24.4934 89.1045 18.3937 85.3554 14.6446C81.6071 10.8955 75.5066 10.8955 71.7575 14.6446C69.9409 16.4604 68.9407 18.8751 68.9407 21.4432C68.9407 23.0186 69.3184 24.5354 70.0287 25.8919L66.1957 29.7249C62.4603 26.7357 57.885 24.7551 52.8847 24.1997V18.7881C56.7818 17.5598 59.6153 13.913 59.6153 9.61533C59.6153 4.31366 55.3017 0 50 0C44.6983 0 40.3847 4.31366 40.3847 9.61533C40.3847 13.913 43.2182 17.5598 47.1153 18.7881V24.1997C42.115 24.7551 37.5397 26.7357 33.8043 29.7249L29.9713 25.8926C30.6816 24.5354 31.0593 23.0186 31.0593 21.4439C31.0593 18.8751 30.0591 16.4604 28.2425 14.6446C24.4942 10.8955 18.3937 10.8955 14.6446 14.6446C10.8955 18.3937 10.8955 24.4942 14.6446 28.2433C16.4604 30.0591 18.8751 31.0593 21.4432 31.0593C23.0186 31.0593 24.5354 30.6816 25.8919 29.9721L29.7249 33.8051C26.7357 37.5397 24.7551 42.115 24.1997 47.1153H18.7881C17.5598 43.2182 13.913 40.3847 9.61533 40.3847C4.31366 40.3847 0 44.6983 0 50C0 55.3017 4.31366 59.6153 9.61533 59.6153C13.913 59.6153 17.5598 56.7818 18.7881 52.8847H24.1997C24.7551 57.885 26.7357 62.4603 29.7249 66.1957L25.8919 70.0279C24.5354 69.3184 23.0186 68.9407 21.4432 68.9407C18.8751 68.9407 16.4604 69.9409 14.6446 71.7575C10.8955 75.5066 10.8955 81.6063 14.6446 85.3554C16.5192 87.2299 18.9812 88.1668 21.4439 88.1668C23.9059 88.1668 26.368 87.2299 28.2425 85.3554C30.0583 83.5396 31.0593 81.1249 31.0593 78.5568C31.0593 76.9814 30.6816 75.4646 29.9713 74.1081L33.8043 70.2751C37.5397 73.2643 42.115 75.2449 47.1153 75.8003V81.2119C43.2182 82.4402 40.3847 86.087 40.3847 90.3847C40.3847 95.6863 44.6983 100 50 100C55.3017 100 59.6153 95.6863 59.6153 90.3847C59.6153 86.087 56.7818 82.4402 52.8847 81.2119V75.8003C57.885 75.2449 62.4603 73.2643 66.1957 70.2751L70.0287 74.1074C69.3184 75.4646 68.9407 76.9814 68.9407 78.5561C68.9407 81.1249 69.9409 83.5396 71.7575 85.3554C73.632 87.2299 76.0941 88.1668 78.5561 88.1668C81.0188 88.1668 83.4808 87.2299 85.3554 85.3554C89.1045 81.6063 89.1045 75.5058 85.3554 71.7567C83.5396 69.9409 81.1249 68.9407 78.5561 68.9407C76.9814 68.9407 75.4646 69.3184 74.1074 70.0279L70.2744 66.1949C73.2643 62.4603 75.2449 57.885 75.8003 52.8847H81.2119C82.4402 56.7818 86.087 59.6153 90.3847 59.6153C95.6863 59.6153 100 55.3017 100 50C100 44.6983 95.6863 40.3847 90.3847 40.3847ZM52.8847 69.9852V64.0198C57.3189 62.7609 60.5766 58.6784 60.5766 53.846V50C60.5766 48.407 59.2857 47.1153 57.692 47.1153H45.192V46.154C45.192 43.5028 47.3488 41.346 50 41.346H57.692C59.2857 41.346 60.5766 40.0543 60.5766 38.4613C60.5766 36.8683 59.2857 35.5766 57.692 35.5766H52.8847V30.0148C62.6572 31.4186 70.192 39.8453 70.192 50C70.192 60.1547 62.6572 68.5814 52.8847 69.9852ZM29.808 50C29.808 39.8453 37.3428 31.4186 47.1153 30.0148V35.9802C42.6811 37.2391 39.4234 41.3216 39.4234 46.154V50C39.4234 51.593 40.7143 52.8847 42.308 52.8847H54.808V53.846C54.808 56.4972 52.6512 58.654 50 58.654H42.308C40.7143 58.654 39.4234 59.9457 39.4234 61.5387C39.4234 63.1317 40.7143 64.4234 42.308 64.4234H47.1153V69.9852C37.3428 68.5814 29.808 60.1547 29.808 50ZM75.8369 18.7241C77.3178 17.244 79.7951 17.244 81.2759 18.7241C82.7759 20.224 82.7759 22.6639 81.2759 24.1631C79.789 25.6416 77.3224 25.6493 75.8369 24.1631C74.3538 22.6807 74.3546 20.2065 75.8369 18.7241ZM50 5.76935C52.121 5.76935 53.846 7.49435 53.846 9.61533C53.846 11.7363 52.121 13.4613 50 13.4613C47.879 13.4613 46.154 11.7363 46.154 9.61533C46.154 7.49435 47.879 5.76935 50 5.76935ZM18.7241 24.1631C17.2241 22.6639 17.2241 20.224 18.7241 18.7241C20.2049 17.244 22.683 17.2432 24.1631 18.7241C25.6462 20.2065 25.6454 22.6807 24.1631 24.1631C22.6807 25.6462 20.2065 25.6462 18.7241 24.1631ZM9.61533 53.846C7.49435 53.846 5.76935 52.121 5.76935 50C5.76935 47.879 7.49435 46.154 9.61533 46.154C11.7363 46.154 13.4613 47.879 13.4613 50C13.4613 52.121 11.7363 53.846 9.61533 53.846ZM24.1631 81.2759C22.6631 82.7751 20.224 82.7759 18.7241 81.2759C17.2241 79.776 17.2241 77.3361 18.7241 75.8369C20.2065 74.3538 22.6807 74.3546 24.1631 75.8369C25.6462 77.3193 25.6462 79.7935 24.1631 81.2759ZM50 94.2307C47.879 94.2307 46.154 92.5056 46.154 90.3847C46.154 88.2637 47.879 86.5387 50 86.5387C52.121 86.5387 53.846 88.2637 53.846 90.3847C53.846 92.5056 52.121 94.2307 50 94.2307ZM81.2759 75.8369C82.7759 77.3361 82.7759 79.776 81.2759 81.2759C79.776 82.7759 77.3369 82.7751 75.8369 81.2759C74.3584 79.789 74.3507 77.3224 75.8369 75.8369C77.3193 74.3538 79.7935 74.3546 81.2759 75.8369ZM90.3847 53.846C88.2637 53.846 86.5387 52.121 86.5387 50C86.5387 47.879 88.2637 46.154 90.3847 46.154C92.5056 46.154 94.2307 47.879 94.2307 50C94.2307 52.121 92.5056 53.846 90.3847 53.846Z" fill="#00FF4A"/>
</svg>
