<svg width="134" height="61" viewBox="0 0 134 61" fill="none" xmlns="http://www.w3.org/2000/svg">
<path d="M29.9999 58.8638C29.9999 59.9684 30.8953 60.8638 31.9999 60.8638L49.9999 60.8638C51.1044 60.8638 51.9999 59.9684 51.9999 58.8638C51.9999 57.7592 51.1044 56.8638 49.9999 56.8638L33.9999 56.8638L33.9999 40.8638C33.9999 39.7592 33.1044 38.8638 31.9999 38.8638C30.8953 38.8638 29.9999 39.7592 29.9999 40.8638L29.9999 58.8638ZM87.4485 0.586763L30.5857 57.4496L33.4141 60.278L90.2769 3.41519L87.4485 0.586763Z" fill="#00FF4A"/>
<path d="M83.7516 48.2491C83.7516 49.3537 84.647 50.2491 85.7516 50.2491L103.752 50.2491C104.856 50.2491 105.752 49.3537 105.752 48.2491C105.752 47.1446 104.856 46.2491 103.752 46.2491H87.7516V30.2491C87.7516 29.1446 86.8562 28.2491 85.7516 28.2491C84.647 28.2491 83.7516 29.1446 83.7516 30.2491V48.2491ZM130.586 0.586519L84.3374 46.8349L87.1658 49.6634L133.414 3.41495L130.586 0.586519Z" fill="#00FF4A"/>
<path d="M-0.000108513 33.0857C-0.000108513 34.1903 0.895322 35.0857 1.99989 35.0857L19.9999 35.0857C21.1045 35.0857 21.9999 34.1903 21.9999 33.0857C21.9999 31.9812 21.1045 31.0857 19.9999 31.0857H3.99989V15.0857C3.99989 13.9812 3.10446 13.0857 1.99989 13.0857C0.895322 13.0857 -0.000108513 13.9812 -0.000108513 15.0857L-0.000108513 33.0857ZM30.9125 1.3447L0.585678 31.6715L3.4141 34.5L33.7409 4.17312L30.9125 1.3447Z" fill="#00FF4A"/>
</svg>
