<svg width="27" height="23" viewBox="0 0 27 23" fill="none" xmlns="http://www.w3.org/2000/svg">
<path d="M26.2858 3.40083C25.3268 3.82605 24.2953 4.11365 23.2135 4.24209C24.318 3.58033 25.1657 2.53323 25.5658 1.28349C24.5322 1.89659 23.387 2.34136 22.1692 2.5811C21.1935 1.54198 19.8033 0.892578 18.264 0.892578C15.3106 0.892578 12.9152 3.28794 12.9152 6.24135C12.9152 6.66059 12.9627 7.06866 13.0545 7.46037C8.60917 7.23739 4.6677 5.10809 2.02941 1.87107C1.56909 2.66088 1.30502 3.58033 1.30502 4.56041C1.30502 6.41567 2.25 8.05353 3.68443 9.01247C2.80805 8.98494 1.98274 8.74441 1.26194 8.34273C1.26154 8.36546 1.26154 8.3882 1.26154 8.41054C1.26154 11.0022 3.10603 13.1638 5.55245 13.6548C5.10409 13.7777 4.6306 13.8427 4.14355 13.8427C3.79811 13.8427 3.46344 13.8096 3.13714 13.7473C3.81766 15.8719 5.79258 17.4184 8.13369 17.4618C6.30277 18.8967 3.99676 19.7515 1.49011 19.7515C1.0593 19.7515 0.632486 19.7264 0.214844 19.6765C2.58069 21.1947 5.39289 22.0798 8.41332 22.0798C18.2516 22.0798 23.6319 13.9296 23.6319 6.86083C23.6319 6.62908 23.6267 6.39812 23.6164 6.16915C24.6623 5.41524 25.569 4.47345 26.2858 3.40083Z" fill="#F1F2F2"/>
</svg>
