<svg width="31" height="18" viewBox="0 0 31 18" fill="none" xmlns="http://www.w3.org/2000/svg">
<path fill-rule="evenodd" clip-rule="evenodd" d="M15.1739 17.5109H16.9303C16.9303 17.5109 17.4608 17.4526 17.7316 17.1606C17.981 16.8926 17.973 16.3892 17.973 16.3892C17.973 16.3892 17.9387 14.0325 19.0325 13.6854C20.1107 13.3436 21.4952 15.9631 22.9628 16.9703C24.0725 17.7326 24.9158 17.5655 24.9158 17.5655L28.8398 17.5109C28.8398 17.5109 30.8925 17.3844 29.9192 15.7705C29.8394 15.6384 29.3523 14.5766 27.0016 12.3946C24.5412 10.1109 24.8707 10.4803 27.8345 6.53C29.6395 4.12424 30.3612 2.6555 30.1358 2.02644C29.9208 1.4273 28.5932 1.58566 28.5932 1.58566L24.175 1.61318C24.175 1.61318 23.8475 1.56851 23.6046 1.7137C23.3673 1.85611 23.2145 2.188 23.2145 2.188C23.2145 2.188 22.5152 4.04965 21.5826 5.63287C19.6152 8.97364 18.8286 9.14996 18.5071 8.94253C17.7592 8.45907 17.9459 7.0003 17.9459 5.96396C17.9459 2.72651 18.4369 1.37664 16.9897 1.0272C16.5094 0.911124 16.156 0.834535 14.9278 0.822169C13.3514 0.805815 12.017 0.826956 11.2615 1.19713C10.7589 1.44325 10.3712 1.99174 10.6073 2.02325C10.8993 2.06234 11.5607 2.20156 11.9113 2.67904C12.3641 3.29494 12.3481 4.67831 12.3481 4.67831C12.3481 4.67831 12.6082 8.48938 11.7406 8.96287C11.145 9.28758 10.3281 8.62461 8.57415 5.59378C7.67543 4.04127 6.99691 2.32521 6.99691 2.32521C6.99691 2.32521 6.86607 2.0045 6.63272 1.83297C6.3495 1.62515 5.95379 1.55893 5.95379 1.55893L1.75539 1.58646C1.75539 1.58646 1.12513 1.60401 0.893774 1.87805C0.687942 2.12178 0.877419 2.62598 0.877419 2.62598C0.877419 2.62598 4.16434 10.3159 7.88605 14.1912C11.2986 17.7442 15.1739 17.5109 15.1739 17.5109Z" fill="white"/>
</svg>
