<svg width="38" height="27" viewBox="0 0 38 27" fill="none" xmlns="http://www.w3.org/2000/svg">
<g clip-path="url(#clip0)">
<path d="M37.1608 4.21125C36.9428 3.39728 36.5176 2.65522 35.9276 2.05894C35.3376 1.46267 34.6032 1.03299 33.7978 0.8127C30.8489 0 18.9807 0 18.9807 0C18.9807 0 7.11197 0.0245999 4.16311 0.8373C3.35761 1.0576 2.62328 1.4873 2.03324 2.08361C1.4432 2.67991 1.01805 3.42201 0.800107 4.236C-0.0918543 9.5307 -0.437862 17.5986 0.824599 22.6815C1.04256 23.4955 1.46773 24.2375 2.05777 24.8338C2.6478 25.4301 3.38212 25.8598 4.1876 26.0801C7.13646 26.8928 19.0049 26.8928 19.0049 26.8928C19.0049 26.8928 30.8732 26.8928 33.822 26.0801C34.6275 25.8598 35.3618 25.4301 35.9519 24.8338C36.5419 24.2376 36.9671 23.4955 37.1851 22.6815C38.1259 17.3793 38.4158 9.3165 37.1608 4.2114V4.21125Z" fill="#FF0000"/>
<path d="M15.2031 19.209L25.0488 13.4463L15.2033 7.68359L15.2031 19.209Z" fill="white"/>
</g>
<defs>
<clipPath id="clip0">
<rect width="38" height="27" fill="white"/>
</clipPath>
</defs>
</svg>
