<svg width="27" height="19" viewBox="0 0 27 19" fill="none" xmlns="http://www.w3.org/2000/svg">
<path d="M26.3566 3.67383C26.2046 3.13144 25.9084 2.64039 25.4995 2.25287C25.0792 1.85344 24.5639 1.56771 24.0025 1.42267C21.9013 0.868829 13.4829 0.86883 13.4829 0.86883C9.97338 0.8289 6.46472 1.00452 2.97672 1.3947C2.41526 1.55046 1.901 1.84257 1.47968 2.24504C1.0657 2.64336 0.76584 3.13454 0.609198 3.67271C0.232915 5.69982 0.0500909 7.75809 0.0631905 9.81978C0.0497641 11.8796 0.23214 13.9372 0.609198 15.9668C0.762483 16.5028 1.06122 16.9917 1.47632 17.3867C1.89142 17.7816 2.40834 18.067 2.97672 18.218C5.10593 18.7707 13.4829 18.7707 13.4829 18.7707C16.9969 18.8107 20.51 18.6351 24.0025 18.2449C24.5639 18.0998 25.0792 17.8141 25.4995 17.4147C25.9135 17.0197 26.2078 16.5285 26.3555 15.9937C26.7416 13.9674 26.9293 11.9082 26.916 9.84551C26.9451 7.77404 26.7576 5.70521 26.3566 3.67271V3.67383ZM10.8066 13.6508V5.98989L17.8107 9.8209L10.8066 13.6508Z" fill="white"/>
</svg>
