<svg width="42" height="9" viewBox="0 0 42 9" fill="none" xmlns="http://www.w3.org/2000/svg">
<g clip-path="url(#clip0)">
<path d="M16.0838 5.62154C16.1946 5.56615 16.3054 5.48308 16.4715 5.34462C16.61 5.20615 16.7762 5.04 16.9146 4.84615C17.0531 4.65231 17.1915 4.40308 17.3023 4.09846C17.4131 3.79385 17.4685 3.46154 17.4685 3.10154C17.4685 2.21538 17.1638 1.49538 16.5269 0.913846C15.9177 0.304615 15.1423 0 14.1731 0H9.90846V9H12.3731V6.17538H13.6746L15.2254 9H17.8008L15.9177 5.73231L16.0838 5.62154ZM14.7546 3.73846C14.5608 3.90462 14.3392 3.98769 14.0623 3.98769H12.3731V2.18769H14.0623C14.3392 2.18769 14.5885 2.27077 14.7546 2.43692C14.9485 2.60308 15.0315 2.82462 15.0315 3.07385C15.0315 3.32308 14.9208 3.54462 14.7546 3.73846Z" fill="white"/>
<path d="M27.5762 5.45539L25.97 0H23.8931L22.2592 5.45539L20.7085 0H18.05L21.0408 9H23.2562L24.9177 3.79385L26.6069 9H28.8223L31.7854 0H29.1546L27.5762 5.45539Z" fill="white"/>
<path d="M38.9854 0V5.01231L35.1085 0H32.9762V9H35.4131V3.98769L39.3177 9H41.45V0H38.9854Z" fill="white"/>
<path d="M3.53923 0H2.51461H0.0499992V9H2.51461H3.53923C4.92385 9 6.05923 8.55692 6.97308 7.69846C7.88692 6.84 8.33 5.76 8.33 4.48615C8.33 3.21231 7.88692 2.16 6.97308 1.27385C6.08692 0.443077 4.92385 0 3.53923 0ZM5.20077 6.14769C4.73 6.59077 4.20385 6.81231 3.56692 6.81231H2.51461V2.18769H3.53923C4.23154 2.18769 4.78538 2.40923 5.22846 2.82462C5.67154 3.26769 5.89308 3.82154 5.89308 4.48615C5.89308 5.15077 5.64385 5.70462 5.20077 6.14769Z" fill="white"/>
<path d="M12.3731 8.16923V7.92H9.90846V9H12.3731V8.75077V8.16923Z" fill="#00FF4A"/>
<path d="M14.6162 7.92H17.1638L17.8008 9H15.2254L14.6162 7.92Z" fill="#00FF4A"/>
<path d="M20.6808 7.92H23.5885L23.2562 9H21.0408L20.6808 7.92Z" fill="#00FF4A"/>
<path d="M26.2746 7.92H29.1823L28.8223 9H26.6069L26.2746 7.92Z" fill="#00FF4A"/>
<path d="M35.4408 7.92H32.9762V9H35.4408V7.92Z" fill="#00FF4A"/>
<path d="M38.4869 7.92H41.45V9H39.3177L38.4869 7.92Z" fill="#00FF4A"/>
<path d="M0.0499992 7.92H6.75154C6.75154 7.92 5.53308 9 3.92692 9C2.29308 9.02769 0.0499992 9 0.0499992 9" fill="#00FF4A"/>
</g>
<defs>
<clipPath id="clip0">
<rect width="41.4" height="9" fill="white" transform="translate(0.0499992)"/>
</clipPath>
</defs>
</svg>
