<svg width="512" height="488" viewBox="0 0 512 488" fill="none" xmlns="http://www.w3.org/2000/svg">
<g id="phone">
<g id="Frame" clip-path="url(#clip0)">
<g id="Group">
<path id="Vector" opacity="0.9" d="M0 239.996C0 248.259 10.1573 252.863 17.2438 248.731L162.045 161.375C169.131 157.243 175.037 147.091 175.037 138.828L178.462 32.9372C178.462 24.6738 169.249 22.3128 162.045 26.4445L12.9919 112.739C5.90542 116.87 0 126.905 0 135.168V239.996Z" fill="url(#paint0_linear)"/>
<path id="Vector_2" d="M4.25195 241.293C4.25195 249.556 10.1574 252.861 17.2439 248.848L166.297 162.79C173.383 158.658 179.289 148.506 179.289 140.242V35.4144C179.289 27.151 173.383 23.8456 166.297 27.8593L17.2439 114.035C10.1574 118.167 4.25195 128.319 4.25195 136.583V241.293Z" fill="url(#paint1_linear)"/>
<path id="Vector_3" opacity="0.9" d="M0 426.041C0 434.304 10.1573 438.908 17.2438 434.776L162.045 347.42C169.131 343.288 175.037 333.136 175.037 324.872L178.462 218.982C178.462 210.719 169.249 208.358 162.045 212.489L12.9919 298.784C5.90542 302.915 0 313.068 0 321.331V426.041Z" fill="url(#paint2_linear)"/>
<path id="Vector_4" d="M4.25195 427.339C4.25195 435.603 10.1574 438.908 17.2439 434.895L166.297 348.837C173.383 344.705 179.289 334.553 179.289 326.289V221.461C179.289 213.198 173.383 209.892 166.297 213.906L17.2439 300.082C10.1574 304.214 4.25195 314.366 4.25195 322.63V427.339Z" fill="url(#paint3_linear)"/>
<path id="Vector_5" opacity="0.9" d="M512.001 416.479C512.001 424.742 494.048 436.193 486.962 432.179L349.956 337.976C342.87 333.844 336.964 323.692 336.964 315.428L323.027 16.0551C323.027 3.6599 342.751 -2.83282 349.956 1.29891L499.009 87.3569C506.095 91.4886 512.001 101.641 512.001 109.904V416.479Z" fill="url(#paint4_linear)"/>
<path id="Vector_6" d="M498.181 423.798C498.181 432.061 492.276 435.366 485.189 431.353L336.136 345.295C329.05 341.163 323.145 331.011 323.145 322.747V16.055C323.145 7.79158 329.05 4.4862 336.136 8.49988L485.189 94.5579C492.276 98.6896 498.181 108.842 498.181 117.105V423.798Z" fill="url(#paint5_linear)"/>
<path id="Vector_7" d="M498.182 137.293V116.988C498.182 108.725 492.277 98.5725 485.19 94.4407L336.019 8.5008C328.933 4.36908 323.027 7.79251 323.027 16.056V34.7078L498.182 137.293Z" fill="white"/>
<path id="Vector_8" d="M323.027 304.096V322.747C323.027 331.011 328.933 341.163 336.019 345.295L485.072 431.353C492.159 435.485 498.064 432.061 498.064 423.798V405.146L323.027 304.096Z" fill="white"/>
<path id="Vector_9" d="M410.072 362.648C411.371 366.425 409.954 370.321 407.001 371.384C403.931 372.446 400.505 370.203 399.206 366.425C397.907 362.648 399.324 358.752 402.277 357.69C405.348 356.627 408.891 358.87 410.072 362.648Z" fill="url(#paint6_linear)"/>
<path id="Vector_10" d="M478.103 107.425C478.812 109.668 477.985 111.911 476.332 112.502C474.56 113.092 472.552 111.793 471.725 109.55C471.017 107.307 471.844 105.064 473.497 104.474C475.269 103.884 477.395 105.182 478.103 107.425Z" fill="url(#paint7_linear)"/>
<path id="Vector_11" d="M429.914 82.6358C429.914 84.4065 428.615 85.2329 427.08 84.2885L394.128 65.2825C392.592 64.3381 391.293 62.0952 391.293 60.3245V55.6025C391.293 53.8317 392.592 53.0054 394.128 53.9498L427.08 72.9557C428.615 73.9001 429.914 76.1431 429.914 77.9138V82.6358Z" fill="url(#paint8_linear)"/>
<g id="Group_2" opacity="0.7">
<path id="Vector_12" opacity="0.7" d="M41.9282 220.163L18.0703 233.975V180.262L41.9282 166.568V220.163Z" fill="url(#paint9_linear)"/>
<path id="Vector_13" opacity="0.7" d="M81.6118 197.496L57.7539 211.308V118.875L81.6118 105.182V197.496Z" fill="url(#paint10_linear)"/>
<path id="Vector_14" opacity="0.7" d="M121.179 174.357L97.4395 188.051V105.653L121.179 91.959V174.357Z" fill="url(#paint11_linear)"/>
<path id="Vector_15" opacity="0.7" d="M160.863 151.221L137.123 165.033V56.5453L160.863 42.8516V151.221Z" fill="url(#paint12_linear)"/>
</g>
<path id="Vector_16" d="M439.836 335.261L222.162 210.364L265.39 185.338L483.536 311.179L439.836 335.261Z" fill="url(#paint13_linear)"/>
<path id="Vector_17" opacity="0.8" d="M425.781 288.632L286.768 208.476C286.768 208.476 293.027 150.514 315.232 160.784C332.594 168.457 333.184 209.302 345.704 216.503C354.444 221.58 375.349 197.852 389.758 204.344C411.962 216.504 425.781 288.632 425.781 288.632Z" fill="url(#paint14_linear)"/>
<path id="Vector_18" opacity="0.8" d="M419.521 301.263L280.508 221.107C280.508 221.107 286.768 163.145 308.972 173.415C326.334 181.088 326.924 221.933 339.444 229.134C348.184 234.211 369.089 210.483 383.498 216.975C405.703 229.134 419.521 301.263 419.521 301.263Z" fill="url(#paint15_linear)"/>
<path id="Vector_19" opacity="0.8" d="M414.914 314.483L275.9 234.328C275.9 234.328 282.16 176.365 304.365 186.636C321.726 194.309 322.317 235.154 334.836 242.355C343.577 247.431 364.482 223.703 378.891 230.196C400.977 242.355 414.914 314.483 414.914 314.483Z" fill="url(#paint16_linear)"/>
<g id="Group_3">
<path id="Vector_20" d="M305.546 251.328V113.328H304.719V250.856C304.955 250.974 305.309 251.21 305.546 251.328Z" fill="#0E3C65"/>
<path id="Vector_21" d="M300.94 113.21C300.821 115.453 302.475 117.342 304.601 117.46C306.727 117.578 308.38 115.689 308.498 113.446C308.617 111.203 306.963 109.315 304.837 109.197C302.829 109.079 301.058 110.967 300.94 113.21Z" fill="#2267A2"/>
</g>
<g id="Group_4">
<path id="Vector_22" d="M334.01 267.853V166.33H333.184V267.38C333.538 267.616 333.538 267.616 334.01 267.853Z" fill="#0E3C65"/>
<path id="Vector_23" d="M329.404 166.213C329.286 168.456 330.94 170.345 333.066 170.463C335.192 170.581 336.845 168.692 336.963 166.449C337.081 164.206 335.428 162.317 333.302 162.199C331.176 162.199 329.523 163.97 329.404 166.213Z" fill="#2267A2"/>
</g>
<g id="Group_5">
<path id="Vector_24" d="M380.309 294.651V183.213H379.482V294.179C379.837 294.179 380.073 294.533 380.309 294.651Z" fill="#0E3C65"/>
<path id="Vector_25" d="M375.703 183.096C375.585 185.339 377.239 187.227 379.365 187.345C381.491 187.464 383.144 185.575 383.262 183.332C383.38 181.089 381.727 179.2 379.601 179.082C377.593 179.082 375.821 180.853 375.703 183.096Z" fill="#2267A2"/>
</g>
<g id="Group_6">
<path id="Vector_26" d="M329.403 110.966C329.403 112.855 327.041 113.917 325.505 112.973L292.553 93.1407C290.899 92.1963 289.6 89.9534 289.6 88.0646L288.773 63.9825C288.773 62.0938 290.899 61.6216 292.553 62.5659L326.45 82.1621C328.104 83.1065 329.403 85.3495 329.403 87.2383V110.966Z" fill="url(#paint17_linear)"/>
<path id="Vector_27" d="M328.459 111.202C328.459 113.091 327.16 113.799 325.506 112.855L291.609 93.2589C289.955 92.3145 288.656 90.0715 288.656 88.1827V64.3368C288.656 62.448 289.955 61.7397 291.609 62.6841L325.506 82.2803C327.16 83.2247 328.459 85.4676 328.459 87.3564V111.202Z" fill="url(#paint18_linear)"/>
</g>
<g id="Group_7">
<path id="Vector_28" d="M357.397 163.263C357.397 165.152 355.035 166.214 353.499 165.27L320.547 145.438C318.894 144.493 317.594 142.25 317.594 140.361L316.768 116.279C316.768 114.391 318.894 113.918 320.547 114.863L354.444 134.459C356.098 135.403 357.397 137.646 357.397 139.535V163.263Z" fill="url(#paint19_linear)"/>
<path id="Vector_29" d="M356.334 163.618C356.334 165.507 355.035 166.215 353.381 165.271L319.484 145.675C317.83 144.73 316.531 142.488 316.531 140.599V116.753C316.531 114.864 317.83 114.156 319.484 115.1L353.381 134.696C355.035 135.641 356.334 137.884 356.334 139.772V163.618Z" fill="url(#paint20_linear)"/>
</g>
<g id="Group_8">
<path id="Vector_30" d="M406.174 171.88C406.174 173.769 403.812 174.832 402.277 173.887L369.324 154.055C367.671 153.11 366.372 150.867 366.372 148.979L365.545 124.897C365.545 123.008 367.671 122.536 369.324 123.48L403.222 143.076C404.875 144.021 406.174 146.264 406.174 148.152V171.88Z" fill="url(#paint21_linear)"/>
<path id="Vector_31" d="M405.23 172.236C405.23 174.124 403.931 174.833 402.278 173.888L368.38 154.292C366.727 153.348 365.428 151.105 365.428 149.216V125.37C365.428 123.481 366.727 122.773 368.38 123.717L402.278 143.313C403.931 144.258 405.23 146.501 405.23 148.39V172.236Z" fill="url(#paint22_linear)"/>
</g>
<g id="Group_9">
<path id="Vector_32" d="M298.578 85.2321C298.578 85.4682 298.578 85.5863 298.46 85.7043L292.791 82.1628C292.791 81.1004 293.381 80.5101 294.681 80.274C295.271 80.156 295.862 80.0379 296.452 79.9199C297.043 79.8018 297.279 79.4477 297.397 78.9755C297.397 78.5033 297.279 78.0311 296.925 77.5589C296.57 77.2047 296.216 76.8506 295.744 76.4964C294.799 75.9062 294.09 76.0242 293.618 76.7325C293.5 76.6145 293.263 76.4964 293.027 76.1423C292.791 75.9062 292.673 75.6701 292.555 75.552C292.791 75.0798 293.145 74.8438 293.736 74.8438C294.326 74.8438 295.035 75.0798 295.744 75.552C296.57 76.0242 297.161 76.6145 297.751 77.4408C298.342 78.2672 298.578 78.9755 298.578 79.6838C298.578 80.274 298.224 80.7462 297.633 80.9823C296.925 81.1004 296.216 81.2184 295.507 81.3365C294.917 81.4545 294.563 81.6906 294.326 82.0448L298.46 84.6419C298.46 84.996 298.578 85.2321 298.578 85.2321Z" fill="white"/>
<path id="Vector_33" d="M307.082 87.1215C307.082 88.42 306.846 89.2464 306.255 89.6005C305.665 90.0727 304.838 89.9547 303.775 89.2464C302.712 88.5381 301.885 87.5937 301.295 86.4132C300.822 85.3508 300.586 84.1703 300.586 82.8717C300.586 81.5732 300.822 80.7468 301.413 80.3927C302.003 79.9205 302.83 80.0385 303.893 80.7468C304.956 81.4551 305.783 82.3995 306.373 83.58C306.964 84.7605 307.2 85.823 307.082 87.1215ZM306.019 86.4132C306.019 85.4688 305.901 84.5244 305.546 83.6981C305.192 82.7537 304.72 82.1634 304.011 81.6912C303.302 81.219 302.712 81.219 302.358 81.6912C302.003 82.0454 301.885 82.7537 301.885 83.6981C301.885 84.6425 302.003 85.5869 302.358 86.4132C302.712 87.2395 303.184 87.9479 303.893 88.42C304.602 88.8922 305.192 88.8922 305.546 88.42C305.783 88.0659 305.901 87.3576 306.019 86.4132Z" fill="white"/>
<path id="Vector_34" d="M312.514 94.6749C312.278 94.5568 312.16 94.5568 311.924 94.3207C311.806 94.2027 311.569 94.0846 311.333 93.8485L311.451 87.1197L310.152 87.3558C310.034 87.2378 309.798 87.0017 309.68 86.7656C309.443 86.5295 309.443 86.2934 309.443 86.1753L311.569 85.7031C311.687 85.7031 311.924 85.8212 312.042 85.9392C312.278 86.0573 312.514 86.2934 312.632 86.4114L312.514 94.6749Z" fill="white"/>
<path id="Vector_35" d="M323.144 98.926C323.144 99.6343 322.79 100.106 322.199 100.225C321.609 100.343 320.782 100.106 319.837 99.5162C318.892 98.926 318.066 98.2177 317.475 97.2733C316.885 96.4469 316.648 95.6206 316.648 94.7942C316.648 93.7318 317.239 93.3776 318.302 93.6137C317.475 92.6694 317.121 91.725 317.121 91.0167C317.121 90.4264 317.357 90.0723 317.948 90.0723C318.42 90.0723 319.129 90.3084 319.955 90.7806C320.782 91.3708 321.491 91.9611 321.963 92.5513C322.436 93.2596 322.672 93.8498 322.672 94.4401C322.672 95.2664 322.2 95.6206 321.373 95.5025C322.554 96.8011 323.144 97.8635 323.144 98.926ZM321.963 98.2177C321.963 97.7455 321.727 97.1552 321.373 96.565C321.018 95.9747 320.428 95.5025 319.955 95.1484C319.365 94.7942 318.892 94.6762 318.42 94.6762C317.948 94.7942 317.83 95.0303 317.83 95.5025C317.83 95.9747 318.066 96.4469 318.42 97.0372C318.774 97.6274 319.365 98.0996 319.955 98.4538C320.546 98.8079 321.018 98.926 321.491 98.926C321.727 98.926 321.963 98.6899 321.963 98.2177ZM321.609 94.0859C321.609 93.7318 321.491 93.3776 321.137 92.9054C320.782 92.4332 320.428 92.0791 319.955 91.843C319.483 91.6069 319.129 91.3708 318.774 91.4889C318.42 91.4889 318.302 91.725 318.302 92.0791C318.302 92.4333 318.42 92.7874 318.774 93.2596C319.129 93.7318 319.483 94.0859 319.955 94.322C320.428 94.5581 320.782 94.7942 321.137 94.6762C321.373 94.5581 321.609 94.4401 321.609 94.0859Z" fill="white"/>
</g>
<g id="Group_10">
<path id="Vector_36" d="M327.397 137.764C327.397 138 327.397 138.119 327.279 138.237L321.492 134.459C321.492 133.515 322.083 132.924 323.5 132.688C324.09 132.57 324.681 132.57 325.272 132.452C325.862 132.334 326.216 131.98 326.216 131.508C326.216 131.036 326.098 130.681 325.744 130.209C325.39 129.855 325.035 129.501 324.563 129.147C323.618 128.557 322.791 128.557 322.319 129.265C322.201 129.147 321.964 129.029 321.728 128.675C321.492 128.439 321.374 128.202 321.256 128.084C321.492 127.73 321.965 127.494 322.437 127.494C323.027 127.494 323.736 127.73 324.563 128.202C325.39 128.675 325.98 129.383 326.571 130.091C327.161 130.918 327.397 131.626 327.397 132.334C327.397 132.924 327.043 133.279 326.334 133.515C325.626 133.633 324.917 133.633 324.09 133.751C323.5 133.869 323.027 134.105 322.909 134.341L327.161 137.056C327.397 137.528 327.397 137.646 327.397 137.764Z" fill="white"/>
<path id="Vector_37" d="M336.373 140.125C336.373 141.305 336.018 142.132 335.546 142.486C334.955 142.958 334.011 142.722 332.948 142.014C331.767 141.305 330.94 140.361 330.349 139.18C329.877 138.118 329.641 137.056 329.641 135.757C329.641 134.577 329.995 133.75 330.467 133.396C331.058 132.924 332.003 133.16 333.066 133.868C334.247 134.577 335.074 135.521 335.664 136.701C336.137 137.764 336.373 138.826 336.373 140.125ZM335.192 139.299C335.192 138.354 335.074 137.528 334.719 136.701C334.365 135.875 333.774 135.167 333.066 134.695C332.357 134.222 331.767 134.222 331.412 134.577C331.058 134.931 330.822 135.521 330.822 136.465C330.822 137.41 330.94 138.236 331.294 139.062C331.648 139.889 332.239 140.597 332.948 141.069C333.656 141.541 334.247 141.541 334.601 141.187C334.955 140.951 335.074 140.243 335.192 139.299Z" fill="white"/>
<path id="Vector_38" d="M341.924 147.68C341.688 147.562 341.57 147.444 341.334 147.326C341.216 147.208 340.979 147.09 340.743 146.854L340.979 140.479L339.562 140.597C339.444 140.479 339.208 140.243 339.09 140.007C338.854 139.771 338.854 139.535 338.854 139.417L341.098 139.062C341.216 139.062 341.452 139.181 341.688 139.299C341.924 139.535 342.161 139.653 342.279 139.771L341.924 147.68Z" fill="white"/>
<path id="Vector_39" d="M352.909 150.041C352.909 151.458 352.319 152.284 351.374 152.52C350.311 152.756 348.893 152.284 347.004 151.104C347.004 150.868 347.004 150.75 347.004 150.631C347.004 150.395 347.004 150.277 347.122 150.277C348.303 150.986 349.248 151.34 350.193 151.34C351.138 151.34 351.61 150.986 351.61 150.159C351.019 150.277 350.311 149.923 349.366 149.333C348.657 148.861 347.949 148.271 347.476 147.444C346.886 146.5 346.531 145.673 346.531 144.847C346.531 144.021 346.886 143.667 347.476 143.549C348.067 143.43 348.893 143.667 349.838 144.375C351.019 145.083 351.846 146.028 352.437 147.09C352.673 148.152 352.909 149.097 352.909 150.041ZM351.61 148.389C351.61 147.916 351.492 147.326 351.019 146.736C350.665 146.146 350.193 145.673 349.602 145.319C349.012 144.965 348.539 144.847 348.067 144.847C347.712 144.965 347.476 145.201 347.476 145.673C347.476 146.146 347.594 146.736 348.067 147.326C348.421 147.916 348.893 148.389 349.484 148.743C350.075 149.097 350.547 149.215 350.901 149.215C351.374 149.097 351.492 148.861 351.61 148.389Z" fill="white"/>
</g>
<g id="Group_11">
<path id="Vector_40" d="M376.293 146.5C376.293 146.736 376.293 146.972 376.293 146.972L370.388 143.194C370.152 142.014 370.624 141.424 371.687 141.07C372.16 140.952 372.75 140.833 373.222 140.715C373.695 140.479 373.931 140.125 373.813 139.653C373.695 139.181 373.459 138.709 373.104 138.236C372.75 137.764 372.278 137.41 371.805 137.174C370.86 136.584 370.152 136.584 369.915 137.41C369.797 137.292 369.561 137.174 369.207 136.82C368.971 136.584 368.734 136.348 368.734 136.112C368.852 135.639 369.207 135.403 369.679 135.285C370.27 135.285 370.86 135.403 371.687 135.993C372.514 136.466 373.223 137.174 373.931 138C374.64 138.827 375.112 139.653 375.23 140.479C375.348 141.188 375.112 141.66 374.64 141.896C374.049 142.014 373.341 142.132 372.75 142.368C372.278 142.486 371.923 142.84 371.805 143.194L376.175 145.91C376.293 146.146 376.293 146.382 376.293 146.5Z" fill="white"/>
<path id="Vector_41" d="M384.679 148.389C384.916 149.805 384.915 150.632 384.443 151.104C383.971 151.576 383.262 151.458 382.081 150.75C380.9 150.041 379.955 148.979 379.246 147.68C378.538 146.5 378.065 145.319 377.829 143.903C377.593 142.486 377.593 141.66 378.065 141.188C378.538 140.715 379.246 140.833 380.427 141.542C381.608 142.25 382.553 143.313 383.262 144.611C383.971 145.673 384.443 146.972 384.679 148.389ZM383.498 147.562C383.262 146.5 383.026 145.555 382.553 144.729C382.081 143.785 381.372 143.076 380.664 142.604C379.955 142.132 379.364 142.132 379.128 142.604C378.892 142.958 378.892 143.785 379.128 144.847C379.364 145.91 379.601 146.854 380.073 147.68C380.545 148.625 381.254 149.333 381.963 149.805C382.671 150.277 383.262 150.277 383.498 149.805C383.616 149.333 383.616 148.625 383.498 147.562Z" fill="white"/>
<path id="Vector_42" d="M393.418 157.242C393.418 157.478 393.418 157.714 393.418 157.714L387.513 153.937C387.277 152.756 387.749 152.166 388.812 151.812C389.285 151.694 389.875 151.576 390.347 151.458C390.82 151.222 391.056 150.867 390.938 150.395C390.82 149.923 390.584 149.451 390.229 148.979C389.875 148.506 389.403 148.152 388.93 147.916C387.985 147.326 387.277 147.326 387.04 148.152C386.922 148.034 386.686 147.916 386.332 147.562C386.096 147.326 385.859 147.09 385.859 146.854C385.977 146.381 386.332 146.145 386.804 146.027C387.395 146.027 387.985 146.145 388.812 146.736C389.639 147.208 390.347 147.916 391.056 148.742C391.765 149.569 392.237 150.395 392.355 151.222C392.473 151.93 392.237 152.402 391.765 152.638C391.174 152.756 390.466 152.874 389.875 153.11C389.403 153.228 389.048 153.582 388.93 153.937L393.3 156.652C393.3 156.888 393.418 157.124 393.418 157.242Z" fill="white"/>
<path id="Vector_43" d="M401.805 159.131C402.041 160.547 402.041 161.374 401.569 161.846C401.097 162.318 400.388 162.2 399.207 161.492C398.026 160.784 397.081 159.721 396.372 158.423C395.664 157.242 395.191 156.062 394.955 154.645C394.719 153.228 394.837 152.402 395.191 151.93C395.664 151.458 396.372 151.576 397.553 152.284C398.734 152.992 399.679 154.055 400.388 155.353C400.978 156.534 401.451 157.714 401.805 159.131ZM400.506 158.304C400.27 157.242 400.034 156.298 399.561 155.471C399.089 154.527 398.38 153.819 397.671 153.346C396.963 152.874 396.49 152.874 396.136 153.346C395.9 153.701 395.9 154.527 396.136 155.589C396.372 156.652 396.608 157.596 397.081 158.423C397.553 159.367 398.262 160.075 398.971 160.547C399.679 161.02 400.27 161.02 400.506 160.547C400.742 160.193 400.742 159.367 400.506 158.304Z" fill="white"/>
</g>
<g id="Group_12" opacity="0.7">
<path id="Vector_44" opacity="0.7" d="M185.193 252.508C183.894 252.036 182.359 251.446 180.823 250.856C173.737 248.14 163.934 244.363 153.54 246.842C142.674 250.383 142.438 260.654 142.084 271.514C141.847 279.542 141.729 287.805 137.359 294.062C132.635 299.846 128.383 300.672 122.36 301.971C119.525 302.561 116.218 303.269 112.557 304.568C106.651 306.811 104.761 310.589 102.872 314.248C101.336 317.435 99.8008 320.387 95.7851 322.157C89.4073 324.518 85.9821 323.574 82.4389 322.63C79.4862 321.803 76.4153 321.095 71.691 322.039C59.9983 324.99 58.4629 336.205 56.8093 348.128C56.1007 353.44 55.2739 358.989 53.6204 363.947C49.2504 372.919 41.219 377.641 31.6522 376.696C10.8652 376.696 0.707841 422.971 0.353516 424.978L1.77082 425.332C1.88893 424.86 12.0463 378.231 31.5341 378.231C41.6915 379.175 50.1953 374.217 54.9196 364.537C56.6912 359.343 57.3999 353.676 58.1085 348.246C59.7621 336.441 61.1793 326.171 71.8091 323.456C76.1791 322.511 78.8956 323.22 81.7302 323.928C85.3916 324.872 89.171 325.935 96.0213 323.338C100.628 321.331 102.281 317.908 103.935 314.72C105.706 311.179 107.36 307.755 112.793 305.748C116.454 304.45 119.643 303.742 122.36 303.151C128.383 301.853 133.107 300.908 138.304 294.652C142.91 287.923 143.147 279.423 143.383 271.16C143.619 260.418 143.855 251.092 153.658 247.904C163.579 245.543 173.028 249.203 179.996 251.8C181.886 252.508 183.658 253.216 185.075 253.689C185.311 253.571 185.193 253.098 185.193 252.508Z" fill="url(#paint23_linear)"/>
</g>
<g id="Group_13" opacity="0.5">
<path id="Vector_45" opacity="0.4" d="M31.7721 453.073V377.758H30.9453V453.546L31.7721 453.073Z" fill="url(#paint24_linear)"/>
<path id="Vector_46" opacity="0.4" d="M72.7564 429.465V322.984H71.9297V429.937L72.7564 429.465Z" fill="url(#paint25_linear)"/>
<path id="Vector_47" opacity="0.4" d="M113.622 405.855V305.395H112.795V406.327L113.622 405.855Z" fill="url(#paint26_linear)"/>
<path id="Vector_48" opacity="0.4" d="M154.604 382.244V247.668H153.777V382.716L154.604 382.244Z" fill="url(#paint27_linear)"/>
</g>
<g id="Group_14">
<path id="Vector_49" d="M23.1501 476.447C23.1501 476.801 23.1501 477.037 23.032 477.155L18.4258 479.989C18.4258 478.69 19.0163 477.037 20.0793 475.03C20.5517 474.086 21.0242 473.26 21.6147 472.315C22.0871 471.371 22.4415 470.545 22.4415 469.836C22.4415 469.246 22.3234 468.892 22.0871 468.774C21.8509 468.656 21.4966 468.774 21.1423 469.01C20.3155 469.482 19.725 470.545 19.3706 472.079C19.2525 472.197 19.0163 472.197 18.8982 472.197C18.662 472.197 18.5439 472.079 18.5439 471.961C18.7801 471.135 19.1344 470.308 19.6069 469.482C20.0793 468.656 20.6698 468.066 21.2604 467.593C21.8509 467.239 22.4415 467.121 22.7958 467.357C23.2682 467.593 23.5044 468.184 23.3863 469.128C23.3863 469.954 23.032 470.899 22.4415 472.079C21.8509 473.142 21.2604 474.204 20.6698 475.385C20.1974 476.329 19.8431 477.155 19.6069 477.864L23.032 475.739C23.1501 476.211 23.1501 476.329 23.1501 476.447Z" fill="white"/>
<path id="Vector_50" d="M30.3549 467.475C30.2368 469.128 30.0005 470.545 29.5281 471.725C29.0557 473.142 28.347 474.086 27.4022 474.558C26.4573 475.149 25.8667 475.031 25.3943 474.204C25.04 473.496 24.9219 472.316 24.9219 470.663C25.04 469.01 25.2762 467.594 25.7486 466.413C26.2211 464.996 26.9297 464.052 27.8746 463.58C28.8195 462.99 29.41 463.108 29.8824 463.934C30.3549 464.76 30.473 465.941 30.3549 467.475ZM29.41 468.066C29.41 466.767 29.41 465.823 29.1738 465.233C28.9376 464.524 28.4651 464.406 27.8746 464.76C27.284 465.114 26.8116 465.823 26.4573 466.885C26.103 467.83 25.9848 468.892 25.8667 470.191C25.8667 471.489 25.8667 472.434 26.103 473.024C26.3392 473.732 26.8116 473.85 27.4022 473.496C27.9927 473.142 28.4651 472.434 28.8195 471.371C29.1738 470.545 29.41 469.364 29.41 468.066Z" fill="white"/>
<path id="Vector_51" d="M34.7255 470.072C34.6073 470.19 34.3711 470.426 34.253 470.544C34.1349 470.544 34.0168 470.662 33.7806 470.662L34.1349 461.926L32.9538 464.051C32.8357 464.051 32.7176 464.051 32.5995 463.933C32.4814 463.815 32.3633 463.697 32.3633 463.579L34.253 460.038C34.3711 459.919 34.4892 459.801 34.7255 459.683C34.9617 459.565 35.0798 459.447 35.1979 459.447L34.7255 470.072Z" fill="white"/>
<path id="Vector_52" d="M43.5833 461.573C43.5833 462.517 43.2289 463.461 42.7565 464.406C42.2841 465.35 41.5754 466.059 40.7487 466.531C39.9219 467.003 39.3314 467.121 38.8589 466.767C38.3865 466.413 38.1503 465.822 38.2684 464.76C38.2684 463.461 38.8589 462.163 39.8038 461.1C39.2132 460.864 38.8589 460.392 38.8589 459.33C38.8589 458.621 39.0951 457.795 39.5676 457.087C40.04 456.378 40.5124 455.788 41.2211 455.316C41.9297 454.844 42.4022 454.726 42.8746 454.962C43.2289 455.198 43.4651 455.67 43.4651 456.378C43.4651 457.441 42.9927 458.385 42.2841 459.33C43.1108 459.566 43.5833 460.274 43.5833 461.573ZM42.6384 462.163C42.6384 461.573 42.5203 461.1 42.166 460.864C41.8116 460.628 41.4573 460.628 40.9849 460.982C40.5124 461.218 40.04 461.691 39.6857 462.399C39.3314 462.989 39.0951 463.697 39.0951 464.288C39.0951 464.878 39.2132 465.35 39.5676 465.586C39.9219 465.822 40.2762 465.822 40.7487 465.468C41.2211 465.114 41.6935 464.76 42.0478 464.052C42.4022 463.343 42.5203 462.753 42.6384 462.163ZM42.4022 457.323C42.4022 456.851 42.2841 456.615 42.0478 456.496C41.8116 456.378 41.4573 456.378 41.103 456.614C40.7487 456.851 40.3943 457.205 40.1581 457.677C39.9219 458.149 39.6857 458.621 39.6857 458.975C39.6857 459.448 39.8038 459.684 40.04 459.802C40.2762 459.92 40.6305 459.92 40.9849 459.684C41.3392 459.448 41.6935 459.094 41.9297 458.621C42.2841 458.149 42.4022 457.795 42.4022 457.323Z" fill="white"/>
</g>
<g id="Group_15">
<path id="Vector_53" d="M64.8415 452.482C64.8415 452.836 64.8415 453.072 64.7234 453.19L60.1172 456.024C60.1172 454.725 60.7077 453.072 61.7707 451.066C62.2431 450.121 62.8337 449.295 63.3061 448.35C63.7785 447.406 64.1329 446.58 64.1329 445.871C64.1329 445.281 64.0148 444.927 63.7785 444.809C63.5423 444.691 63.188 444.809 62.8337 445.045C62.0069 445.517 61.4164 446.58 61.0621 448.114C60.9439 448.232 60.7077 448.232 60.5896 448.232C60.3534 448.232 60.2353 448.114 60.2353 447.996C60.4715 447.17 60.8258 446.344 61.2983 445.517C61.7707 444.691 62.3612 444.101 62.9518 443.628C63.5423 443.274 64.1329 443.156 64.4872 443.392C64.9596 443.628 65.1958 444.219 65.0777 445.163C65.0777 445.989 64.7234 446.934 64.1329 448.114C63.5423 449.177 62.9518 450.239 62.3612 451.42C61.8888 452.364 61.5345 453.191 61.2983 453.899L64.7234 451.774C64.8415 452.128 64.8415 452.364 64.8415 452.482Z" fill="white"/>
<path id="Vector_54" d="M72.1634 443.511C72.0453 445.163 71.8091 446.58 71.3367 447.76C70.8643 449.177 70.1556 450.121 69.2107 450.594C68.2659 451.184 67.6753 451.066 67.2029 450.239C66.8486 449.531 66.7305 448.351 66.7305 446.698C66.8486 445.045 67.0848 443.629 67.5572 442.448C68.0297 441.032 68.7383 440.087 69.6832 439.615C70.628 439.025 71.2186 439.143 71.691 439.969C72.0453 440.677 72.1634 441.858 72.1634 443.511ZM71.2186 444.101C71.2186 442.802 71.2186 441.858 70.9824 441.268C70.7461 440.559 70.2737 440.441 69.6832 440.795C69.0926 441.15 68.6202 441.858 68.2659 442.92C67.9115 443.865 67.7934 444.927 67.6753 446.226C67.6753 447.524 67.6753 448.469 67.9116 449.059C68.1478 449.767 68.6202 449.885 69.2107 449.531C69.8013 449.177 70.2737 448.469 70.628 447.406C70.9824 446.462 71.1005 445.399 71.2186 444.101Z" fill="white"/>
<path id="Vector_55" d="M76.4169 445.991C76.2987 446.109 76.0625 446.345 75.9444 446.463C75.8263 446.463 75.7082 446.581 75.472 446.581L75.8263 437.963L74.6452 440.088C74.5271 440.088 74.409 440.088 74.2909 439.97C74.1728 439.852 74.0547 439.734 74.0547 439.616L75.9444 436.075C76.0625 435.957 76.1806 435.839 76.4169 435.72C76.6531 435.602 76.7712 435.484 76.8893 435.484L76.4169 445.991Z" fill="white"/>
<path id="Vector_56" d="M85.2749 434.539C85.1568 436.428 84.6843 438.199 83.9757 439.734C83.1489 441.504 81.8497 442.803 80.4324 443.747C80.4324 443.511 80.4324 443.393 80.4324 443.157C80.4324 442.921 80.4324 442.685 80.5506 442.567C81.4954 441.977 82.3222 441.15 83.0308 439.97C83.7395 438.789 84.2119 437.727 84.2119 436.664C83.7395 437.609 83.1489 438.199 82.3222 438.671C81.7316 439.025 81.2592 439.025 80.7868 438.789C80.3143 438.435 80.0781 437.727 80.0781 436.546C80.0781 435.484 80.4324 434.539 80.9049 433.595C81.3773 432.651 82.086 431.942 82.7946 431.47C83.7395 430.88 84.4481 430.998 84.8025 431.588C85.2749 432.296 85.393 433.241 85.2749 434.539ZM84.33 434.067C84.33 433.359 84.2119 433.005 83.9757 432.651C83.6214 432.414 83.267 432.414 82.7946 432.651C82.3222 432.887 81.9679 433.359 81.6135 434.067C81.2592 434.657 81.1411 435.366 81.023 436.074C81.023 436.782 81.1411 437.255 81.3773 437.491C81.7316 437.727 82.086 437.727 82.5584 437.491C83.0308 437.255 83.3852 436.782 83.7395 436.074C84.0938 435.366 84.33 434.657 84.33 434.067Z" fill="white"/>
</g>
<g id="Group_16">
<path id="Vector_57" d="M104.881 429.228C104.881 429.582 104.881 429.819 104.762 429.937L100.156 432.77C100.156 431.471 100.747 429.818 101.81 427.812C102.282 426.867 102.755 426.041 103.345 425.097C103.818 424.152 104.172 423.326 104.172 422.617C104.172 422.027 104.054 421.673 103.818 421.555C103.581 421.437 103.227 421.555 102.873 421.791C102.046 422.263 101.455 423.326 101.101 424.86C100.983 424.978 100.747 424.978 100.629 424.978C100.392 424.978 100.274 424.86 100.274 424.742C100.511 423.916 100.865 423.09 101.337 422.263C101.81 421.437 102.4 420.847 102.991 420.375C103.581 420.02 104.172 419.902 104.526 420.138C104.999 420.375 105.235 420.965 105.117 421.909C105.117 422.736 104.762 423.68 104.172 424.86C103.581 425.923 102.991 426.985 102.4 428.166C101.928 429.11 101.574 429.937 101.337 430.645L104.762 428.52C104.881 428.992 104.881 429.11 104.881 429.228Z" fill="white"/>
<path id="Vector_58" d="M112.085 420.257C111.967 421.909 111.731 423.326 111.259 424.507C110.786 425.923 110.077 426.868 109.133 427.34C108.188 427.93 107.597 427.812 107.125 426.986C106.77 426.277 106.652 425.097 106.652 423.444C106.77 421.791 107.007 420.375 107.479 419.194C107.952 417.778 108.66 416.833 109.605 416.361C110.55 415.771 111.14 415.889 111.613 416.715C112.085 417.424 112.203 418.604 112.085 420.257ZM111.14 420.847C111.14 419.548 111.14 418.604 110.904 418.014C110.668 417.305 110.196 417.187 109.605 417.542C109.015 417.896 108.542 418.604 108.188 419.666C107.833 420.611 107.715 421.673 107.597 422.972C107.597 424.27 107.597 425.215 107.833 425.805C108.07 426.513 108.542 426.631 109.133 426.277C109.723 425.923 110.196 425.215 110.55 424.152C110.904 423.326 111.14 422.146 111.14 420.847Z" fill="white"/>
<path id="Vector_59" d="M118.226 421.082C118.226 421.436 118.226 421.672 118.108 421.79L113.502 424.623C113.502 423.325 114.092 421.672 115.155 419.665C115.628 418.721 116.1 417.894 116.691 416.95C117.163 416.006 117.518 415.179 117.518 414.471C117.518 413.881 117.4 413.527 117.163 413.409C116.927 413.291 116.573 413.409 116.218 413.645C115.392 414.117 114.801 415.179 114.447 416.714C114.329 416.832 114.092 416.832 113.974 416.832C113.738 416.832 113.738 416.714 113.62 416.596C113.856 415.77 114.211 414.943 114.683 414.117C115.155 413.29 115.746 412.7 116.337 412.228C116.927 411.874 117.518 411.756 117.872 411.992C118.344 412.228 118.581 412.818 118.462 413.763C118.462 414.589 118.108 415.533 117.518 416.714C116.927 417.776 116.337 418.839 115.746 420.019C115.274 420.964 114.919 421.79 114.683 422.498L118.108 420.373C118.226 420.728 118.226 420.964 118.226 421.082Z" fill="white"/>
<path id="Vector_60" d="M125.432 412.11C125.314 413.763 125.078 415.179 124.606 416.36C124.133 417.777 123.425 418.721 122.48 419.193C121.535 419.783 120.944 419.665 120.472 418.839C120.118 418.131 119.881 416.95 119.999 415.298C120.118 413.645 120.354 412.228 120.826 411.048C121.299 409.631 122.007 408.687 122.952 408.215C123.897 407.624 124.488 407.742 124.96 408.569C125.432 409.277 125.551 410.458 125.432 412.11ZM124.488 412.7C124.488 411.402 124.488 410.458 124.251 409.867C124.015 409.159 123.543 409.041 122.952 409.395C122.362 409.749 121.889 410.458 121.535 411.52C121.181 412.464 121.062 413.527 120.944 414.825C120.944 416.124 120.944 417.068 121.181 417.658C121.417 418.367 121.889 418.485 122.48 418.131C123.07 417.777 123.543 417.068 123.897 416.006C124.251 415.061 124.488 413.999 124.488 412.7Z" fill="white"/>
</g>
<g id="Group_17">
<path id="Vector_61" d="M147.164 405.146C147.164 405.5 147.164 405.736 147.046 405.855L142.439 408.688C142.439 407.389 143.03 405.736 144.093 403.73C144.565 402.785 145.038 401.959 145.628 401.015C146.101 400.07 146.455 399.244 146.455 398.535C146.455 397.945 146.337 397.591 146.101 397.473C145.865 397.355 145.51 397.473 145.156 397.709C144.329 398.181 143.739 399.244 143.384 400.778C143.266 400.896 143.03 400.896 142.912 400.896C142.676 400.896 142.676 400.778 142.558 400.66C142.794 399.834 143.148 399.008 143.621 398.181C144.093 397.355 144.684 396.765 145.274 396.293C145.865 395.938 146.455 395.82 146.809 396.056C147.282 396.293 147.518 396.883 147.4 397.827C147.4 398.654 147.046 399.598 146.455 400.778C145.865 401.841 145.274 402.903 144.684 404.084C144.211 405.028 143.857 405.855 143.621 406.563L147.046 404.438C147.164 404.792 147.164 404.91 147.164 405.146Z" fill="white"/>
<path id="Vector_62" d="M154.486 396.175C154.368 397.827 154.131 399.244 153.659 400.424C153.187 401.841 152.478 402.785 151.533 403.258C150.588 403.848 149.998 403.73 149.525 402.903C149.171 402.195 149.053 401.015 149.053 399.362C149.171 397.709 149.407 396.293 149.88 395.112C150.352 393.696 151.061 392.751 152.005 392.279C152.95 391.689 153.541 391.807 154.013 392.633C154.368 393.342 154.486 394.522 154.486 396.175ZM153.541 396.765C153.541 395.466 153.541 394.522 153.305 393.932C153.068 393.223 152.596 393.105 152.005 393.46C151.415 393.814 150.942 394.522 150.588 395.584C150.234 396.529 150.116 397.591 149.998 398.89C149.998 400.188 149.998 401.133 150.234 401.723C150.47 402.431 150.942 402.549 151.533 402.195C152.124 401.841 152.596 401.133 152.95 400.07C153.305 399.126 153.423 398.063 153.541 396.765Z" fill="white"/>
<path id="Vector_63" d="M160.51 396.883C160.51 397.237 160.51 397.473 160.391 397.591L155.785 400.424C155.785 399.126 156.376 397.473 157.439 395.466C157.911 394.522 158.384 393.695 158.974 392.751C159.447 391.806 159.801 390.98 159.801 390.272C159.801 389.682 159.683 389.327 159.447 389.209C159.21 389.091 158.856 389.209 158.502 389.445C157.675 389.918 157.084 390.98 156.73 392.515C156.612 392.633 156.376 392.633 156.258 392.633C156.021 392.633 156.021 392.515 155.903 392.397C156.139 391.57 156.494 390.744 156.966 389.918C157.439 389.091 158.029 388.501 158.62 388.029C159.21 387.675 159.801 387.557 160.155 387.793C160.628 388.029 160.864 388.737 160.746 389.563C160.746 390.39 160.391 391.334 159.801 392.515C159.21 393.577 158.62 394.64 158.029 395.82C157.557 396.765 157.202 397.591 156.966 398.299L160.391 396.174C160.51 396.646 160.51 396.765 160.51 396.883Z" fill="white"/>
<path id="Vector_64" d="M165.352 394.522C165.234 394.64 164.998 394.876 164.88 394.994C164.762 394.994 164.644 395.112 164.408 395.112L164.762 386.495L163.581 388.62C163.463 388.62 163.345 388.62 163.226 388.502C163.108 388.383 162.99 388.265 162.99 388.147L164.88 384.606C164.998 384.488 165.116 384.37 165.352 384.252C165.589 384.134 165.707 384.016 165.825 384.016L165.352 394.522Z" fill="white"/>
</g>
<path id="Vector_65" d="M27.1642 377.641C27.046 379.884 28.6996 381.772 30.8255 381.89C32.9515 382.009 34.605 380.12 34.7231 377.877C34.8412 375.634 33.1877 373.745 31.0617 373.627C29.0539 373.627 27.2823 375.398 27.1642 377.641Z" fill="white"/>
<path id="Vector_66" d="M68.1485 322.865C68.0304 325.108 69.6839 326.997 71.8099 327.115C73.9358 327.233 75.5894 325.344 75.7075 323.101C75.8256 320.858 74.1721 318.97 72.0461 318.852C69.9202 318.852 68.1485 320.622 68.1485 322.865Z" fill="white"/>
<path id="Vector_67" d="M109.014 305.277C108.896 307.52 110.549 309.408 112.675 309.527C114.801 309.645 116.455 307.756 116.573 305.513C116.691 303.27 115.037 301.381 112.911 301.263C110.903 301.145 109.132 303.034 109.014 305.277Z" fill="white"/>
<path id="Vector_68" d="M149.998 247.55C149.88 249.793 151.534 251.682 153.66 251.8C155.785 251.918 157.439 250.03 157.557 247.787C157.675 245.544 156.022 243.655 153.896 243.537C151.77 243.419 149.998 245.19 149.998 247.55Z" fill="white"/>
</g>
<g id="lowCharts">
<g id="low1">
<path id="Vector_69" fill-rule="evenodd" clip-rule="evenodd" d="M284.878 384.72C284.878 385.547 284.406 386.373 283.343 386.963L257.831 401.838C255.824 403.018 252.517 403.018 250.509 401.838L224.879 386.963C223.816 386.373 223.344 385.665 223.344 384.838C223.344 384.13 223.462 365.36 223.462 365.36C225.47 364.18 282.988 364.77 284.996 365.951C284.878 365.951 284.76 383.894 284.878 384.72Z" fill="url(#paint28_linear)"/>
<path id="Vector_70" fill-rule="evenodd" clip-rule="evenodd" d="M283.345 363.354C285.352 364.535 285.352 366.424 283.345 367.604L257.833 382.478C255.825 383.659 252.518 383.659 250.51 382.478L224.881 367.604C222.873 366.424 222.873 364.535 224.881 363.354L250.51 348.598C252.518 347.418 255.825 347.418 257.833 348.598L283.345 363.354Z" fill="url(#paint29_linear)"/>
</g>
<g id="low2">
<path id="Vector_71" fill-rule="evenodd" clip-rule="evenodd" d="M333.894 412.582C333.894 413.409 333.421 414.235 332.358 414.825L306.847 429.7C304.839 430.88 301.532 430.88 299.524 429.7L273.895 414.825C272.832 414.235 272.359 413.527 272.359 412.7C272.359 411.874 272.359 362.411 272.359 362.411C274.367 361.231 332.004 361.113 334.012 362.293C333.894 362.293 333.894 411.874 333.894 412.582Z" fill="url(#paint30_linear)"/>
<path id="Vector_72" fill-rule="evenodd" clip-rule="evenodd" d="M332.36 360.286C334.368 361.467 334.368 363.355 332.36 364.536L306.849 379.41C304.841 380.591 301.534 380.591 299.526 379.41L273.897 364.536C271.889 363.355 271.889 361.467 273.897 360.286L299.526 345.53C301.534 344.349 304.841 344.349 306.849 345.53L332.36 360.286Z" fill="url(#paint31_linear)"/>
</g>
<g id="low3">
<path id="Vector_73" fill-rule="evenodd" clip-rule="evenodd" d="M382.908 440.677C382.908 441.504 382.435 442.33 381.372 442.92L355.861 457.794C353.853 458.975 350.546 458.975 348.538 457.794L322.908 442.92C321.845 442.33 321.373 441.622 321.373 440.795C321.373 439.969 321.491 364.299 321.491 364.299C323.499 363.119 381.018 363.237 383.026 364.417C382.907 364.299 382.908 439.851 382.908 440.677Z" fill="url(#paint32_linear)"/>
<path id="Vector_74" fill-rule="evenodd" clip-rule="evenodd" d="M381.374 362.292C383.382 363.472 383.382 365.361 381.374 366.542L355.862 381.416C353.855 382.596 350.548 382.596 348.54 381.416L322.91 366.542C320.902 365.361 320.902 363.472 322.91 362.292L348.54 347.536C350.548 346.355 353.855 346.355 355.862 347.536L381.374 362.292Z" fill="url(#paint33_linear)"/>
</g>
<g id="low4">
<path id="Vector_75" fill-rule="evenodd" clip-rule="evenodd" d="M431.923 469.717C431.923 470.544 431.451 471.37 430.388 471.96L404.876 486.834C402.868 488.015 399.561 488.015 397.554 486.834L371.924 471.96C370.861 471.37 370.389 470.662 370.389 469.835C370.389 469.009 370.389 419.546 370.389 419.546C372.397 418.366 430.033 418.248 432.041 419.428C431.923 419.31 431.923 468.891 431.923 469.717Z" fill="url(#paint34_linear)"/>
<path id="Vector_76" fill-rule="evenodd" clip-rule="evenodd" d="M430.39 417.304C432.397 418.484 432.397 420.373 430.39 421.553L404.878 436.428C402.87 437.608 399.563 437.608 397.555 436.428L371.926 421.553C369.918 420.373 369.918 418.484 371.926 417.304L397.555 402.547C399.563 401.367 402.87 401.367 404.878 402.547L430.39 417.304Z" fill="url(#paint35_linear)"/>
</g>
</g>
</g>
</g>
<defs>
<linearGradient id="paint0_linear" x1="117.442" y1="148.251" x2="-22.1074" y2="93.0592" gradientUnits="userSpaceOnUse">
<stop stop-color="#E55E16"/>
<stop offset="0.5645" stop-color="#E30D3B"/>
<stop offset="1" stop-color="#89106A"/>
</linearGradient>
<linearGradient id="paint1_linear" x1="0.231306" y1="78.2568" x2="192.041" y2="204.301" gradientUnits="userSpaceOnUse">
<stop stop-color="#E55E16"/>
<stop offset="0.5645" stop-color="#E30D3B"/>
<stop offset="1" stop-color="#89106A"/>
</linearGradient>
<linearGradient id="paint2_linear" x1="116.274" y1="343.896" x2="10.1552" y2="261.433" gradientUnits="userSpaceOnUse">
<stop stop-color="#E55E16"/>
<stop offset="0.5645" stop-color="#E30D3B"/>
<stop offset="1" stop-color="#89106A"/>
</linearGradient>
<linearGradient id="paint3_linear" x1="0.23095" y1="264.3" x2="192.041" y2="390.345" gradientUnits="userSpaceOnUse">
<stop stop-color="#E55E16"/>
<stop offset="0.5645" stop-color="#E30D3B"/>
<stop offset="1" stop-color="#89106A"/>
</linearGradient>
<linearGradient id="paint4_linear" x1="188.447" y1="298.808" x2="638.436" y2="136.377" gradientUnits="userSpaceOnUse">
<stop stop-color="#E55E16"/>
<stop offset="0.5645" stop-color="#E30D3B"/>
<stop offset="1" stop-color="#89106A"/>
</linearGradient>
<linearGradient id="paint5_linear" x1="414.843" y1="62.2099" x2="406.253" y2="381.918" gradientUnits="userSpaceOnUse">
<stop stop-color="#E55E16"/>
<stop offset="0.5645" stop-color="#E30D3B"/>
<stop offset="1" stop-color="#89106A"/>
</linearGradient>
<linearGradient id="paint6_linear" x1="446.666" y1="365.735" x2="339.627" y2="362.739" gradientUnits="userSpaceOnUse">
<stop stop-color="#E55E16"/>
<stop offset="0.5645" stop-color="#E30D3B"/>
<stop offset="1" stop-color="#89106A"/>
</linearGradient>
<linearGradient id="paint7_linear" x1="471.425" y1="108.499" x2="478.4" y2="108.499" gradientUnits="userSpaceOnUse">
<stop stop-color="#E55E16"/>
<stop offset="0.5645" stop-color="#E30D3B"/>
<stop offset="1" stop-color="#89106A"/>
</linearGradient>
<linearGradient id="paint8_linear" x1="391.246" y1="69.0923" x2="429.957" y2="69.0923" gradientUnits="userSpaceOnUse">
<stop stop-color="#E55E16"/>
<stop offset="0.5645" stop-color="#E30D3B"/>
<stop offset="1" stop-color="#89106A"/>
</linearGradient>
<linearGradient id="paint9_linear" x1="29.9856" y1="-12.5224" x2="29.9856" y2="138.7" gradientUnits="userSpaceOnUse">
<stop stop-color="#F3B4D0"/>
<stop offset="0.5" stop-color="#817DB5"/>
<stop offset="0.8387" stop-color="#2A96CF"/>
<stop offset="1" stop-color="#01A2DB"/>
</linearGradient>
<linearGradient id="paint10_linear" x1="69.6514" y1="-12.5224" x2="69.6514" y2="138.7" gradientUnits="userSpaceOnUse">
<stop stop-color="#F3B4D0"/>
<stop offset="0.5" stop-color="#817DB5"/>
<stop offset="0.8387" stop-color="#2A96CF"/>
<stop offset="1" stop-color="#01A2DB"/>
</linearGradient>
<linearGradient id="paint11_linear" x1="109.321" y1="-12.5231" x2="109.321" y2="138.699" gradientUnits="userSpaceOnUse">
<stop stop-color="#F3B4D0"/>
<stop offset="0.5" stop-color="#817DB5"/>
<stop offset="0.8387" stop-color="#2A96CF"/>
<stop offset="1" stop-color="#01A2DB"/>
</linearGradient>
<linearGradient id="paint12_linear" x1="148.987" y1="-12.5209" x2="148.987" y2="138.699" gradientUnits="userSpaceOnUse">
<stop stop-color="#F3B4D0"/>
<stop offset="0.5" stop-color="#817DB5"/>
<stop offset="0.8387" stop-color="#2A96CF"/>
<stop offset="1" stop-color="#01A2DB"/>
</linearGradient>
<linearGradient id="paint13_linear" x1="222.19" y1="260.328" x2="483.543" y2="260.328" gradientUnits="userSpaceOnUse">
<stop stop-color="#F3B4D0"/>
<stop offset="0.5" stop-color="#817DB5"/>
<stop offset="0.8387" stop-color="#2A96CF"/>
<stop offset="1" stop-color="#01A2DB"/>
</linearGradient>
<linearGradient id="paint14_linear" x1="443.877" y1="224.056" x2="582.842" y2="224.056" gradientUnits="userSpaceOnUse">
<stop stop-color="#E55E16"/>
<stop offset="0.5645" stop-color="#E30D3B"/>
<stop offset="1" stop-color="#89106A"/>
</linearGradient>
<linearGradient id="paint15_linear" x1="265.725" y1="236.736" x2="456.968" y2="236.736" gradientUnits="userSpaceOnUse">
<stop stop-color="#E55E16"/>
<stop offset="0.5645" stop-color="#E30D3B"/>
<stop offset="1" stop-color="#89106A"/>
</linearGradient>
<linearGradient id="paint16_linear" x1="218.497" y1="249.96" x2="357.463" y2="249.96" gradientUnits="userSpaceOnUse">
<stop stop-color="#E55E16"/>
<stop offset="0.5645" stop-color="#E30D3B"/>
<stop offset="1" stop-color="#89106A"/>
</linearGradient>
<linearGradient id="paint17_linear" x1="302.94" y1="92.2194" x2="327.095" y2="73.4488" gradientUnits="userSpaceOnUse">
<stop stop-color="#E55E16"/>
<stop offset="0.5645" stop-color="#E30D3B"/>
<stop offset="1" stop-color="#89106A"/>
</linearGradient>
<linearGradient id="paint18_linear" x1="329.354" y1="74.102" x2="285.695" y2="102.792" gradientUnits="userSpaceOnUse">
<stop stop-color="#E55E16"/>
<stop offset="0.5645" stop-color="#E30D3B"/>
<stop offset="1" stop-color="#89106A"/>
</linearGradient>
<linearGradient id="paint19_linear" x1="330.893" y1="144.574" x2="355.047" y2="125.803" gradientUnits="userSpaceOnUse">
<stop stop-color="#E55E16"/>
<stop offset="0.5645" stop-color="#E30D3B"/>
<stop offset="1" stop-color="#89106A"/>
</linearGradient>
<linearGradient id="paint20_linear" x1="357.306" y1="126.457" x2="313.646" y2="155.148" gradientUnits="userSpaceOnUse">
<stop stop-color="#E55E16"/>
<stop offset="0.5645" stop-color="#E30D3B"/>
<stop offset="1" stop-color="#89106A"/>
</linearGradient>
<linearGradient id="paint21_linear" x1="379.765" y1="153.207" x2="403.92" y2="134.437" gradientUnits="userSpaceOnUse">
<stop stop-color="#E55E16"/>
<stop offset="0.5645" stop-color="#E30D3B"/>
<stop offset="1" stop-color="#89106A"/>
</linearGradient>
<linearGradient id="paint22_linear" x1="406.178" y1="135.091" x2="362.519" y2="163.781" gradientUnits="userSpaceOnUse">
<stop stop-color="#E55E16"/>
<stop offset="0.5645" stop-color="#E30D3B"/>
<stop offset="1" stop-color="#89106A"/>
</linearGradient>
<linearGradient id="paint23_linear" x1="0.474931" y1="335.83" x2="219.871" y2="335.83" gradientUnits="userSpaceOnUse">
<stop stop-color="#F3B4D0"/>
<stop offset="0.5" stop-color="#817DB5"/>
<stop offset="0.8387" stop-color="#2A96CF"/>
<stop offset="1" stop-color="#01A2DB"/>
</linearGradient>
<linearGradient id="paint24_linear" x1="30.9611" y1="415.671" x2="31.7945" y2="415.671" gradientUnits="userSpaceOnUse">
<stop stop-color="#F3B4D0"/>
<stop offset="0.5" stop-color="#817DB5"/>
<stop offset="0.8387" stop-color="#2A96CF"/>
<stop offset="1" stop-color="#01A2DB"/>
</linearGradient>
<linearGradient id="paint25_linear" x1="71.8852" y1="376.482" x2="72.7185" y2="376.482" gradientUnits="userSpaceOnUse">
<stop stop-color="#F3B4D0"/>
<stop offset="0.5" stop-color="#817DB5"/>
<stop offset="0.8387" stop-color="#2A96CF"/>
<stop offset="1" stop-color="#01A2DB"/>
</linearGradient>
<linearGradient id="paint26_linear" x1="112.809" y1="355.856" x2="113.643" y2="355.856" gradientUnits="userSpaceOnUse">
<stop stop-color="#F3B4D0"/>
<stop offset="0.5" stop-color="#817DB5"/>
<stop offset="0.8387" stop-color="#2A96CF"/>
<stop offset="1" stop-color="#01A2DB"/>
</linearGradient>
<linearGradient id="paint27_linear" x1="153.731" y1="315.17" x2="154.565" y2="315.17" gradientUnits="userSpaceOnUse">
<stop stop-color="#F3B4D0"/>
<stop offset="0.5" stop-color="#817DB5"/>
<stop offset="0.8387" stop-color="#2A96CF"/>
<stop offset="1" stop-color="#01A2DB"/>
</linearGradient>
<linearGradient id="paint28_linear" x1="292.819" y1="384.4" x2="220.662" y2="383.012" gradientUnits="userSpaceOnUse">
<stop stop-color="#E55E16"/>
<stop offset="0.5645" stop-color="#E30D3B"/>
<stop offset="1" stop-color="#89106A"/>
</linearGradient>
<linearGradient id="paint29_linear" x1="223.289" y1="365.491" x2="284.903" y2="365.491" gradientUnits="userSpaceOnUse">
<stop stop-color="#E55E16"/>
<stop offset="0.5645" stop-color="#E30D3B"/>
<stop offset="1" stop-color="#89106A"/>
</linearGradient>
<linearGradient id="paint30_linear" x1="342.262" y1="396.638" x2="269.341" y2="395.235" gradientUnits="userSpaceOnUse">
<stop stop-color="#E55E16"/>
<stop offset="0.5645" stop-color="#E30D3B"/>
<stop offset="1" stop-color="#89106A"/>
</linearGradient>
<linearGradient id="paint31_linear" x1="272.284" y1="362.448" x2="333.898" y2="362.448" gradientUnits="userSpaceOnUse">
<stop stop-color="#E55E16"/>
<stop offset="0.5645" stop-color="#E30D3B"/>
<stop offset="1" stop-color="#89106A"/>
</linearGradient>
<linearGradient id="paint32_linear" x1="391.561" y1="411.678" x2="318.125" y2="410.266" gradientUnits="userSpaceOnUse">
<stop stop-color="#E55E16"/>
<stop offset="0.5645" stop-color="#E30D3B"/>
<stop offset="1" stop-color="#89106A"/>
</linearGradient>
<linearGradient id="paint33_linear" x1="321.338" y1="364.48" x2="382.952" y2="364.48" gradientUnits="userSpaceOnUse">
<stop stop-color="#E55E16"/>
<stop offset="0.5645" stop-color="#E30D3B"/>
<stop offset="1" stop-color="#89106A"/>
</linearGradient>
<linearGradient id="paint34_linear" x1="440.311" y1="453.699" x2="367.39" y2="452.296" gradientUnits="userSpaceOnUse">
<stop stop-color="#E55E16"/>
<stop offset="0.5645" stop-color="#E30D3B"/>
<stop offset="1" stop-color="#89106A"/>
</linearGradient>
<linearGradient id="paint35_linear" x1="370.333" y1="419.509" x2="431.947" y2="419.509" gradientUnits="userSpaceOnUse">
<stop stop-color="#E55E16"/>
<stop offset="0.5645" stop-color="#E30D3B"/>
<stop offset="1" stop-color="#89106A"/>
</linearGradient>
<clipPath id="clip0">
<rect width="512" height="487.662" fill="white"/>
</clipPath>
</defs>
</svg>
