<svg width="35" height="35" viewBox="0 0 35 35" fill="none" xmlns="http://www.w3.org/2000/svg">
<path d="M34.2476 17.8615C34.2476 16.4248 34.131 15.3764 33.8787 14.2892H17.4733V20.7736H27.1029C26.9088 22.3851 25.8604 24.8119 23.5306 26.4427L23.4979 26.6598L28.685 30.6781L29.0444 30.714C32.3448 27.6659 34.2476 23.1811 34.2476 17.8615Z" fill="#4285F4"/>
<path d="M17.4733 34.9463C22.191 34.9463 26.1516 33.3931 29.0445 30.714L23.5307 26.4426C22.0552 27.4716 20.0749 28.1899 17.4733 28.1899C12.8527 28.1899 8.93094 25.1419 7.53295 20.929L7.32804 20.9464L1.93443 25.1205L1.86389 25.3166C4.73724 31.0245 10.6393 34.9463 17.4733 34.9463Z" fill="#34A853"/>
<path d="M7.53282 20.929C7.16395 19.8418 6.95047 18.6769 6.95047 17.4732C6.95047 16.2694 7.16395 15.1046 7.51342 14.0174L7.50365 13.7858L2.04245 9.54462L1.86377 9.62961C0.679522 11.9982 0 14.6581 0 17.4732C0 20.2883 0.679522 22.9481 1.86377 25.3167L7.53282 20.929Z" fill="#FBBC05"/>
<path d="M17.4733 6.75627C20.7544 6.75627 22.9676 8.17353 24.2296 9.35791L29.1609 4.54304C26.1323 1.72791 22.191 0 17.4733 0C10.6393 0 4.73724 3.92174 1.86389 9.62961L7.51354 14.0174C8.93094 9.80441 12.8527 6.75627 17.4733 6.75627Z" fill="#EB4335"/>
</svg>
